solid CATIA STL
  facet normal -6.835918e-001  7.298645e-001  0.000000e+000
    outer loop
      vertex  2.474874e+002 -2.474874e+002 -2.784270e+003
      vertex  2.307710e+002 -2.631439e+002 -8.284270e+003
      vertex  2.307710e+002 -2.631439e+002 -2.784270e+003
    endloop
  endfacet
  facet normal -6.343936e-001  7.730103e-001  0.000000e+000
    outer loop
      vertex  2.307710e+002 -2.631439e+002 -2.784270e+003
      vertex  2.307710e+002 -2.631439e+002 -8.284270e+003
      vertex  2.130665e+002 -2.776737e+002 -8.284270e+003
    endloop
  endfacet
  facet normal -6.343936e-001  7.730103e-001  0.000000e+000
    outer loop
      vertex  2.307710e+002 -2.631439e+002 -2.784270e+003
      vertex  2.130665e+002 -2.776737e+002 -8.284270e+003
      vertex  2.130665e+002 -2.776737e+002 -2.784270e+003
    endloop
  endfacet
  facet normal -5.824779e-001  8.128465e-001  0.000000e+000
    outer loop
      vertex  2.130665e+002 -2.776737e+002 -2.784270e+003
      vertex  2.130665e+002 -2.776737e+002 -8.284270e+003
      vertex  1.944496e+002 -2.910144e+002 -8.284270e+003
    endloop
  endfacet
  facet normal -5.824779e-001  8.128465e-001  0.000000e+000
    outer loop
      vertex  2.130665e+002 -2.776737e+002 -2.784270e+003
      vertex  1.944496e+002 -2.910144e+002 -8.284270e+003
      vertex  1.944496e+002 -2.910144e+002 -2.784270e+003
    endloop
  endfacet
  facet normal -5.280673e-001  8.492025e-001  0.000000e+000
    outer loop
      vertex  1.944496e+002 -2.910144e+002 -2.784270e+003
      vertex  1.944496e+002 -2.910144e+002 -8.284270e+003
      vertex  1.750000e+002 -3.031089e+002 -8.284270e+003
    endloop
  endfacet
  facet normal -5.280673e-001  8.492025e-001  0.000000e+000
    outer loop
      vertex  1.944496e+002 -2.910144e+002 -2.784270e+003
      vertex  1.750000e+002 -3.031089e+002 -8.284270e+003
      vertex  1.750000e+002 -3.031089e+002 -2.784270e+003
    endloop
  endfacet
  facet normal -4.713968e-001  8.819212e-001  0.000000e+000
    outer loop
      vertex  1.750000e+002 -3.031089e+002 -2.784270e+003
      vertex  1.750000e+002 -3.031089e+002 -8.284270e+003
      vertex  1.548010e+002 -3.139055e+002 -8.284270e+003
    endloop
  endfacet
  facet normal -4.713968e-001  8.819212e-001  0.000000e+000
    outer loop
      vertex  1.750000e+002 -3.031089e+002 -2.784270e+003
      vertex  1.548010e+002 -3.139055e+002 -8.284270e+003
      vertex  1.548010e+002 -3.139055e+002 -2.784270e+003
    endloop
  endfacet
  facet normal -4.127075e-001  9.108636e-001  0.000000e+000
    outer loop
      vertex  1.548010e+002 -3.139055e+002 -2.784270e+003
      vertex  1.548010e+002 -3.139055e+002 -8.284270e+003
      vertex  1.339392e+002 -3.233578e+002 -8.284270e+003
    endloop
  endfacet
  facet normal -4.127075e-001  9.108636e-001  0.000000e+000
    outer loop
      vertex  1.548010e+002 -3.139055e+002 -2.784270e+003
      vertex  1.339392e+002 -3.233578e+002 -8.284270e+003
      vertex  1.339392e+002 -3.233578e+002 -2.784270e+003
    endloop
  endfacet
  facet normal -3.522494e-001  9.359062e-001  0.000000e+000
    outer loop
      vertex  1.339392e+002 -3.233578e+002 -2.784270e+003
      vertex  1.339392e+002 -3.233578e+002 -8.284270e+003
      vertex  1.125038e+002 -3.314255e+002 -8.284270e+003
    endloop
  endfacet
  facet normal -3.522494e-001  9.359062e-001  0.000000e+000
    outer loop
      vertex  1.339392e+002 -3.233578e+002 -2.784270e+003
      vertex  1.125038e+002 -3.314255e+002 -8.284270e+003
      vertex  1.125038e+002 -3.314255e+002 -2.784270e+003
    endloop
  endfacet
  facet normal -2.902848e-001  9.569403e-001  0.000000e+000
    outer loop
      vertex  1.125038e+002 -3.314255e+002 -2.784270e+003
      vertex  1.125038e+002 -3.314255e+002 -8.284270e+003
      vertex  9.058666e+001 -3.380740e+002 -8.284270e+003
    endloop
  endfacet
  facet normal -2.902848e-001  9.569403e-001  0.000000e+000
    outer loop
      vertex  1.125038e+002 -3.314255e+002 -2.784270e+003
      vertex  9.058666e+001 -3.380740e+002 -8.284270e+003
      vertex  9.058666e+001 -3.380740e+002 -2.784270e+003
    endloop
  endfacet
  facet normal -2.270762e-001  9.738770e-001  0.000000e+000
    outer loop
      vertex  9.058666e+001 -3.380740e+002 -2.784270e+003
      vertex  9.058666e+001 -3.380740e+002 -8.284270e+003
      vertex  6.828162e+001 -3.432748e+002 -8.284270e+003
    endloop
  endfacet
  facet normal -2.270762e-001  9.738770e-001  0.000000e+000
    outer loop
      vertex  9.058666e+001 -3.380740e+002 -2.784270e+003
      vertex  6.828162e+001 -3.432748e+002 -8.284270e+003
      vertex  6.828162e+001 -3.432748e+002 -2.784270e+003
    endloop
  endfacet
  facet normal -1.628959e-001  9.866433e-001  0.000000e+000
    outer loop
      vertex  6.828162e+001 -3.432748e+002 -2.784270e+003
      vertex  6.828162e+001 -3.432748e+002 -8.284270e+003
      vertex  4.568417e+001 -3.470057e+002 -8.284270e+003
    endloop
  endfacet
  facet normal -1.628959e-001  9.866433e-001  0.000000e+000
    outer loop
      vertex  6.828162e+001 -3.432748e+002 -2.784270e+003
      vertex  4.568417e+001 -3.470057e+002 -8.284270e+003
      vertex  4.568417e+001 -3.470057e+002 -2.784270e+003
    endloop
  endfacet
  facet normal -9.801637e-002  9.951848e-001  0.000000e+000
    outer loop
      vertex  4.568417e+001 -3.470057e+002 -2.784270e+003
      vertex  4.568417e+001 -3.470057e+002 -8.284270e+003
      vertex  2.289110e+001 -3.492506e+002 -8.284270e+003
    endloop
  endfacet
  facet normal -9.801637e-002  9.951848e-001  0.000000e+000
    outer loop
      vertex  4.568417e+001 -3.470057e+002 -2.784270e+003
      vertex  2.289110e+001 -3.492506e+002 -8.284270e+003
      vertex  2.289110e+001 -3.492506e+002 -2.784270e+003
    endloop
  endfacet
  facet normal -3.271964e-002  9.994646e-001  0.000000e+000
    outer loop
      vertex  2.289110e+001 -3.492506e+002 -2.784270e+003
      vertex  2.289110e+001 -3.492506e+002 -8.284270e+003
      vertex -5.628429e-014 -3.500000e+002 -8.284270e+003
    endloop
  endfacet
  facet normal -3.271964e-002  9.994646e-001  0.000000e+000
    outer loop
      vertex  2.289110e+001 -3.492506e+002 -2.784270e+003
      vertex -5.628429e-014 -3.500000e+002 -8.284270e+003
      vertex -5.628429e-014 -3.500000e+002 -2.784270e+003
    endloop
  endfacet
  facet normal -6.835918e-001  7.298645e-001  0.000000e+000
    outer loop
      vertex  2.307710e+002 -2.631439e+002 -8.284270e+003
      vertex  2.474874e+002 -2.474874e+002 -2.784270e+003
      vertex  2.474874e+002 -2.474874e+002 -8.284270e+003
    endloop
  endfacet
  facet normal -7.298645e-001  6.835918e-001  0.000000e+000
    outer loop
      vertex  2.474874e+002 -2.474874e+002 -8.284270e+003
      vertex  2.474874e+002 -2.474874e+002 -2.784270e+003
      vertex  2.631439e+002 -2.307710e+002 -2.784270e+003
    endloop
  endfacet
  facet normal -7.298645e-001  6.835918e-001  0.000000e+000
    outer loop
      vertex  2.474874e+002 -2.474874e+002 -8.284270e+003
      vertex  2.631439e+002 -2.307710e+002 -2.784270e+003
      vertex  2.631439e+002 -2.307710e+002 -8.284270e+003
    endloop
  endfacet
  facet normal -7.730103e-001  6.343936e-001  0.000000e+000
    outer loop
      vertex  2.631439e+002 -2.307710e+002 -8.284270e+003
      vertex  2.631439e+002 -2.307710e+002 -2.784270e+003
      vertex  2.776737e+002 -2.130665e+002 -2.784270e+003
    endloop
  endfacet
  facet normal -7.730103e-001  6.343936e-001  0.000000e+000
    outer loop
      vertex  2.631439e+002 -2.307710e+002 -8.284270e+003
      vertex  2.776737e+002 -2.130665e+002 -2.784270e+003
      vertex  2.776737e+002 -2.130665e+002 -8.284270e+003
    endloop
  endfacet
  facet normal -8.128465e-001  5.824779e-001  0.000000e+000
    outer loop
      vertex  2.776737e+002 -2.130665e+002 -8.284270e+003
      vertex  2.776737e+002 -2.130665e+002 -2.784270e+003
      vertex  2.910144e+002 -1.944496e+002 -2.784270e+003
    endloop
  endfacet
  facet normal -8.128465e-001  5.824779e-001  0.000000e+000
    outer loop
      vertex  2.776737e+002 -2.130665e+002 -8.284270e+003
      vertex  2.910144e+002 -1.944496e+002 -2.784270e+003
      vertex  2.910144e+002 -1.944496e+002 -8.284270e+003
    endloop
  endfacet
  facet normal -8.492025e-001  5.280673e-001  0.000000e+000
    outer loop
      vertex  2.910144e+002 -1.944496e+002 -8.284270e+003
      vertex  2.910144e+002 -1.944496e+002 -2.784270e+003
      vertex  3.031089e+002 -1.750000e+002 -2.784270e+003
    endloop
  endfacet
  facet normal -8.492025e-001  5.280673e-001  0.000000e+000
    outer loop
      vertex  2.910144e+002 -1.944496e+002 -8.284270e+003
      vertex  3.031089e+002 -1.750000e+002 -2.784270e+003
      vertex  3.031089e+002 -1.750000e+002 -8.284270e+003
    endloop
  endfacet
  facet normal -8.819212e-001  4.713968e-001  0.000000e+000
    outer loop
      vertex  3.031089e+002 -1.750000e+002 -8.284270e+003
      vertex  3.031089e+002 -1.750000e+002 -2.784270e+003
      vertex  3.139055e+002 -1.548010e+002 -2.784270e+003
    endloop
  endfacet
  facet normal -8.819212e-001  4.713968e-001  0.000000e+000
    outer loop
      vertex  3.031089e+002 -1.750000e+002 -8.284270e+003
      vertex  3.139055e+002 -1.548010e+002 -2.784270e+003
      vertex  3.139055e+002 -1.548010e+002 -8.284270e+003
    endloop
  endfacet
  facet normal -9.108636e-001  4.127075e-001  0.000000e+000
    outer loop
      vertex  3.139055e+002 -1.548010e+002 -8.284270e+003
      vertex  3.139055e+002 -1.548010e+002 -2.784270e+003
      vertex  3.233578e+002 -1.339392e+002 -2.784270e+003
    endloop
  endfacet
  facet normal -9.108636e-001  4.127075e-001  0.000000e+000
    outer loop
      vertex  3.139055e+002 -1.548010e+002 -8.284270e+003
      vertex  3.233578e+002 -1.339392e+002 -2.784270e+003
      vertex  3.233578e+002 -1.339392e+002 -8.284270e+003
    endloop
  endfacet
  facet normal -9.359062e-001  3.522494e-001  0.000000e+000
    outer loop
      vertex  3.233578e+002 -1.339392e+002 -8.284270e+003
      vertex  3.233578e+002 -1.339392e+002 -2.784270e+003
      vertex  3.314255e+002 -1.125038e+002 -2.784270e+003
    endloop
  endfacet
  facet normal -9.359062e-001  3.522494e-001  0.000000e+000
    outer loop
      vertex  3.233578e+002 -1.339392e+002 -8.284270e+003
      vertex  3.314255e+002 -1.125038e+002 -2.784270e+003
      vertex  3.314255e+002 -1.125038e+002 -8.284270e+003
    endloop
  endfacet
  facet normal -9.569403e-001  2.902848e-001  0.000000e+000
    outer loop
      vertex  3.314255e+002 -1.125038e+002 -8.284270e+003
      vertex  3.314255e+002 -1.125038e+002 -2.784270e+003
      vertex  3.380740e+002 -9.058666e+001 -2.784270e+003
    endloop
  endfacet
  facet normal -9.569403e-001  2.902848e-001  0.000000e+000
    outer loop
      vertex  3.314255e+002 -1.125038e+002 -8.284270e+003
      vertex  3.380740e+002 -9.058666e+001 -2.784270e+003
      vertex  3.380740e+002 -9.058666e+001 -8.284270e+003
    endloop
  endfacet
  facet normal -9.738770e-001  2.270762e-001  0.000000e+000
    outer loop
      vertex  3.380740e+002 -9.058666e+001 -8.284270e+003
      vertex  3.380740e+002 -9.058666e+001 -2.784270e+003
      vertex  3.432748e+002 -6.828162e+001 -2.784270e+003
    endloop
  endfacet
  facet normal -9.738770e-001  2.270762e-001  0.000000e+000
    outer loop
      vertex  3.380740e+002 -9.058666e+001 -8.284270e+003
      vertex  3.432748e+002 -6.828162e+001 -2.784270e+003
      vertex  3.432748e+002 -6.828162e+001 -8.284270e+003
    endloop
  endfacet
  facet normal -9.866433e-001  1.628959e-001  0.000000e+000
    outer loop
      vertex  3.432748e+002 -6.828162e+001 -8.284270e+003
      vertex  3.432748e+002 -6.828162e+001 -2.784270e+003
      vertex  3.470057e+002 -4.568417e+001 -2.784270e+003
    endloop
  endfacet
  facet normal -9.866433e-001  1.628959e-001  0.000000e+000
    outer loop
      vertex  3.432748e+002 -6.828162e+001 -8.284270e+003
      vertex  3.470057e+002 -4.568417e+001 -2.784270e+003
      vertex  3.470057e+002 -4.568417e+001 -8.284270e+003
    endloop
  endfacet
  facet normal -9.951848e-001  9.801637e-002  0.000000e+000
    outer loop
      vertex  3.470057e+002 -4.568417e+001 -8.284270e+003
      vertex  3.470057e+002 -4.568417e+001 -2.784270e+003
      vertex  3.492506e+002 -2.289110e+001 -2.784270e+003
    endloop
  endfacet
  facet normal -9.951848e-001  9.801637e-002  0.000000e+000
    outer loop
      vertex  3.470057e+002 -4.568417e+001 -8.284270e+003
      vertex  3.492506e+002 -2.289110e+001 -2.784270e+003
      vertex  3.492506e+002 -2.289110e+001 -8.284270e+003
    endloop
  endfacet
  facet normal -9.994646e-001  3.271964e-002  0.000000e+000
    outer loop
      vertex  3.492506e+002 -2.289110e+001 -8.284270e+003
      vertex  3.492506e+002 -2.289110e+001 -2.784270e+003
      vertex  3.500000e+002 -5.232335e-013 -2.784270e+003
    endloop
  endfacet
  facet normal -9.994646e-001  3.271964e-002  0.000000e+000
    outer loop
      vertex  3.492506e+002 -2.289110e+001 -8.284270e+003
      vertex  3.500000e+002 -5.232335e-013 -2.784270e+003
      vertex  3.500000e+002 -5.232335e-013 -8.284270e+003
    endloop
  endfacet
  facet normal -7.298645e-001 -6.835918e-001  0.000000e+000
    outer loop
      vertex  2.474874e+002  2.474874e+002 -2.784270e+003
      vertex  2.631439e+002  2.307710e+002 -8.284270e+003
      vertex  2.631439e+002  2.307710e+002 -2.784270e+003
    endloop
  endfacet
  facet normal -7.730103e-001 -6.343936e-001  -0.000000e+000
    outer loop
      vertex  2.631439e+002  2.307710e+002 -2.784270e+003
      vertex  2.631439e+002  2.307710e+002 -8.284270e+003
      vertex  2.776737e+002  2.130665e+002 -8.284270e+003
    endloop
  endfacet
  facet normal -7.730103e-001 -6.343936e-001  0.000000e+000
    outer loop
      vertex  2.631439e+002  2.307710e+002 -2.784270e+003
      vertex  2.776737e+002  2.130665e+002 -8.284270e+003
      vertex  2.776737e+002  2.130665e+002 -2.784270e+003
    endloop
  endfacet
  facet normal -8.128465e-001 -5.824779e-001  -0.000000e+000
    outer loop
      vertex  2.776737e+002  2.130665e+002 -2.784270e+003
      vertex  2.776737e+002  2.130665e+002 -8.284270e+003
      vertex  2.910144e+002  1.944496e+002 -8.284270e+003
    endloop
  endfacet
  facet normal -8.128465e-001 -5.824779e-001  0.000000e+000
    outer loop
      vertex  2.776737e+002  2.130665e+002 -2.784270e+003
      vertex  2.910144e+002  1.944496e+002 -8.284270e+003
      vertex  2.910144e+002  1.944496e+002 -2.784270e+003
    endloop
  endfacet
  facet normal -8.492025e-001 -5.280673e-001  -0.000000e+000
    outer loop
      vertex  2.910144e+002  1.944496e+002 -2.784270e+003
      vertex  2.910144e+002  1.944496e+002 -8.284270e+003
      vertex  3.031089e+002  1.750000e+002 -8.284270e+003
    endloop
  endfacet
  facet normal -8.492025e-001 -5.280673e-001  0.000000e+000
    outer loop
      vertex  2.910144e+002  1.944496e+002 -2.784270e+003
      vertex  3.031089e+002  1.750000e+002 -8.284270e+003
      vertex  3.031089e+002  1.750000e+002 -2.784270e+003
    endloop
  endfacet
  facet normal -8.819212e-001 -4.713968e-001  -0.000000e+000
    outer loop
      vertex  3.031089e+002  1.750000e+002 -2.784270e+003
      vertex  3.031089e+002  1.750000e+002 -8.284270e+003
      vertex  3.139055e+002  1.548010e+002 -8.284270e+003
    endloop
  endfacet
  facet normal -8.819212e-001 -4.713968e-001  0.000000e+000
    outer loop
      vertex  3.031089e+002  1.750000e+002 -2.784270e+003
      vertex  3.139055e+002  1.548010e+002 -8.284270e+003
      vertex  3.139055e+002  1.548010e+002 -2.784270e+003
    endloop
  endfacet
  facet normal -9.108636e-001 -4.127075e-001  -0.000000e+000
    outer loop
      vertex  3.139055e+002  1.548010e+002 -2.784270e+003
      vertex  3.139055e+002  1.548010e+002 -8.284270e+003
      vertex  3.233578e+002  1.339392e+002 -8.284270e+003
    endloop
  endfacet
  facet normal -9.108636e-001 -4.127075e-001  0.000000e+000
    outer loop
      vertex  3.139055e+002  1.548010e+002 -2.784270e+003
      vertex  3.233578e+002  1.339392e+002 -8.284270e+003
      vertex  3.233578e+002  1.339392e+002 -2.784270e+003
    endloop
  endfacet
  facet normal -9.359062e-001 -3.522494e-001  -0.000000e+000
    outer loop
      vertex  3.233578e+002  1.339392e+002 -2.784270e+003
      vertex  3.233578e+002  1.339392e+002 -8.284270e+003
      vertex  3.314255e+002  1.125038e+002 -8.284270e+003
    endloop
  endfacet
  facet normal -9.359062e-001 -3.522494e-001  0.000000e+000
    outer loop
      vertex  3.233578e+002  1.339392e+002 -2.784270e+003
      vertex  3.314255e+002  1.125038e+002 -8.284270e+003
      vertex  3.314255e+002  1.125038e+002 -2.784270e+003
    endloop
  endfacet
  facet normal -9.569403e-001 -2.902848e-001  -0.000000e+000
    outer loop
      vertex  3.314255e+002  1.125038e+002 -2.784270e+003
      vertex  3.314255e+002  1.125038e+002 -8.284270e+003
      vertex  3.380740e+002  9.058666e+001 -8.284270e+003
    endloop
  endfacet
  facet normal -9.569403e-001 -2.902848e-001  0.000000e+000
    outer loop
      vertex  3.314255e+002  1.125038e+002 -2.784270e+003
      vertex  3.380740e+002  9.058666e+001 -8.284270e+003
      vertex  3.380740e+002  9.058666e+001 -2.784270e+003
    endloop
  endfacet
  facet normal -9.738770e-001 -2.270762e-001  -0.000000e+000
    outer loop
      vertex  3.380740e+002  9.058666e+001 -2.784270e+003
      vertex  3.380740e+002  9.058666e+001 -8.284270e+003
      vertex  3.432748e+002  6.828162e+001 -8.284270e+003
    endloop
  endfacet
  facet normal -9.738770e-001 -2.270762e-001  0.000000e+000
    outer loop
      vertex  3.380740e+002  9.058666e+001 -2.784270e+003
      vertex  3.432748e+002  6.828162e+001 -8.284270e+003
      vertex  3.432748e+002  6.828162e+001 -2.784270e+003
    endloop
  endfacet
  facet normal -9.866433e-001 -1.628959e-001  -0.000000e+000
    outer loop
      vertex  3.432748e+002  6.828162e+001 -2.784270e+003
      vertex  3.432748e+002  6.828162e+001 -8.284270e+003
      vertex  3.470057e+002  4.568417e+001 -8.284270e+003
    endloop
  endfacet
  facet normal -9.866433e-001 -1.628959e-001  0.000000e+000
    outer loop
      vertex  3.432748e+002  6.828162e+001 -2.784270e+003
      vertex  3.470057e+002  4.568417e+001 -8.284270e+003
      vertex  3.470057e+002  4.568417e+001 -2.784270e+003
    endloop
  endfacet
  facet normal -9.951848e-001 -9.801637e-002  -0.000000e+000
    outer loop
      vertex  3.470057e+002  4.568417e+001 -2.784270e+003
      vertex  3.470057e+002  4.568417e+001 -8.284270e+003
      vertex  3.492506e+002  2.289110e+001 -8.284270e+003
    endloop
  endfacet
  facet normal -9.951848e-001 -9.801637e-002  0.000000e+000
    outer loop
      vertex  3.470057e+002  4.568417e+001 -2.784270e+003
      vertex  3.492506e+002  2.289110e+001 -8.284270e+003
      vertex  3.492506e+002  2.289110e+001 -2.784270e+003
    endloop
  endfacet
  facet normal -9.994646e-001 -3.271964e-002  -0.000000e+000
    outer loop
      vertex  3.492506e+002  2.289110e+001 -2.784270e+003
      vertex  3.492506e+002  2.289110e+001 -8.284270e+003
      vertex  3.500000e+002 -5.232335e-013 -8.284270e+003
    endloop
  endfacet
  facet normal -9.994646e-001 -3.271964e-002  0.000000e+000
    outer loop
      vertex  3.492506e+002  2.289110e+001 -2.784270e+003
      vertex  3.500000e+002 -5.232335e-013 -8.284270e+003
      vertex  3.500000e+002 -5.232335e-013 -2.784270e+003
    endloop
  endfacet
  facet normal -7.298645e-001 -6.835918e-001  -0.000000e+000
    outer loop
      vertex  2.631439e+002  2.307710e+002 -8.284270e+003
      vertex  2.474874e+002  2.474874e+002 -2.784270e+003
      vertex  2.474874e+002  2.474874e+002 -8.284270e+003
    endloop
  endfacet
  facet normal -6.835918e-001 -7.298645e-001  0.000000e+000
    outer loop
      vertex  2.474874e+002  2.474874e+002 -8.284270e+003
      vertex  2.474874e+002  2.474874e+002 -2.784270e+003
      vertex  2.307710e+002  2.631439e+002 -2.784270e+003
    endloop
  endfacet
  facet normal -6.835918e-001 -7.298645e-001  -0.000000e+000
    outer loop
      vertex  2.474874e+002  2.474874e+002 -8.284270e+003
      vertex  2.307710e+002  2.631439e+002 -2.784270e+003
      vertex  2.307710e+002  2.631439e+002 -8.284270e+003
    endloop
  endfacet
  facet normal -6.343936e-001 -7.730103e-001  0.000000e+000
    outer loop
      vertex  2.307710e+002  2.631439e+002 -8.284270e+003
      vertex  2.307710e+002  2.631439e+002 -2.784270e+003
      vertex  2.130665e+002  2.776737e+002 -2.784270e+003
    endloop
  endfacet
  facet normal -6.343936e-001 -7.730103e-001  -0.000000e+000
    outer loop
      vertex  2.307710e+002  2.631439e+002 -8.284270e+003
      vertex  2.130665e+002  2.776737e+002 -2.784270e+003
      vertex  2.130665e+002  2.776737e+002 -8.284270e+003
    endloop
  endfacet
  facet normal -5.824779e-001 -8.128465e-001  0.000000e+000
    outer loop
      vertex  2.130665e+002  2.776737e+002 -8.284270e+003
      vertex  2.130665e+002  2.776737e+002 -2.784270e+003
      vertex  1.944496e+002  2.910144e+002 -2.784270e+003
    endloop
  endfacet
  facet normal -5.824779e-001 -8.128465e-001  -0.000000e+000
    outer loop
      vertex  2.130665e+002  2.776737e+002 -8.284270e+003
      vertex  1.944496e+002  2.910144e+002 -2.784270e+003
      vertex  1.944496e+002  2.910144e+002 -8.284270e+003
    endloop
  endfacet
  facet normal -5.280673e-001 -8.492025e-001  0.000000e+000
    outer loop
      vertex  1.944496e+002  2.910144e+002 -8.284270e+003
      vertex  1.944496e+002  2.910144e+002 -2.784270e+003
      vertex  1.750000e+002  3.031089e+002 -2.784270e+003
    endloop
  endfacet
  facet normal -5.280673e-001 -8.492025e-001  -0.000000e+000
    outer loop
      vertex  1.944496e+002  2.910144e+002 -8.284270e+003
      vertex  1.750000e+002  3.031089e+002 -2.784270e+003
      vertex  1.750000e+002  3.031089e+002 -8.284270e+003
    endloop
  endfacet
  facet normal -4.713968e-001 -8.819212e-001  0.000000e+000
    outer loop
      vertex  1.750000e+002  3.031089e+002 -8.284270e+003
      vertex  1.750000e+002  3.031089e+002 -2.784270e+003
      vertex  1.548010e+002  3.139055e+002 -2.784270e+003
    endloop
  endfacet
  facet normal -4.713968e-001 -8.819212e-001  -0.000000e+000
    outer loop
      vertex  1.750000e+002  3.031089e+002 -8.284270e+003
      vertex  1.548010e+002  3.139055e+002 -2.784270e+003
      vertex  1.548010e+002  3.139055e+002 -8.284270e+003
    endloop
  endfacet
  facet normal -4.127075e-001 -9.108636e-001  0.000000e+000
    outer loop
      vertex  1.548010e+002  3.139055e+002 -8.284270e+003
      vertex  1.548010e+002  3.139055e+002 -2.784270e+003
      vertex  1.339392e+002  3.233578e+002 -2.784270e+003
    endloop
  endfacet
  facet normal -4.127075e-001 -9.108636e-001  -0.000000e+000
    outer loop
      vertex  1.548010e+002  3.139055e+002 -8.284270e+003
      vertex  1.339392e+002  3.233578e+002 -2.784270e+003
      vertex  1.339392e+002  3.233578e+002 -8.284270e+003
    endloop
  endfacet
  facet normal -3.522494e-001 -9.359062e-001  0.000000e+000
    outer loop
      vertex  1.339392e+002  3.233578e+002 -8.284270e+003
      vertex  1.339392e+002  3.233578e+002 -2.784270e+003
      vertex  1.125038e+002  3.314255e+002 -2.784270e+003
    endloop
  endfacet
  facet normal -3.522494e-001 -9.359062e-001  -0.000000e+000
    outer loop
      vertex  1.339392e+002  3.233578e+002 -8.284270e+003
      vertex  1.125038e+002  3.314255e+002 -2.784270e+003
      vertex  1.125038e+002  3.314255e+002 -8.284270e+003
    endloop
  endfacet
  facet normal -2.902848e-001 -9.569403e-001  0.000000e+000
    outer loop
      vertex  1.125038e+002  3.314255e+002 -8.284270e+003
      vertex  1.125038e+002  3.314255e+002 -2.784270e+003
      vertex  9.058666e+001  3.380740e+002 -2.784270e+003
    endloop
  endfacet
  facet normal -2.902848e-001 -9.569403e-001  -0.000000e+000
    outer loop
      vertex  1.125038e+002  3.314255e+002 -8.284270e+003
      vertex  9.058666e+001  3.380740e+002 -2.784270e+003
      vertex  9.058666e+001  3.380740e+002 -8.284270e+003
    endloop
  endfacet
  facet normal -2.270762e-001 -9.738770e-001  0.000000e+000
    outer loop
      vertex  9.058666e+001  3.380740e+002 -8.284270e+003
      vertex  9.058666e+001  3.380740e+002 -2.784270e+003
      vertex  6.828162e+001  3.432748e+002 -2.784270e+003
    endloop
  endfacet
  facet normal -2.270762e-001 -9.738770e-001  -0.000000e+000
    outer loop
      vertex  9.058666e+001  3.380740e+002 -8.284270e+003
      vertex  6.828162e+001  3.432748e+002 -2.784270e+003
      vertex  6.828162e+001  3.432748e+002 -8.284270e+003
    endloop
  endfacet
  facet normal -1.628959e-001 -9.866433e-001  0.000000e+000
    outer loop
      vertex  6.828162e+001  3.432748e+002 -8.284270e+003
      vertex  6.828162e+001  3.432748e+002 -2.784270e+003
      vertex  4.568417e+001  3.470057e+002 -2.784270e+003
    endloop
  endfacet
  facet normal -1.628959e-001 -9.866433e-001  -0.000000e+000
    outer loop
      vertex  6.828162e+001  3.432748e+002 -8.284270e+003
      vertex  4.568417e+001  3.470057e+002 -2.784270e+003
      vertex  4.568417e+001  3.470057e+002 -8.284270e+003
    endloop
  endfacet
  facet normal -9.801637e-002 -9.951848e-001  0.000000e+000
    outer loop
      vertex  4.568417e+001  3.470057e+002 -8.284270e+003
      vertex  4.568417e+001  3.470057e+002 -2.784270e+003
      vertex  2.289110e+001  3.492506e+002 -2.784270e+003
    endloop
  endfacet
  facet normal -9.801637e-002 -9.951848e-001  -0.000000e+000
    outer loop
      vertex  4.568417e+001  3.470057e+002 -8.284270e+003
      vertex  2.289110e+001  3.492506e+002 -2.784270e+003
      vertex  2.289110e+001  3.492506e+002 -8.284270e+003
    endloop
  endfacet
  facet normal -3.271964e-002 -9.994646e-001  0.000000e+000
    outer loop
      vertex  2.289110e+001  3.492506e+002 -8.284270e+003
      vertex  2.289110e+001  3.492506e+002 -2.784270e+003
      vertex  2.465685e-013  3.500000e+002 -2.784270e+003
    endloop
  endfacet
  facet normal -3.271964e-002 -9.994646e-001  -0.000000e+000
    outer loop
      vertex  2.289110e+001  3.492506e+002 -8.284270e+003
      vertex  2.465685e-013  3.500000e+002 -2.784270e+003
      vertex  2.465685e-013  3.500000e+002 -8.284270e+003
    endloop
  endfacet
  facet normal  6.835918e-001 -7.298645e-001  0.000000e+000
    outer loop
      vertex -2.474874e+002  2.474874e+002 -2.784270e+003
      vertex -2.307710e+002  2.631439e+002 -8.284270e+003
      vertex -2.307710e+002  2.631439e+002 -2.784270e+003
    endloop
  endfacet
  facet normal  6.343936e-001 -7.730103e-001  0.000000e+000
    outer loop
      vertex -2.307710e+002  2.631439e+002 -2.784270e+003
      vertex -2.307710e+002  2.631439e+002 -8.284270e+003
      vertex -2.130665e+002  2.776737e+002 -8.284270e+003
    endloop
  endfacet
  facet normal  6.343936e-001 -7.730103e-001  0.000000e+000
    outer loop
      vertex -2.307710e+002  2.631439e+002 -2.784270e+003
      vertex -2.130665e+002  2.776737e+002 -8.284270e+003
      vertex -2.130665e+002  2.776737e+002 -2.784270e+003
    endloop
  endfacet
  facet normal  5.824779e-001 -8.128465e-001  0.000000e+000
    outer loop
      vertex -2.130665e+002  2.776737e+002 -2.784270e+003
      vertex -2.130665e+002  2.776737e+002 -8.284270e+003
      vertex -1.944496e+002  2.910144e+002 -8.284270e+003
    endloop
  endfacet
  facet normal  5.824779e-001 -8.128465e-001  0.000000e+000
    outer loop
      vertex -2.130665e+002  2.776737e+002 -2.784270e+003
      vertex -1.944496e+002  2.910144e+002 -8.284270e+003
      vertex -1.944496e+002  2.910144e+002 -2.784270e+003
    endloop
  endfacet
  facet normal  5.280673e-001 -8.492025e-001  0.000000e+000
    outer loop
      vertex -1.944496e+002  2.910144e+002 -2.784270e+003
      vertex -1.944496e+002  2.910144e+002 -8.284270e+003
      vertex -1.750000e+002  3.031089e+002 -8.284270e+003
    endloop
  endfacet
  facet normal  5.280673e-001 -8.492025e-001  0.000000e+000
    outer loop
      vertex -1.944496e+002  2.910144e+002 -2.784270e+003
      vertex -1.750000e+002  3.031089e+002 -8.284270e+003
      vertex -1.750000e+002  3.031089e+002 -2.784270e+003
    endloop
  endfacet
  facet normal  4.713968e-001 -8.819212e-001  0.000000e+000
    outer loop
      vertex -1.750000e+002  3.031089e+002 -2.784270e+003
      vertex -1.750000e+002  3.031089e+002 -8.284270e+003
      vertex -1.548010e+002  3.139055e+002 -8.284270e+003
    endloop
  endfacet
  facet normal  4.713968e-001 -8.819212e-001  0.000000e+000
    outer loop
      vertex -1.750000e+002  3.031089e+002 -2.784270e+003
      vertex -1.548010e+002  3.139055e+002 -8.284270e+003
      vertex -1.548010e+002  3.139055e+002 -2.784270e+003
    endloop
  endfacet
  facet normal  4.127075e-001 -9.108636e-001  0.000000e+000
    outer loop
      vertex -1.548010e+002  3.139055e+002 -2.784270e+003
      vertex -1.548010e+002  3.139055e+002 -8.284270e+003
      vertex -1.339392e+002  3.233578e+002 -8.284270e+003
    endloop
  endfacet
  facet normal  4.127075e-001 -9.108636e-001  0.000000e+000
    outer loop
      vertex -1.548010e+002  3.139055e+002 -2.784270e+003
      vertex -1.339392e+002  3.233578e+002 -8.284270e+003
      vertex -1.339392e+002  3.233578e+002 -2.784270e+003
    endloop
  endfacet
  facet normal  3.522494e-001 -9.359062e-001  0.000000e+000
    outer loop
      vertex -1.339392e+002  3.233578e+002 -2.784270e+003
      vertex -1.339392e+002  3.233578e+002 -8.284270e+003
      vertex -1.125038e+002  3.314255e+002 -8.284270e+003
    endloop
  endfacet
  facet normal  3.522494e-001 -9.359062e-001  0.000000e+000
    outer loop
      vertex -1.339392e+002  3.233578e+002 -2.784270e+003
      vertex -1.125038e+002  3.314255e+002 -8.284270e+003
      vertex -1.125038e+002  3.314255e+002 -2.784270e+003
    endloop
  endfacet
  facet normal  2.902848e-001 -9.569403e-001  0.000000e+000
    outer loop
      vertex -1.125038e+002  3.314255e+002 -2.784270e+003
      vertex -1.125038e+002  3.314255e+002 -8.284270e+003
      vertex -9.058666e+001  3.380740e+002 -8.284270e+003
    endloop
  endfacet
  facet normal  2.902848e-001 -9.569403e-001  0.000000e+000
    outer loop
      vertex -1.125038e+002  3.314255e+002 -2.784270e+003
      vertex -9.058666e+001  3.380740e+002 -8.284270e+003
      vertex -9.058666e+001  3.380740e+002 -2.784270e+003
    endloop
  endfacet
  facet normal  2.270762e-001 -9.738770e-001  0.000000e+000
    outer loop
      vertex -9.058666e+001  3.380740e+002 -2.784270e+003
      vertex -9.058666e+001  3.380740e+002 -8.284270e+003
      vertex -6.828162e+001  3.432748e+002 -8.284270e+003
    endloop
  endfacet
  facet normal  2.270762e-001 -9.738770e-001  0.000000e+000
    outer loop
      vertex -9.058666e+001  3.380740e+002 -2.784270e+003
      vertex -6.828162e+001  3.432748e+002 -8.284270e+003
      vertex -6.828162e+001  3.432748e+002 -2.784270e+003
    endloop
  endfacet
  facet normal  1.628959e-001 -9.866433e-001  0.000000e+000
    outer loop
      vertex -6.828162e+001  3.432748e+002 -2.784270e+003
      vertex -6.828162e+001  3.432748e+002 -8.284270e+003
      vertex -4.568417e+001  3.470057e+002 -8.284270e+003
    endloop
  endfacet
  facet normal  1.628959e-001 -9.866433e-001  0.000000e+000
    outer loop
      vertex -6.828162e+001  3.432748e+002 -2.784270e+003
      vertex -4.568417e+001  3.470057e+002 -8.284270e+003
      vertex -4.568417e+001  3.470057e+002 -2.784270e+003
    endloop
  endfacet
  facet normal  9.801637e-002 -9.951848e-001  0.000000e+000
    outer loop
      vertex -4.568417e+001  3.470057e+002 -2.784270e+003
      vertex -4.568417e+001  3.470057e+002 -8.284270e+003
      vertex -2.289110e+001  3.492506e+002 -8.284270e+003
    endloop
  endfacet
  facet normal  9.801637e-002 -9.951848e-001  0.000000e+000
    outer loop
      vertex -4.568417e+001  3.470057e+002 -2.784270e+003
      vertex -2.289110e+001  3.492506e+002 -8.284270e+003
      vertex -2.289110e+001  3.492506e+002 -2.784270e+003
    endloop
  endfacet
  facet normal  3.271964e-002 -9.994646e-001  0.000000e+000
    outer loop
      vertex -2.289110e+001  3.492506e+002 -2.784270e+003
      vertex -2.289110e+001  3.492506e+002 -8.284270e+003
      vertex  2.465685e-013  3.500000e+002 -8.284270e+003
    endloop
  endfacet
  facet normal  3.271964e-002 -9.994646e-001  0.000000e+000
    outer loop
      vertex -2.289110e+001  3.492506e+002 -2.784270e+003
      vertex  2.465685e-013  3.500000e+002 -8.284270e+003
      vertex  2.465685e-013  3.500000e+002 -2.784270e+003
    endloop
  endfacet
  facet normal  6.835918e-001 -7.298645e-001  0.000000e+000
    outer loop
      vertex -2.307710e+002  2.631439e+002 -8.284270e+003
      vertex -2.474874e+002  2.474874e+002 -2.784270e+003
      vertex -2.474874e+002  2.474874e+002 -8.284270e+003
    endloop
  endfacet
  facet normal  7.298645e-001 -6.835918e-001  0.000000e+000
    outer loop
      vertex -2.474874e+002  2.474874e+002 -8.284270e+003
      vertex -2.474874e+002  2.474874e+002 -2.784270e+003
      vertex -2.631439e+002  2.307710e+002 -2.784270e+003
    endloop
  endfacet
  facet normal  7.298645e-001 -6.835918e-001  0.000000e+000
    outer loop
      vertex -2.474874e+002  2.474874e+002 -8.284270e+003
      vertex -2.631439e+002  2.307710e+002 -2.784270e+003
      vertex -2.631439e+002  2.307710e+002 -8.284270e+003
    endloop
  endfacet
  facet normal  7.730103e-001 -6.343936e-001  0.000000e+000
    outer loop
      vertex -2.631439e+002  2.307710e+002 -8.284270e+003
      vertex -2.631439e+002  2.307710e+002 -2.784270e+003
      vertex -2.776737e+002  2.130665e+002 -2.784270e+003
    endloop
  endfacet
  facet normal  7.730103e-001 -6.343936e-001  0.000000e+000
    outer loop
      vertex -2.631439e+002  2.307710e+002 -8.284270e+003
      vertex -2.776737e+002  2.130665e+002 -2.784270e+003
      vertex -2.776737e+002  2.130665e+002 -8.284270e+003
    endloop
  endfacet
  facet normal  8.128465e-001 -5.824779e-001  0.000000e+000
    outer loop
      vertex -2.776737e+002  2.130665e+002 -8.284270e+003
      vertex -2.776737e+002  2.130665e+002 -2.784270e+003
      vertex -2.910144e+002  1.944496e+002 -2.784270e+003
    endloop
  endfacet
  facet normal  8.128465e-001 -5.824779e-001  0.000000e+000
    outer loop
      vertex -2.776737e+002  2.130665e+002 -8.284270e+003
      vertex -2.910144e+002  1.944496e+002 -2.784270e+003
      vertex -2.910144e+002  1.944496e+002 -8.284270e+003
    endloop
  endfacet
  facet normal  8.492025e-001 -5.280673e-001  0.000000e+000
    outer loop
      vertex -2.910144e+002  1.944496e+002 -8.284270e+003
      vertex -2.910144e+002  1.944496e+002 -2.784270e+003
      vertex -3.031089e+002  1.750000e+002 -2.784270e+003
    endloop
  endfacet
  facet normal  8.492025e-001 -5.280673e-001  0.000000e+000
    outer loop
      vertex -2.910144e+002  1.944496e+002 -8.284270e+003
      vertex -3.031089e+002  1.750000e+002 -2.784270e+003
      vertex -3.031089e+002  1.750000e+002 -8.284270e+003
    endloop
  endfacet
  facet normal  8.819212e-001 -4.713968e-001  0.000000e+000
    outer loop
      vertex -3.031089e+002  1.750000e+002 -8.284270e+003
      vertex -3.031089e+002  1.750000e+002 -2.784270e+003
      vertex -3.139055e+002  1.548010e+002 -2.784270e+003
    endloop
  endfacet
  facet normal  8.819212e-001 -4.713968e-001  0.000000e+000
    outer loop
      vertex -3.031089e+002  1.750000e+002 -8.284270e+003
      vertex -3.139055e+002  1.548010e+002 -2.784270e+003
      vertex -3.139055e+002  1.548010e+002 -8.284270e+003
    endloop
  endfacet
  facet normal  9.108636e-001 -4.127075e-001  0.000000e+000
    outer loop
      vertex -3.139055e+002  1.548010e+002 -8.284270e+003
      vertex -3.139055e+002  1.548010e+002 -2.784270e+003
      vertex -3.233578e+002  1.339392e+002 -2.784270e+003
    endloop
  endfacet
  facet normal  9.108636e-001 -4.127075e-001  0.000000e+000
    outer loop
      vertex -3.139055e+002  1.548010e+002 -8.284270e+003
      vertex -3.233578e+002  1.339392e+002 -2.784270e+003
      vertex -3.233578e+002  1.339392e+002 -8.284270e+003
    endloop
  endfacet
  facet normal  9.359062e-001 -3.522494e-001  0.000000e+000
    outer loop
      vertex -3.233578e+002  1.339392e+002 -8.284270e+003
      vertex -3.233578e+002  1.339392e+002 -2.784270e+003
      vertex -3.314255e+002  1.125038e+002 -2.784270e+003
    endloop
  endfacet
  facet normal  9.359062e-001 -3.522494e-001  0.000000e+000
    outer loop
      vertex -3.233578e+002  1.339392e+002 -8.284270e+003
      vertex -3.314255e+002  1.125038e+002 -2.784270e+003
      vertex -3.314255e+002  1.125038e+002 -8.284270e+003
    endloop
  endfacet
  facet normal  9.569403e-001 -2.902848e-001  0.000000e+000
    outer loop
      vertex -3.314255e+002  1.125038e+002 -8.284270e+003
      vertex -3.314255e+002  1.125038e+002 -2.784270e+003
      vertex -3.380740e+002  9.058666e+001 -2.784270e+003
    endloop
  endfacet
  facet normal  9.569403e-001 -2.902848e-001  0.000000e+000
    outer loop
      vertex -3.314255e+002  1.125038e+002 -8.284270e+003
      vertex -3.380740e+002  9.058666e+001 -2.784270e+003
      vertex -3.380740e+002  9.058666e+001 -8.284270e+003
    endloop
  endfacet
  facet normal  9.738770e-001 -2.270762e-001  0.000000e+000
    outer loop
      vertex -3.380740e+002  9.058666e+001 -8.284270e+003
      vertex -3.380740e+002  9.058666e+001 -2.784270e+003
      vertex -3.432748e+002  6.828162e+001 -2.784270e+003
    endloop
  endfacet
  facet normal  9.738770e-001 -2.270762e-001  0.000000e+000
    outer loop
      vertex -3.380740e+002  9.058666e+001 -8.284270e+003
      vertex -3.432748e+002  6.828162e+001 -2.784270e+003
      vertex -3.432748e+002  6.828162e+001 -8.284270e+003
    endloop
  endfacet
  facet normal  9.866433e-001 -1.628959e-001  0.000000e+000
    outer loop
      vertex -3.432748e+002  6.828162e+001 -8.284270e+003
      vertex -3.432748e+002  6.828162e+001 -2.784270e+003
      vertex -3.470057e+002  4.568417e+001 -2.784270e+003
    endloop
  endfacet
  facet normal  9.866433e-001 -1.628959e-001  0.000000e+000
    outer loop
      vertex -3.432748e+002  6.828162e+001 -8.284270e+003
      vertex -3.470057e+002  4.568417e+001 -2.784270e+003
      vertex -3.470057e+002  4.568417e+001 -8.284270e+003
    endloop
  endfacet
  facet normal  9.951848e-001 -9.801637e-002  0.000000e+000
    outer loop
      vertex -3.470057e+002  4.568417e+001 -8.284270e+003
      vertex -3.470057e+002  4.568417e+001 -2.784270e+003
      vertex -3.492506e+002  2.289110e+001 -2.784270e+003
    endloop
  endfacet
  facet normal  9.951848e-001 -9.801637e-002  0.000000e+000
    outer loop
      vertex -3.470057e+002  4.568417e+001 -8.284270e+003
      vertex -3.492506e+002  2.289110e+001 -2.784270e+003
      vertex -3.492506e+002  2.289110e+001 -8.284270e+003
    endloop
  endfacet
  facet normal  9.994646e-001 -3.271964e-002  0.000000e+000
    outer loop
      vertex -3.492506e+002  2.289110e+001 -8.284270e+003
      vertex -3.492506e+002  2.289110e+001 -2.784270e+003
      vertex -3.500000e+002  2.360075e-013 -2.784270e+003
    endloop
  endfacet
  facet normal  9.994646e-001 -3.271964e-002  0.000000e+000
    outer loop
      vertex -3.492506e+002  2.289110e+001 -8.284270e+003
      vertex -3.500000e+002  2.360075e-013 -2.784270e+003
      vertex -3.500000e+002  2.360075e-013 -8.284270e+003
    endloop
  endfacet
  facet normal  7.298645e-001  6.835918e-001  -0.000000e+000
    outer loop
      vertex -2.474874e+002 -2.474874e+002 -2.784270e+003
      vertex -2.631439e+002 -2.307710e+002 -8.284270e+003
      vertex -2.631439e+002 -2.307710e+002 -2.784270e+003
    endloop
  endfacet
  facet normal  7.730103e-001  6.343936e-001  0.000000e+000
    outer loop
      vertex -2.631439e+002 -2.307710e+002 -2.784270e+003
      vertex -2.631439e+002 -2.307710e+002 -8.284270e+003
      vertex -2.776737e+002 -2.130665e+002 -8.284270e+003
    endloop
  endfacet
  facet normal  7.730103e-001  6.343936e-001  -0.000000e+000
    outer loop
      vertex -2.631439e+002 -2.307710e+002 -2.784270e+003
      vertex -2.776737e+002 -2.130665e+002 -8.284270e+003
      vertex -2.776737e+002 -2.130665e+002 -2.784270e+003
    endloop
  endfacet
  facet normal  8.128465e-001  5.824779e-001  0.000000e+000
    outer loop
      vertex -2.776737e+002 -2.130665e+002 -2.784270e+003
      vertex -2.776737e+002 -2.130665e+002 -8.284270e+003
      vertex -2.910144e+002 -1.944496e+002 -8.284270e+003
    endloop
  endfacet
  facet normal  8.128465e-001  5.824779e-001  -0.000000e+000
    outer loop
      vertex -2.776737e+002 -2.130665e+002 -2.784270e+003
      vertex -2.910144e+002 -1.944496e+002 -8.284270e+003
      vertex -2.910144e+002 -1.944496e+002 -2.784270e+003
    endloop
  endfacet
  facet normal  8.492025e-001  5.280673e-001  0.000000e+000
    outer loop
      vertex -2.910144e+002 -1.944496e+002 -2.784270e+003
      vertex -2.910144e+002 -1.944496e+002 -8.284270e+003
      vertex -3.031089e+002 -1.750000e+002 -8.284270e+003
    endloop
  endfacet
  facet normal  8.492025e-001  5.280673e-001  -0.000000e+000
    outer loop
      vertex -2.910144e+002 -1.944496e+002 -2.784270e+003
      vertex -3.031089e+002 -1.750000e+002 -8.284270e+003
      vertex -3.031089e+002 -1.750000e+002 -2.784270e+003
    endloop
  endfacet
  facet normal  8.819212e-001  4.713968e-001  0.000000e+000
    outer loop
      vertex -3.031089e+002 -1.750000e+002 -2.784270e+003
      vertex -3.031089e+002 -1.750000e+002 -8.284270e+003
      vertex -3.139055e+002 -1.548010e+002 -8.284270e+003
    endloop
  endfacet
  facet normal  8.819212e-001  4.713968e-001  -0.000000e+000
    outer loop
      vertex -3.031089e+002 -1.750000e+002 -2.784270e+003
      vertex -3.139055e+002 -1.548010e+002 -8.284270e+003
      vertex -3.139055e+002 -1.548010e+002 -2.784270e+003
    endloop
  endfacet
  facet normal  9.108636e-001  4.127075e-001  0.000000e+000
    outer loop
      vertex -3.139055e+002 -1.548010e+002 -2.784270e+003
      vertex -3.139055e+002 -1.548010e+002 -8.284270e+003
      vertex -3.233578e+002 -1.339392e+002 -8.284270e+003
    endloop
  endfacet
  facet normal  9.108636e-001  4.127075e-001  -0.000000e+000
    outer loop
      vertex -3.139055e+002 -1.548010e+002 -2.784270e+003
      vertex -3.233578e+002 -1.339392e+002 -8.284270e+003
      vertex -3.233578e+002 -1.339392e+002 -2.784270e+003
    endloop
  endfacet
  facet normal  9.359062e-001  3.522494e-001  0.000000e+000
    outer loop
      vertex -3.233578e+002 -1.339392e+002 -2.784270e+003
      vertex -3.233578e+002 -1.339392e+002 -8.284270e+003
      vertex -3.314255e+002 -1.125038e+002 -8.284270e+003
    endloop
  endfacet
  facet normal  9.359062e-001  3.522494e-001  -0.000000e+000
    outer loop
      vertex -3.233578e+002 -1.339392e+002 -2.784270e+003
      vertex -3.314255e+002 -1.125038e+002 -8.284270e+003
      vertex -3.314255e+002 -1.125038e+002 -2.784270e+003
    endloop
  endfacet
  facet normal  9.569403e-001  2.902848e-001  0.000000e+000
    outer loop
      vertex -3.314255e+002 -1.125038e+002 -2.784270e+003
      vertex -3.314255e+002 -1.125038e+002 -8.284270e+003
      vertex -3.380740e+002 -9.058666e+001 -8.284270e+003
    endloop
  endfacet
  facet normal  9.569403e-001  2.902848e-001  -0.000000e+000
    outer loop
      vertex -3.314255e+002 -1.125038e+002 -2.784270e+003
      vertex -3.380740e+002 -9.058666e+001 -8.284270e+003
      vertex -3.380740e+002 -9.058666e+001 -2.784270e+003
    endloop
  endfacet
  facet normal  9.738770e-001  2.270762e-001  0.000000e+000
    outer loop
      vertex -3.380740e+002 -9.058666e+001 -2.784270e+003
      vertex -3.380740e+002 -9.058666e+001 -8.284270e+003
      vertex -3.432748e+002 -6.828162e+001 -8.284270e+003
    endloop
  endfacet
  facet normal  9.738770e-001  2.270762e-001  -0.000000e+000
    outer loop
      vertex -3.380740e+002 -9.058666e+001 -2.784270e+003
      vertex -3.432748e+002 -6.828162e+001 -8.284270e+003
      vertex -3.432748e+002 -6.828162e+001 -2.784270e+003
    endloop
  endfacet
  facet normal  9.866433e-001  1.628959e-001  0.000000e+000
    outer loop
      vertex -3.432748e+002 -6.828162e+001 -2.784270e+003
      vertex -3.432748e+002 -6.828162e+001 -8.284270e+003
      vertex -3.470057e+002 -4.568417e+001 -8.284270e+003
    endloop
  endfacet
  facet normal  9.866433e-001  1.628959e-001  -0.000000e+000
    outer loop
      vertex -3.432748e+002 -6.828162e+001 -2.784270e+003
      vertex -3.470057e+002 -4.568417e+001 -8.284270e+003
      vertex -3.470057e+002 -4.568417e+001 -2.784270e+003
    endloop
  endfacet
  facet normal  9.951848e-001  9.801637e-002  0.000000e+000
    outer loop
      vertex -3.470057e+002 -4.568417e+001 -2.784270e+003
      vertex -3.470057e+002 -4.568417e+001 -8.284270e+003
      vertex -3.492506e+002 -2.289110e+001 -8.284270e+003
    endloop
  endfacet
  facet normal  9.951848e-001  9.801637e-002  -0.000000e+000
    outer loop
      vertex -3.470057e+002 -4.568417e+001 -2.784270e+003
      vertex -3.492506e+002 -2.289110e+001 -8.284270e+003
      vertex -3.492506e+002 -2.289110e+001 -2.784270e+003
    endloop
  endfacet
  facet normal  9.994646e-001  3.271964e-002  0.000000e+000
    outer loop
      vertex -3.492506e+002 -2.289110e+001 -2.784270e+003
      vertex -3.492506e+002 -2.289110e+001 -8.284270e+003
      vertex -3.500000e+002  2.360075e-013 -8.284270e+003
    endloop
  endfacet
  facet normal  9.994646e-001  3.271964e-002  -0.000000e+000
    outer loop
      vertex -3.492506e+002 -2.289110e+001 -2.784270e+003
      vertex -3.500000e+002  2.360075e-013 -8.284270e+003
      vertex -3.500000e+002  2.360075e-013 -2.784270e+003
    endloop
  endfacet
  facet normal  7.298645e-001  6.835918e-001  0.000000e+000
    outer loop
      vertex -2.631439e+002 -2.307710e+002 -8.284270e+003
      vertex -2.474874e+002 -2.474874e+002 -2.784270e+003
      vertex -2.474874e+002 -2.474874e+002 -8.284270e+003
    endloop
  endfacet
  facet normal  6.835918e-001  7.298645e-001  -0.000000e+000
    outer loop
      vertex -2.474874e+002 -2.474874e+002 -8.284270e+003
      vertex -2.474874e+002 -2.474874e+002 -2.784270e+003
      vertex -2.307710e+002 -2.631439e+002 -2.784270e+003
    endloop
  endfacet
  facet normal  6.835918e-001  7.298645e-001  0.000000e+000
    outer loop
      vertex -2.474874e+002 -2.474874e+002 -8.284270e+003
      vertex -2.307710e+002 -2.631439e+002 -2.784270e+003
      vertex -2.307710e+002 -2.631439e+002 -8.284270e+003
    endloop
  endfacet
  facet normal  6.343936e-001  7.730103e-001  -0.000000e+000
    outer loop
      vertex -2.307710e+002 -2.631439e+002 -8.284270e+003
      vertex -2.307710e+002 -2.631439e+002 -2.784270e+003
      vertex -2.130665e+002 -2.776737e+002 -2.784270e+003
    endloop
  endfacet
  facet normal  6.343936e-001  7.730103e-001  0.000000e+000
    outer loop
      vertex -2.307710e+002 -2.631439e+002 -8.284270e+003
      vertex -2.130665e+002 -2.776737e+002 -2.784270e+003
      vertex -2.130665e+002 -2.776737e+002 -8.284270e+003
    endloop
  endfacet
  facet normal  5.824779e-001  8.128465e-001  -0.000000e+000
    outer loop
      vertex -2.130665e+002 -2.776737e+002 -8.284270e+003
      vertex -2.130665e+002 -2.776737e+002 -2.784270e+003
      vertex -1.944496e+002 -2.910144e+002 -2.784270e+003
    endloop
  endfacet
  facet normal  5.824779e-001  8.128465e-001  0.000000e+000
    outer loop
      vertex -2.130665e+002 -2.776737e+002 -8.284270e+003
      vertex -1.944496e+002 -2.910144e+002 -2.784270e+003
      vertex -1.944496e+002 -2.910144e+002 -8.284270e+003
    endloop
  endfacet
  facet normal  5.280673e-001  8.492025e-001  -0.000000e+000
    outer loop
      vertex -1.944496e+002 -2.910144e+002 -8.284270e+003
      vertex -1.944496e+002 -2.910144e+002 -2.784270e+003
      vertex -1.750000e+002 -3.031089e+002 -2.784270e+003
    endloop
  endfacet
  facet normal  5.280673e-001  8.492025e-001  0.000000e+000
    outer loop
      vertex -1.944496e+002 -2.910144e+002 -8.284270e+003
      vertex -1.750000e+002 -3.031089e+002 -2.784270e+003
      vertex -1.750000e+002 -3.031089e+002 -8.284270e+003
    endloop
  endfacet
  facet normal  4.713968e-001  8.819212e-001  -0.000000e+000
    outer loop
      vertex -1.750000e+002 -3.031089e+002 -8.284270e+003
      vertex -1.750000e+002 -3.031089e+002 -2.784270e+003
      vertex -1.548010e+002 -3.139055e+002 -2.784270e+003
    endloop
  endfacet
  facet normal  4.713968e-001  8.819212e-001  0.000000e+000
    outer loop
      vertex -1.750000e+002 -3.031089e+002 -8.284270e+003
      vertex -1.548010e+002 -3.139055e+002 -2.784270e+003
      vertex -1.548010e+002 -3.139055e+002 -8.284270e+003
    endloop
  endfacet
  facet normal  4.127075e-001  9.108636e-001  -0.000000e+000
    outer loop
      vertex -1.548010e+002 -3.139055e+002 -8.284270e+003
      vertex -1.548010e+002 -3.139055e+002 -2.784270e+003
      vertex -1.339392e+002 -3.233578e+002 -2.784270e+003
    endloop
  endfacet
  facet normal  4.127075e-001  9.108636e-001  0.000000e+000
    outer loop
      vertex -1.548010e+002 -3.139055e+002 -8.284270e+003
      vertex -1.339392e+002 -3.233578e+002 -2.784270e+003
      vertex -1.339392e+002 -3.233578e+002 -8.284270e+003
    endloop
  endfacet
  facet normal  3.522494e-001  9.359062e-001  -0.000000e+000
    outer loop
      vertex -1.339392e+002 -3.233578e+002 -8.284270e+003
      vertex -1.339392e+002 -3.233578e+002 -2.784270e+003
      vertex -1.125038e+002 -3.314255e+002 -2.784270e+003
    endloop
  endfacet
  facet normal  3.522494e-001  9.359062e-001  0.000000e+000
    outer loop
      vertex -1.339392e+002 -3.233578e+002 -8.284270e+003
      vertex -1.125038e+002 -3.314255e+002 -2.784270e+003
      vertex -1.125038e+002 -3.314255e+002 -8.284270e+003
    endloop
  endfacet
  facet normal  2.902848e-001  9.569403e-001  -0.000000e+000
    outer loop
      vertex -1.125038e+002 -3.314255e+002 -8.284270e+003
      vertex -1.125038e+002 -3.314255e+002 -2.784270e+003
      vertex -9.058666e+001 -3.380740e+002 -2.784270e+003
    endloop
  endfacet
  facet normal  2.902848e-001  9.569403e-001  0.000000e+000
    outer loop
      vertex -1.125038e+002 -3.314255e+002 -8.284270e+003
      vertex -9.058666e+001 -3.380740e+002 -2.784270e+003
      vertex -9.058666e+001 -3.380740e+002 -8.284270e+003
    endloop
  endfacet
  facet normal  2.270762e-001  9.738770e-001  -0.000000e+000
    outer loop
      vertex -9.058666e+001 -3.380740e+002 -8.284270e+003
      vertex -9.058666e+001 -3.380740e+002 -2.784270e+003
      vertex -6.828162e+001 -3.432748e+002 -2.784270e+003
    endloop
  endfacet
  facet normal  2.270762e-001  9.738770e-001  0.000000e+000
    outer loop
      vertex -9.058666e+001 -3.380740e+002 -8.284270e+003
      vertex -6.828162e+001 -3.432748e+002 -2.784270e+003
      vertex -6.828162e+001 -3.432748e+002 -8.284270e+003
    endloop
  endfacet
  facet normal  1.628959e-001  9.866433e-001  -0.000000e+000
    outer loop
      vertex -6.828162e+001 -3.432748e+002 -8.284270e+003
      vertex -6.828162e+001 -3.432748e+002 -2.784270e+003
      vertex -4.568417e+001 -3.470057e+002 -2.784270e+003
    endloop
  endfacet
  facet normal  1.628959e-001  9.866433e-001  0.000000e+000
    outer loop
      vertex -6.828162e+001 -3.432748e+002 -8.284270e+003
      vertex -4.568417e+001 -3.470057e+002 -2.784270e+003
      vertex -4.568417e+001 -3.470057e+002 -8.284270e+003
    endloop
  endfacet
  facet normal  9.801637e-002  9.951848e-001  -0.000000e+000
    outer loop
      vertex -4.568417e+001 -3.470057e+002 -8.284270e+003
      vertex -4.568417e+001 -3.470057e+002 -2.784270e+003
      vertex -2.289110e+001 -3.492506e+002 -2.784270e+003
    endloop
  endfacet
  facet normal  9.801637e-002  9.951848e-001  0.000000e+000
    outer loop
      vertex -4.568417e+001 -3.470057e+002 -8.284270e+003
      vertex -2.289110e+001 -3.492506e+002 -2.784270e+003
      vertex -2.289110e+001 -3.492506e+002 -8.284270e+003
    endloop
  endfacet
  facet normal  3.271964e-002  9.994646e-001  -0.000000e+000
    outer loop
      vertex -2.289110e+001 -3.492506e+002 -8.284270e+003
      vertex -2.289110e+001 -3.492506e+002 -2.784270e+003
      vertex -5.628429e-014 -3.500000e+002 -2.784270e+003
    endloop
  endfacet
  facet normal  3.271964e-002  9.994646e-001  0.000000e+000
    outer loop
      vertex -2.289110e+001 -3.492506e+002 -8.284270e+003
      vertex -5.628429e-014 -3.500000e+002 -2.784270e+003
      vertex -5.628429e-014 -3.500000e+002 -8.284270e+003
    endloop
  endfacet
endsolid CATIA STL
