solid piston
  facet normal  0.000000e+000  0.000000e+000  1.000000e+000
    outer loop
      vertex -1.008329e-001 -5.000000e+002 -2.784270e+003
      vertex  2.522051e+001 -4.993635e+002 -2.784270e+003
      vertex -2.542199e+001 -4.993533e+002 -2.784270e+003
    endloop
  endfacet
  facet normal  -0.000000e+000  0.000000e+000  1.000000e+000
    outer loop
      vertex  1.008330e-001  5.000000e+002 -2.784270e+003
      vertex -2.522051e+001  4.993635e+002 -2.784270e+003
      vertex  2.542199e+001  4.993533e+002 -2.784270e+003
    endloop
  endfacet
  facet normal  0.000000e+000  0.000000e+000  1.000000e+000
    outer loop
      vertex  2.542199e+001  4.993533e+002 -2.784270e+003
      vertex -2.522051e+001  4.993635e+002 -2.784270e+003
      vertex -5.047714e+001  4.974455e+002 -2.784270e+003
    endloop
  endfacet
  facet normal  -0.000000e+000  0.000000e+000  1.000000e+000
    outer loop
      vertex  2.542199e+001  4.993533e+002 -2.784270e+003
      vertex -5.047714e+001  4.974455e+002 -2.784270e+003
      vertex  5.067800e+001  4.974250e+002 -2.784270e+003
    endloop
  endfacet
  facet normal  0.000000e+000  0.000000e+000  1.000000e+000
    outer loop
      vertex  5.067800e+001  4.974250e+002 -2.784270e+003
      vertex -5.047714e+001  4.974455e+002 -2.784270e+003
      vertex -7.560429e+001  4.942509e+002 -2.784270e+003
    endloop
  endfacet
  facet normal  -0.000000e+000  0.000000e+000  9.999999e-001
    outer loop
      vertex  5.067800e+001  4.974250e+002 -2.784270e+003
      vertex -7.560429e+001  4.942509e+002 -2.784270e+003
      vertex  7.580400e+001  4.942203e+002 -2.784270e+003
    endloop
  endfacet
  facet normal  0.000000e+000  0.000000e+000  1.000000e+000
    outer loop
      vertex  7.580400e+001  4.942203e+002 -2.784270e+003
      vertex -7.560429e+001  4.942509e+002 -2.784270e+003
      vertex -1.005375e+002  4.897878e+002 -2.784270e+003
    endloop
  endfacet
  facet normal  -0.000000e+000  0.000000e+000  1.000000e+000
    outer loop
      vertex  7.580400e+001  4.942203e+002 -2.784270e+003
      vertex -1.005375e+002  4.897878e+002 -2.784270e+003
      vertex  1.007355e+002  4.897472e+002 -2.784270e+003
    endloop
  endfacet
  facet normal  0.000000e+000  0.000000e+000  1.000000e+000
    outer loop
      vertex  1.007355e+002  4.897472e+002 -2.784270e+003
      vertex -1.005375e+002  4.897878e+002 -2.784270e+003
      vertex -1.252128e+002  4.840678e+002 -2.784270e+003
    endloop
  endfacet
  facet normal  -0.000000e+000  0.000000e+000  1.000000e+000
    outer loop
      vertex  1.007355e+002  4.897472e+002 -2.784270e+003
      vertex -1.252128e+002  4.840678e+002 -2.784270e+003
      vertex  1.254084e+002  4.840172e+002 -2.784270e+003
    endloop
  endfacet
  facet normal  0.000000e+000  0.000000e+000  1.000000e+000
    outer loop
      vertex  1.254084e+002  4.840172e+002 -2.784270e+003
      vertex -1.252128e+002  4.840678e+002 -2.784270e+003
      vertex -1.495667e+002  4.771056e+002 -2.784270e+003
    endloop
  endfacet
  facet normal  -0.000000e+000  0.000000e+000  1.000000e+000
    outer loop
      vertex  1.254084e+002  4.840172e+002 -2.784270e+003
      vertex -1.495667e+002  4.771056e+002 -2.784270e+003
      vertex  1.497593e+002  4.770452e+002 -2.784270e+003
    endloop
  endfacet
  facet normal  0.000000e+000  0.000000e+000  1.000000e+000
    outer loop
      vertex  1.497593e+002  4.770452e+002 -2.784270e+003
      vertex -1.495667e+002  4.771056e+002 -2.784270e+003
      vertex -1.735367e+002  4.689189e+002 -2.784270e+003
    endloop
  endfacet
  facet normal  -0.000000e+000  0.000000e+000  1.000000e+000
    outer loop
      vertex  1.497593e+002  4.770452e+002 -2.784270e+003
      vertex -1.735367e+002  4.689189e+002 -2.784270e+003
      vertex  1.737259e+002  4.688489e+002 -2.784270e+003
    endloop
  endfacet
  facet normal  0.000000e+000  0.000000e+000  1.000000e+000
    outer loop
      vertex  1.737259e+002  4.688489e+002 -2.784270e+003
      vertex -1.735367e+002  4.689189e+002 -2.784270e+003
      vertex -1.970613e+002  4.595289e+002 -2.784270e+003
    endloop
  endfacet
  facet normal  -0.000000e+000  0.000000e+000  1.000000e+000
    outer loop
      vertex  1.737259e+002  4.688489e+002 -2.784270e+003
      vertex -1.970613e+002  4.595289e+002 -2.784270e+003
      vertex  1.972466e+002  4.594494e+002 -2.784270e+003
    endloop
  endfacet
  facet normal  0.000000e+000  0.000000e+000  1.000000e+000
    outer loop
      vertex  1.972466e+002  4.594494e+002 -2.784270e+003
      vertex -1.970613e+002  4.595289e+002 -2.784270e+003
      vertex -2.200801e+002  4.489596e+002 -2.784270e+003
    endloop
  endfacet
  facet normal  -0.000000e+000  0.000000e+000  1.000000e+000
    outer loop
      vertex  1.972466e+002  4.594494e+002 -2.784270e+003
      vertex -2.200801e+002  4.489596e+002 -2.784270e+003
      vertex  2.202612e+002  4.488708e+002 -2.784270e+003
    endloop
  endfacet
  facet normal  0.000000e+000  0.000000e+000  1.000000e+000
    outer loop
      vertex  2.202612e+002  4.488708e+002 -2.784270e+003
      vertex -2.200801e+002  4.489596e+002 -2.784270e+003
      vertex -2.425341e+002  4.372381e+002 -2.784270e+003
    endloop
  endfacet
  facet normal  -0.000000e+000  0.000000e+000  1.000000e+000
    outer loop
      vertex  2.202612e+002  4.488708e+002 -2.784270e+003
      vertex -2.425341e+002  4.372381e+002 -2.784270e+003
      vertex  2.427106e+002  4.371401e+002 -2.784270e+003
    endloop
  endfacet
  facet normal  0.000000e+000  0.000000e+000  1.000000e+000
    outer loop
      vertex  2.427106e+002  4.371401e+002 -2.784270e+003
      vertex -2.425341e+002  4.372381e+002 -2.784270e+003
      vertex -2.643658e+002  4.243945e+002 -2.784270e+003
    endloop
  endfacet
  facet normal  -0.000000e+000  0.000000e+000  1.000000e+000
    outer loop
      vertex  2.427106e+002  4.371401e+002 -2.784270e+003
      vertex -2.643658e+002  4.243945e+002 -2.784270e+003
      vertex  2.645372e+002  4.242876e+002 -2.784270e+003
    endloop
  endfacet
  facet normal  0.000000e+000  0.000000e+000  1.000000e+000
    outer loop
      vertex  2.645372e+002  4.242876e+002 -2.784270e+003
      vertex -2.643658e+002  4.243945e+002 -2.784270e+003
      vertex -2.855190e+002  4.104617e+002 -2.784270e+003
    endloop
  endfacet
  facet normal  -0.000000e+000  0.000000e+000  1.000000e+000
    outer loop
      vertex  2.645372e+002  4.242876e+002 -2.784270e+003
      vertex -2.855190e+002  4.104617e+002 -2.784270e+003
      vertex  2.856849e+002  4.103463e+002 -2.784270e+003
    endloop
  endfacet
  facet normal  0.000000e+000  0.000000e+000  1.000000e+000
    outer loop
      vertex  2.856849e+002  4.103463e+002 -2.784270e+003
      vertex -2.855190e+002  4.104617e+002 -2.784270e+003
      vertex -3.059396e+002  3.954755e+002 -2.784270e+003
    endloop
  endfacet
  facet normal  -0.000000e+000  0.000000e+000  1.000000e+000
    outer loop
      vertex  2.856849e+002  4.103463e+002 -2.784270e+003
      vertex -3.059396e+002  3.954755e+002 -2.784270e+003
      vertex  3.060994e+002  3.953519e+002 -2.784270e+003
    endloop
  endfacet
  facet normal  0.000000e+000  0.000000e+000  9.999999e-001
    outer loop
      vertex  3.060994e+002  3.953519e+002 -2.784270e+003
      vertex -3.059396e+002  3.954755e+002 -2.784270e+003
      vertex -3.255751e+002  3.794744e+002 -2.784270e+003
    endloop
  endfacet
  facet normal  -0.000000e+000  0.000000e+000  1.000000e+000
    outer loop
      vertex  3.060994e+002  3.953519e+002 -2.784270e+003
      vertex -3.255751e+002  3.794744e+002 -2.784270e+003
      vertex  3.257283e+002  3.793429e+002 -2.784270e+003
    endloop
  endfacet
  facet normal  0.000000e+000  0.000000e+000  1.000000e+000
    outer loop
      vertex  3.257283e+002  3.793429e+002 -2.784270e+003
      vertex -3.255751e+002  3.794744e+002 -2.784270e+003
      vertex -3.443750e+002  3.624995e+002 -2.784270e+003
    endloop
  endfacet
  facet normal  -0.000000e+000  0.000000e+000  9.999999e-001
    outer loop
      vertex  3.257283e+002  3.793429e+002 -2.784270e+003
      vertex -3.443750e+002  3.624995e+002 -2.784270e+003
      vertex  3.445212e+002  3.623605e+002 -2.784270e+003
    endloop
  endfacet
  facet normal  0.000000e+000  0.000000e+000  1.000000e+000
    outer loop
      vertex  3.445212e+002  3.623605e+002 -2.784270e+003
      vertex -3.443750e+002  3.624995e+002 -2.784270e+003
      vertex -3.622910e+002  3.445943e+002 -2.784270e+003
    endloop
  endfacet
  facet normal  -0.000000e+000  0.000000e+000  9.999999e-001
    outer loop
      vertex  3.445212e+002  3.623605e+002 -2.784270e+003
      vertex -3.622910e+002  3.445943e+002 -2.784270e+003
      vertex  3.624300e+002  3.444481e+002 -2.784270e+003
    endloop
  endfacet
  facet normal  0.000000e+000  0.000000e+000  1.000000e+000
    outer loop
      vertex  3.624300e+002  3.444481e+002 -2.784270e+003
      vertex -3.622910e+002  3.445943e+002 -2.784270e+003
      vertex -3.792772e+002  3.258048e+002 -2.784270e+003
    endloop
  endfacet
  facet normal  -0.000000e+000  0.000000e+000  1.000000e+000
    outer loop
      vertex  3.624300e+002  3.444481e+002 -2.784270e+003
      vertex -3.792772e+002  3.258048e+002 -2.784270e+003
      vertex  3.794086e+002  3.256517e+002 -2.784270e+003
    endloop
  endfacet
  facet normal  0.000000e+000  0.000000e+000  1.000000e+000
    outer loop
      vertex  3.794086e+002  3.256517e+002 -2.784270e+003
      vertex -3.792772e+002  3.258048e+002 -2.784270e+003
      vertex -3.952901e+002  3.061792e+002 -2.784270e+003
    endloop
  endfacet
  facet normal  -0.000000e+000  0.000000e+000  1.000000e+000
    outer loop
      vertex  3.794086e+002  3.256517e+002 -2.784270e+003
      vertex -3.952901e+002  3.061792e+002 -2.784270e+003
      vertex  3.954137e+002  3.060196e+002 -2.784270e+003
    endloop
  endfacet
  facet normal  0.000000e+000  0.000000e+000  1.000000e+000
    outer loop
      vertex  3.954137e+002  3.060196e+002 -2.784270e+003
      vertex -3.952901e+002  3.061792e+002 -2.784270e+003
      vertex -4.102886e+002  2.857678e+002 -2.784270e+003
    endloop
  endfacet
  facet normal  -0.000000e+000  0.000000e+000  1.000000e+000
    outer loop
      vertex  3.954137e+002  3.060196e+002 -2.784270e+003
      vertex -4.102886e+002  2.857678e+002 -2.784270e+003
      vertex  4.104040e+002  2.856020e+002 -2.784270e+003
    endloop
  endfacet
  facet normal  0.000000e+000  0.000000e+000  1.000000e+000
    outer loop
      vertex  4.104040e+002  2.856020e+002 -2.784270e+003
      vertex -4.102886e+002  2.857678e+002 -2.784270e+003
      vertex -4.242341e+002  2.646230e+002 -2.784270e+003
    endloop
  endfacet
  facet normal  -0.000000e+000  0.000000e+000  1.000000e+000
    outer loop
      vertex  4.104040e+002  2.856020e+002 -2.784270e+003
      vertex -4.242341e+002  2.646230e+002 -2.784270e+003
      vertex  4.243411e+002  2.644515e+002 -2.784270e+003
    endloop
  endfacet
  facet normal  0.000000e+000  0.000000e+000  1.000000e+000
    outer loop
      vertex  4.243411e+002  2.644515e+002 -2.784270e+003
      vertex -4.242341e+002  2.646230e+002 -2.784270e+003
      vertex -4.370910e+002  2.427990e+002 -2.784270e+003
    endloop
  endfacet
  facet normal  -0.000000e+000  0.000000e+000  1.000000e+000
    outer loop
      vertex  4.243411e+002  2.644515e+002 -2.784270e+003
      vertex -4.370910e+002  2.427990e+002 -2.784270e+003
      vertex  4.371891e+002  2.426224e+002 -2.784270e+003
    endloop
  endfacet
  facet normal  0.000000e+000  0.000000e+000  1.000000e+000
    outer loop
      vertex  4.371891e+002  2.426224e+002 -2.784270e+003
      vertex -4.370910e+002  2.427990e+002 -2.784270e+003
      vertex -4.488262e+002  2.203519e+002 -2.784270e+003
    endloop
  endfacet
  facet normal  -0.000000e+000  0.000000e+000  1.000000e+000
    outer loop
      vertex  4.371891e+002  2.426224e+002 -2.784270e+003
      vertex -4.488262e+002  2.203519e+002 -2.784270e+003
      vertex  4.489152e+002  2.201707e+002 -2.784270e+003
    endloop
  endfacet
  facet normal  0.000000e+000  0.000000e+000  1.000000e+000
    outer loop
      vertex  4.489152e+002  2.201707e+002 -2.784270e+003
      vertex -4.488262e+002  2.203519e+002 -2.784270e+003
      vertex -4.594095e+002  1.973394e+002 -2.784270e+003
    endloop
  endfacet
  facet normal  -0.000000e+000  0.000000e+000  1.000000e+000
    outer loop
      vertex  4.489152e+002  2.201707e+002 -2.784270e+003
      vertex -4.594095e+002  1.973394e+002 -2.784270e+003
      vertex  4.594892e+002  1.971540e+002 -2.784270e+003
    endloop
  endfacet
  facet normal  0.000000e+000  0.000000e+000  1.000000e+000
    outer loop
      vertex  4.594892e+002  1.971540e+002 -2.784270e+003
      vertex -4.594095e+002  1.973394e+002 -2.784270e+003
      vertex -4.688139e+002  1.738204e+002 -2.784270e+003
    endloop
  endfacet
  facet normal  -0.000000e+000  0.000000e+000  1.000000e+000
    outer loop
      vertex  4.594892e+002  1.971540e+002 -2.784270e+003
      vertex -4.688139e+002  1.738204e+002 -2.784270e+003
      vertex  4.688839e+002  1.736313e+002 -2.784270e+003
    endloop
  endfacet
  facet normal  0.000000e+000  0.000000e+000  1.000000e+000
    outer loop
      vertex  4.688839e+002  1.736313e+002 -2.784270e+003
      vertex -4.688139e+002  1.738204e+002 -2.784270e+003
      vertex -4.770150e+002  1.498555e+002 -2.784270e+003
    endloop
  endfacet
  facet normal  -0.000000e+000  0.000000e+000  1.000000e+000
    outer loop
      vertex  4.688839e+002  1.736313e+002 -2.784270e+003
      vertex -4.770150e+002  1.498555e+002 -2.784270e+003
      vertex  4.770754e+002  1.496631e+002 -2.784270e+003
    endloop
  endfacet
  facet normal  0.000000e+000  0.000000e+000  9.999999e-001
    outer loop
      vertex  4.770754e+002  1.496631e+002 -2.784270e+003
      vertex -4.770150e+002  1.498555e+002 -2.784270e+003
      vertex -4.840004e+002  1.254734e+002 -2.784270e+003
    endloop
  endfacet
  facet normal  -0.000000e+000  0.000000e+000  1.000000e+000
    outer loop
      vertex  4.770754e+002  1.496631e+002 -2.784270e+003
      vertex -4.840004e+002  1.254734e+002 -2.784270e+003
      vertex  4.840425e+002  1.253106e+002 -2.784270e+003
    endloop
  endfacet
  facet normal  0.000000e+000  0.000000e+000  1.000000e+000
    outer loop
      vertex  4.840425e+002  1.253106e+002 -2.784270e+003
      vertex -4.840004e+002  1.254734e+002 -2.784270e+003
      vertex -4.897405e+002  1.007684e+002 -2.784270e+003
    endloop
  endfacet
  facet normal  -0.000000e+000  0.000000e+000  9.999999e-001
    outer loop
      vertex  4.840425e+002  1.253106e+002 -2.784270e+003
      vertex -4.897405e+002  1.007684e+002 -2.784270e+003
      vertex  4.897675e+002  1.006365e+002 -2.784270e+003
    endloop
  endfacet
  facet normal  0.000000e+000  0.000000e+000  1.000000e+000
    outer loop
      vertex  4.897675e+002  1.006365e+002 -2.784270e+003
      vertex -4.897405e+002  1.007684e+002 -2.784270e+003
      vertex -4.942203e+002  7.580401e+001 -2.784270e+003
    endloop
  endfacet
  facet normal  -0.000000e+000  0.000000e+000  9.999999e-001
    outer loop
      vertex  4.897675e+002  1.006365e+002 -2.784270e+003
      vertex -4.942203e+002  7.580401e+001 -2.784270e+003
      vertex  4.942356e+002  7.570412e+001 -2.784270e+003
    endloop
  endfacet
  facet normal  0.000000e+000  0.000000e+000  1.000000e+000
    outer loop
      vertex  4.942356e+002  7.570412e+001 -2.784270e+003
      vertex -4.942203e+002  7.580401e+001 -2.784270e+003
      vertex -4.974285e+002  5.064460e+001 -2.784270e+003
    endloop
  endfacet
  facet normal  -0.000000e+000  0.000000e+000  1.000000e+000
    outer loop
      vertex  4.942356e+002  7.570412e+001 -2.784270e+003
      vertex -4.974285e+002  5.064460e+001 -2.784270e+003
      vertex  4.974353e+002  5.057753e+001 -2.784270e+003
    endloop
  endfacet
  facet normal  0.000000e+000  0.000000e+000  1.000000e+000
    outer loop
      vertex  4.974353e+002  5.057753e+001 -2.784270e+003
      vertex -4.974285e+002  5.064460e+001 -2.784270e+003
      vertex -4.993567e+002  2.535490e+001 -2.784270e+003
    endloop
  endfacet
  facet normal  -0.000000e+000  0.000000e+000  9.999999e-001
    outer loop
      vertex  4.974353e+002  5.057753e+001 -2.784270e+003
      vertex -4.993567e+002  2.535490e+001 -2.784270e+003
      vertex  4.993584e+002  2.532122e+001 -2.784270e+003
    endloop
  endfacet
  facet normal  0.000000e+000  0.000000e+000  1.000000e+000
    outer loop
      vertex  4.993584e+002  2.532122e+001 -2.784270e+003
      vertex -4.993567e+002  2.535490e+001 -2.784270e+003
      vertex -5.000000e+002 -2.842171e-014 -2.784270e+003
    endloop
  endfacet
  facet normal  0.000000e+000  0.000000e+000  1.000000e+000
    outer loop
      vertex  4.993584e+002  2.532122e+001 -2.784270e+003
      vertex -5.000000e+002 -2.842171e-014 -2.784270e+003
      vertex  5.000000e+002  0.000000e+000 -2.784270e+003
    endloop
  endfacet
  facet normal  0.000000e+000  0.000000e+000  1.000000e+000
    outer loop
      vertex  5.000000e+002  0.000000e+000 -2.784270e+003
      vertex -5.000000e+002 -2.842171e-014 -2.784270e+003
      vertex -4.993584e+002 -2.532122e+001 -2.784270e+003
    endloop
  endfacet
  facet normal  -0.000000e+000  0.000000e+000  1.000000e+000
    outer loop
      vertex  5.000000e+002  0.000000e+000 -2.784270e+003
      vertex -4.993584e+002 -2.532122e+001 -2.784270e+003
      vertex  4.993567e+002 -2.535490e+001 -2.784270e+003
    endloop
  endfacet
  facet normal  0.000000e+000  0.000000e+000  9.999999e-001
    outer loop
      vertex  4.993567e+002 -2.535490e+001 -2.784270e+003
      vertex -4.993584e+002 -2.532122e+001 -2.784270e+003
      vertex -4.974353e+002 -5.057753e+001 -2.784270e+003
    endloop
  endfacet
  facet normal  -0.000000e+000  0.000000e+000  1.000000e+000
    outer loop
      vertex  4.993567e+002 -2.535490e+001 -2.784270e+003
      vertex -4.974353e+002 -5.057753e+001 -2.784270e+003
      vertex  4.974285e+002 -5.064460e+001 -2.784270e+003
    endloop
  endfacet
  facet normal  0.000000e+000  0.000000e+000  1.000000e+000
    outer loop
      vertex  4.974285e+002 -5.064460e+001 -2.784270e+003
      vertex -4.974353e+002 -5.057753e+001 -2.784270e+003
      vertex -4.942356e+002 -7.570412e+001 -2.784270e+003
    endloop
  endfacet
  facet normal  -0.000000e+000  0.000000e+000  1.000000e+000
    outer loop
      vertex  4.974285e+002 -5.064460e+001 -2.784270e+003
      vertex -4.942356e+002 -7.570412e+001 -2.784270e+003
      vertex  4.942203e+002 -7.580401e+001 -2.784270e+003
    endloop
  endfacet
  facet normal  0.000000e+000  0.000000e+000  9.999999e-001
    outer loop
      vertex  4.942203e+002 -7.580401e+001 -2.784270e+003
      vertex -4.942356e+002 -7.570412e+001 -2.784270e+003
      vertex -4.897675e+002 -1.006365e+002 -2.784270e+003
    endloop
  endfacet
  facet normal  -0.000000e+000  0.000000e+000  1.000000e+000
    outer loop
      vertex  4.942203e+002 -7.580401e+001 -2.784270e+003
      vertex -4.897675e+002 -1.006365e+002 -2.784270e+003
      vertex  4.897405e+002 -1.007684e+002 -2.784270e+003
    endloop
  endfacet
  facet normal  0.000000e+000  0.000000e+000  9.999999e-001
    outer loop
      vertex  4.897405e+002 -1.007684e+002 -2.784270e+003
      vertex -4.897675e+002 -1.006365e+002 -2.784270e+003
      vertex -4.840425e+002 -1.253106e+002 -2.784270e+003
    endloop
  endfacet
  facet normal  -0.000000e+000  0.000000e+000  1.000000e+000
    outer loop
      vertex  4.897405e+002 -1.007684e+002 -2.784270e+003
      vertex -4.840425e+002 -1.253106e+002 -2.784270e+003
      vertex  4.840004e+002 -1.254734e+002 -2.784270e+003
    endloop
  endfacet
  facet normal  0.000000e+000  0.000000e+000  1.000000e+000
    outer loop
      vertex  4.840004e+002 -1.254734e+002 -2.784270e+003
      vertex -4.840425e+002 -1.253106e+002 -2.784270e+003
      vertex -4.770754e+002 -1.496631e+002 -2.784270e+003
    endloop
  endfacet
  facet normal  -0.000000e+000  0.000000e+000  9.999999e-001
    outer loop
      vertex  4.840004e+002 -1.254734e+002 -2.784270e+003
      vertex -4.770754e+002 -1.496631e+002 -2.784270e+003
      vertex  4.770150e+002 -1.498555e+002 -2.784270e+003
    endloop
  endfacet
  facet normal  0.000000e+000  0.000000e+000  1.000000e+000
    outer loop
      vertex  4.770150e+002 -1.498555e+002 -2.784270e+003
      vertex -4.770754e+002 -1.496631e+002 -2.784270e+003
      vertex -4.688839e+002 -1.736313e+002 -2.784270e+003
    endloop
  endfacet
  facet normal  -0.000000e+000  0.000000e+000  1.000000e+000
    outer loop
      vertex  4.770150e+002 -1.498555e+002 -2.784270e+003
      vertex -4.688839e+002 -1.736313e+002 -2.784270e+003
      vertex  4.688139e+002 -1.738204e+002 -2.784270e+003
    endloop
  endfacet
  facet normal  0.000000e+000  0.000000e+000  1.000000e+000
    outer loop
      vertex  4.688139e+002 -1.738204e+002 -2.784270e+003
      vertex -4.688839e+002 -1.736313e+002 -2.784270e+003
      vertex -4.594892e+002 -1.971540e+002 -2.784270e+003
    endloop
  endfacet
  facet normal  -0.000000e+000  0.000000e+000  1.000000e+000
    outer loop
      vertex  4.688139e+002 -1.738204e+002 -2.784270e+003
      vertex -4.594892e+002 -1.971540e+002 -2.784270e+003
      vertex  4.594095e+002 -1.973394e+002 -2.784270e+003
    endloop
  endfacet
  facet normal  0.000000e+000  0.000000e+000  1.000000e+000
    outer loop
      vertex  4.594095e+002 -1.973394e+002 -2.784270e+003
      vertex -4.594892e+002 -1.971540e+002 -2.784270e+003
      vertex -4.489152e+002 -2.201707e+002 -2.784270e+003
    endloop
  endfacet
  facet normal  -0.000000e+000  0.000000e+000  1.000000e+000
    outer loop
      vertex  4.594095e+002 -1.973394e+002 -2.784270e+003
      vertex -4.489152e+002 -2.201707e+002 -2.784270e+003
      vertex  4.488262e+002 -2.203519e+002 -2.784270e+003
    endloop
  endfacet
  facet normal  0.000000e+000  0.000000e+000  1.000000e+000
    outer loop
      vertex  4.488262e+002 -2.203519e+002 -2.784270e+003
      vertex -4.489152e+002 -2.201707e+002 -2.784270e+003
      vertex -4.371891e+002 -2.426224e+002 -2.784270e+003
    endloop
  endfacet
  facet normal  -0.000000e+000  0.000000e+000  1.000000e+000
    outer loop
      vertex  4.488262e+002 -2.203519e+002 -2.784270e+003
      vertex -4.371891e+002 -2.426224e+002 -2.784270e+003
      vertex  4.370910e+002 -2.427990e+002 -2.784270e+003
    endloop
  endfacet
  facet normal  0.000000e+000  0.000000e+000  1.000000e+000
    outer loop
      vertex  4.370910e+002 -2.427990e+002 -2.784270e+003
      vertex -4.371891e+002 -2.426224e+002 -2.784270e+003
      vertex -4.243411e+002 -2.644515e+002 -2.784270e+003
    endloop
  endfacet
  facet normal  -0.000000e+000  0.000000e+000  1.000000e+000
    outer loop
      vertex  4.370910e+002 -2.427990e+002 -2.784270e+003
      vertex -4.243411e+002 -2.644515e+002 -2.784270e+003
      vertex  4.242341e+002 -2.646230e+002 -2.784270e+003
    endloop
  endfacet
  facet normal  0.000000e+000  0.000000e+000  1.000000e+000
    outer loop
      vertex  4.242341e+002 -2.646230e+002 -2.784270e+003
      vertex -4.243411e+002 -2.644515e+002 -2.784270e+003
      vertex -4.104040e+002 -2.856020e+002 -2.784270e+003
    endloop
  endfacet
  facet normal  -0.000000e+000  0.000000e+000  1.000000e+000
    outer loop
      vertex  4.242341e+002 -2.646230e+002 -2.784270e+003
      vertex -4.104040e+002 -2.856020e+002 -2.784270e+003
      vertex  4.102886e+002 -2.857678e+002 -2.784270e+003
    endloop
  endfacet
  facet normal  0.000000e+000  0.000000e+000  1.000000e+000
    outer loop
      vertex  4.102886e+002 -2.857678e+002 -2.784270e+003
      vertex -4.104040e+002 -2.856020e+002 -2.784270e+003
      vertex -3.954137e+002 -3.060196e+002 -2.784270e+003
    endloop
  endfacet
  facet normal  -0.000000e+000  0.000000e+000  1.000000e+000
    outer loop
      vertex  4.102886e+002 -2.857678e+002 -2.784270e+003
      vertex -3.954137e+002 -3.060196e+002 -2.784270e+003
      vertex  3.952901e+002 -3.061792e+002 -2.784270e+003
    endloop
  endfacet
  facet normal  0.000000e+000  0.000000e+000  1.000000e+000
    outer loop
      vertex  3.952901e+002 -3.061792e+002 -2.784270e+003
      vertex -3.954137e+002 -3.060196e+002 -2.784270e+003
      vertex -3.794086e+002 -3.256517e+002 -2.784270e+003
    endloop
  endfacet
  facet normal  -0.000000e+000  0.000000e+000  1.000000e+000
    outer loop
      vertex  3.952901e+002 -3.061792e+002 -2.784270e+003
      vertex -3.794086e+002 -3.256517e+002 -2.784270e+003
      vertex  3.792772e+002 -3.258048e+002 -2.784270e+003
    endloop
  endfacet
  facet normal  0.000000e+000  0.000000e+000  1.000000e+000
    outer loop
      vertex  3.792772e+002 -3.258048e+002 -2.784270e+003
      vertex -3.794086e+002 -3.256517e+002 -2.784270e+003
      vertex -3.624300e+002 -3.444481e+002 -2.784270e+003
    endloop
  endfacet
  facet normal  -0.000000e+000  0.000000e+000  1.000000e+000
    outer loop
      vertex  3.792772e+002 -3.258048e+002 -2.784270e+003
      vertex -3.624300e+002 -3.444481e+002 -2.784270e+003
      vertex  3.622910e+002 -3.445943e+002 -2.784270e+003
    endloop
  endfacet
  facet normal  0.000000e+000  0.000000e+000  9.999999e-001
    outer loop
      vertex  3.622910e+002 -3.445943e+002 -2.784270e+003
      vertex -3.624300e+002 -3.444481e+002 -2.784270e+003
      vertex -3.445212e+002 -3.623605e+002 -2.784270e+003
    endloop
  endfacet
  facet normal  -0.000000e+000  0.000000e+000  1.000000e+000
    outer loop
      vertex  3.622910e+002 -3.445943e+002 -2.784270e+003
      vertex -3.445212e+002 -3.623605e+002 -2.784270e+003
      vertex  3.443750e+002 -3.624995e+002 -2.784270e+003
    endloop
  endfacet
  facet normal  0.000000e+000  0.000000e+000  9.999999e-001
    outer loop
      vertex  3.443750e+002 -3.624995e+002 -2.784270e+003
      vertex -3.445212e+002 -3.623605e+002 -2.784270e+003
      vertex -3.257283e+002 -3.793429e+002 -2.784270e+003
    endloop
  endfacet
  facet normal  -0.000000e+000  0.000000e+000  1.000000e+000
    outer loop
      vertex  3.443750e+002 -3.624995e+002 -2.784270e+003
      vertex -3.257283e+002 -3.793429e+002 -2.784270e+003
      vertex  3.255751e+002 -3.794744e+002 -2.784270e+003
    endloop
  endfacet
  facet normal  0.000000e+000  0.000000e+000  1.000000e+000
    outer loop
      vertex  3.255751e+002 -3.794744e+002 -2.784270e+003
      vertex -3.257283e+002 -3.793429e+002 -2.784270e+003
      vertex -3.060994e+002 -3.953519e+002 -2.784270e+003
    endloop
  endfacet
  facet normal  -0.000000e+000  0.000000e+000  9.999999e-001
    outer loop
      vertex  3.255751e+002 -3.794744e+002 -2.784270e+003
      vertex -3.060994e+002 -3.953519e+002 -2.784270e+003
      vertex  3.059396e+002 -3.954755e+002 -2.784270e+003
    endloop
  endfacet
  facet normal  0.000000e+000  0.000000e+000  1.000000e+000
    outer loop
      vertex  3.059396e+002 -3.954755e+002 -2.784270e+003
      vertex -3.060994e+002 -3.953519e+002 -2.784270e+003
      vertex -2.856849e+002 -4.103463e+002 -2.784270e+003
    endloop
  endfacet
  facet normal  -0.000000e+000  0.000000e+000  1.000000e+000
    outer loop
      vertex  3.059396e+002 -3.954755e+002 -2.784270e+003
      vertex -2.856849e+002 -4.103463e+002 -2.784270e+003
      vertex  2.855190e+002 -4.104617e+002 -2.784270e+003
    endloop
  endfacet
  facet normal  0.000000e+000  0.000000e+000  1.000000e+000
    outer loop
      vertex  2.855190e+002 -4.104617e+002 -2.784270e+003
      vertex -2.856849e+002 -4.103463e+002 -2.784270e+003
      vertex -2.645372e+002 -4.242876e+002 -2.784270e+003
    endloop
  endfacet
  facet normal  -0.000000e+000  0.000000e+000  1.000000e+000
    outer loop
      vertex  2.855190e+002 -4.104617e+002 -2.784270e+003
      vertex -2.645372e+002 -4.242876e+002 -2.784270e+003
      vertex  2.643658e+002 -4.243945e+002 -2.784270e+003
    endloop
  endfacet
  facet normal  0.000000e+000  0.000000e+000  1.000000e+000
    outer loop
      vertex  2.643658e+002 -4.243945e+002 -2.784270e+003
      vertex -2.645372e+002 -4.242876e+002 -2.784270e+003
      vertex -2.427106e+002 -4.371401e+002 -2.784270e+003
    endloop
  endfacet
  facet normal  -0.000000e+000  0.000000e+000  1.000000e+000
    outer loop
      vertex  2.643658e+002 -4.243945e+002 -2.784270e+003
      vertex -2.427106e+002 -4.371401e+002 -2.784270e+003
      vertex  2.425341e+002 -4.372381e+002 -2.784270e+003
    endloop
  endfacet
  facet normal  0.000000e+000  0.000000e+000  1.000000e+000
    outer loop
      vertex  2.425341e+002 -4.372381e+002 -2.784270e+003
      vertex -2.427106e+002 -4.371401e+002 -2.784270e+003
      vertex -2.202612e+002 -4.488708e+002 -2.784270e+003
    endloop
  endfacet
  facet normal  -0.000000e+000  0.000000e+000  1.000000e+000
    outer loop
      vertex  2.425341e+002 -4.372381e+002 -2.784270e+003
      vertex -2.202612e+002 -4.488708e+002 -2.784270e+003
      vertex  2.200801e+002 -4.489596e+002 -2.784270e+003
    endloop
  endfacet
  facet normal  0.000000e+000  0.000000e+000  1.000000e+000
    outer loop
      vertex  2.200801e+002 -4.489596e+002 -2.784270e+003
      vertex -2.202612e+002 -4.488708e+002 -2.784270e+003
      vertex -1.972466e+002 -4.594494e+002 -2.784270e+003
    endloop
  endfacet
  facet normal  -0.000000e+000  0.000000e+000  1.000000e+000
    outer loop
      vertex  2.200801e+002 -4.489596e+002 -2.784270e+003
      vertex -1.972466e+002 -4.594494e+002 -2.784270e+003
      vertex  1.970613e+002 -4.595289e+002 -2.784270e+003
    endloop
  endfacet
  facet normal  0.000000e+000  0.000000e+000  1.000000e+000
    outer loop
      vertex  1.970613e+002 -4.595289e+002 -2.784270e+003
      vertex -1.972466e+002 -4.594494e+002 -2.784270e+003
      vertex -1.737259e+002 -4.688489e+002 -2.784270e+003
    endloop
  endfacet
  facet normal  -0.000000e+000  0.000000e+000  1.000000e+000
    outer loop
      vertex  1.970613e+002 -4.595289e+002 -2.784270e+003
      vertex -1.737259e+002 -4.688489e+002 -2.784270e+003
      vertex  1.735367e+002 -4.689189e+002 -2.784270e+003
    endloop
  endfacet
  facet normal  0.000000e+000  0.000000e+000  1.000000e+000
    outer loop
      vertex  1.735367e+002 -4.689189e+002 -2.784270e+003
      vertex -1.737259e+002 -4.688489e+002 -2.784270e+003
      vertex -1.497593e+002 -4.770452e+002 -2.784270e+003
    endloop
  endfacet
  facet normal  -0.000000e+000  0.000000e+000  1.000000e+000
    outer loop
      vertex  1.735367e+002 -4.689189e+002 -2.784270e+003
      vertex -1.497593e+002 -4.770452e+002 -2.784270e+003
      vertex  1.495667e+002 -4.771056e+002 -2.784270e+003
    endloop
  endfacet
  facet normal  0.000000e+000  0.000000e+000  1.000000e+000
    outer loop
      vertex  1.495667e+002 -4.771056e+002 -2.784270e+003
      vertex -1.497593e+002 -4.770452e+002 -2.784270e+003
      vertex -1.254084e+002 -4.840172e+002 -2.784270e+003
    endloop
  endfacet
  facet normal  -0.000000e+000  0.000000e+000  1.000000e+000
    outer loop
      vertex  1.495667e+002 -4.771056e+002 -2.784270e+003
      vertex -1.254084e+002 -4.840172e+002 -2.784270e+003
      vertex  1.252128e+002 -4.840678e+002 -2.784270e+003
    endloop
  endfacet
  facet normal  0.000000e+000  0.000000e+000  1.000000e+000
    outer loop
      vertex  1.252128e+002 -4.840678e+002 -2.784270e+003
      vertex -1.254084e+002 -4.840172e+002 -2.784270e+003
      vertex -1.007355e+002 -4.897472e+002 -2.784270e+003
    endloop
  endfacet
  facet normal  -0.000000e+000  0.000000e+000  1.000000e+000
    outer loop
      vertex  1.252128e+002 -4.840678e+002 -2.784270e+003
      vertex -1.007355e+002 -4.897472e+002 -2.784270e+003
      vertex  1.005375e+002 -4.897878e+002 -2.784270e+003
    endloop
  endfacet
  facet normal  0.000000e+000  0.000000e+000  1.000000e+000
    outer loop
      vertex  1.005375e+002 -4.897878e+002 -2.784270e+003
      vertex -1.007355e+002 -4.897472e+002 -2.784270e+003
      vertex -7.580400e+001 -4.942203e+002 -2.784270e+003
    endloop
  endfacet
  facet normal  -0.000000e+000  0.000000e+000  1.000000e+000
    outer loop
      vertex  1.005375e+002 -4.897878e+002 -2.784270e+003
      vertex -7.580400e+001 -4.942203e+002 -2.784270e+003
      vertex  7.560429e+001 -4.942509e+002 -2.784270e+003
    endloop
  endfacet
  facet normal  0.000000e+000  0.000000e+000  9.999999e-001
    outer loop
      vertex  7.560429e+001 -4.942509e+002 -2.784270e+003
      vertex -7.580400e+001 -4.942203e+002 -2.784270e+003
      vertex -5.067800e+001 -4.974250e+002 -2.784270e+003
    endloop
  endfacet
  facet normal  -0.000000e+000  0.000000e+000  1.000000e+000
    outer loop
      vertex  7.560429e+001 -4.942509e+002 -2.784270e+003
      vertex -5.067800e+001 -4.974250e+002 -2.784270e+003
      vertex  5.047714e+001 -4.974455e+002 -2.784270e+003
    endloop
  endfacet
  facet normal  0.000000e+000  0.000000e+000  1.000000e+000
    outer loop
      vertex  5.047714e+001 -4.974455e+002 -2.784270e+003
      vertex -5.067800e+001 -4.974250e+002 -2.784270e+003
      vertex -2.542199e+001 -4.993533e+002 -2.784270e+003
    endloop
  endfacet
  facet normal  -0.000000e+000  0.000000e+000  1.000000e+000
    outer loop
      vertex  5.047714e+001 -4.974455e+002 -2.784270e+003
      vertex -2.542199e+001 -4.993533e+002 -2.784270e+003
      vertex  2.522051e+001 -4.993635e+002 -2.784270e+003
    endloop
  endfacet
endsolid piston
