solid CATIA STL
  facet normal -3.534872e-005 -1.207539e-006  1.000000e+000
    outer loop
      vertex  0.000000e+000  0.000000e+000 -2.783886e+003
      vertex  3.384250e+002 -8.289021e-014 -2.783874e+003
      vertex  3.376360e+002  2.309494e+001 -2.783874e+003
    endloop
  endfacet
  facet normal -3.518391e-005 -3.617058e-006  1.000000e+000
    outer loop
      vertex  0.000000e+000  0.000000e+000 -2.783886e+003
      vertex  3.376360e+002  2.309494e+001 -2.783874e+003
      vertex  3.352729e+002  4.608220e+001 -2.783874e+003
    endloop
  endfacet
  facet normal -3.485506e-005 -6.009576e-006  9.999999e-001
    outer loop
      vertex  0.000000e+000  0.000000e+000 -2.783886e+003
      vertex  3.352729e+002  4.608220e+001 -2.783874e+003
      vertex  3.313465e+002  6.885460e+001 -2.783874e+003
    endloop
  endfacet
  facet normal -3.436369e-005 -8.374206e-006  1.000000e+000
    outer loop
      vertex  0.000000e+000  0.000000e+000 -2.783886e+003
      vertex  3.313465e+002  6.885460e+001 -2.783874e+003
      vertex  3.258753e+002  9.130597e+001 -2.783874e+003
    endloop
  endfacet
  facet normal -3.371210e-005 -1.069974e-005  1.000000e+000
    outer loop
      vertex  0.000000e+000  0.000000e+000 -2.783886e+003
      vertex  3.258753e+002  9.130597e+001 -2.783874e+003
      vertex  3.188846e+002  1.133316e+002 -2.783874e+003
    endloop
  endfacet
  facet normal -3.290334e-005 -1.297539e-005  1.000000e+000
    outer loop
      vertex  0.000000e+000  0.000000e+000 -2.783886e+003
      vertex  3.188846e+002  1.133316e+002 -2.783874e+003
      vertex  3.104072e+002  1.348289e+002 -2.783874e+003
    endloop
  endfacet
  facet normal -3.194116e-005 -1.519056e-005  1.000000e+000
    outer loop
      vertex  0.000000e+000  0.000000e+000 -2.783886e+003
      vertex  3.104072e+002  1.348289e+002 -2.783874e+003
      vertex  3.004825e+002  1.556975e+002 -2.783874e+003
    endloop
  endfacet
  facet normal -3.083005e-005 -1.733489e-005  1.000000e+000
    outer loop
      vertex  0.000000e+000  0.000000e+000 -2.783886e+003
      vertex  3.004825e+002  1.556975e+002 -2.783874e+003
      vertex  2.891569e+002  1.758402e+002 -2.783874e+003
    endloop
  endfacet
  facet normal -2.957522e-005 -1.939836e-005  9.999999e-001
    outer loop
      vertex  0.000000e+000  0.000000e+000 -2.783886e+003
      vertex  2.891569e+002  1.758402e+002 -2.783874e+003
      vertex  2.764830e+002  1.951630e+002 -2.783874e+003
    endloop
  endfacet
  facet normal -2.818247e-005 -2.137145e-005  9.999999e-001
    outer loop
      vertex  0.000000e+000  0.000000e+000 -2.783886e+003
      vertex  2.764830e+002  1.951630e+002 -2.783874e+003
      vertex  2.625201e+002  2.135759e+002 -2.783874e+003
    endloop
  endfacet
  facet normal -2.665832e-005 -2.324487e-005  1.000000e+000
    outer loop
      vertex  0.000000e+000  0.000000e+000 -2.783886e+003
      vertex  2.625201e+002  2.135759e+002 -2.783874e+003
      vertex  2.473331e+002  2.309930e+002 -2.783874e+003
    endloop
  endfacet
  facet normal -2.500990e-005 -2.500990e-005  1.000000e+000
    outer loop
      vertex  0.000000e+000  0.000000e+000 -2.783886e+003
      vertex  2.473331e+002  2.309930e+002 -2.783874e+003
      vertex  2.309930e+002  2.473331e+002 -2.783874e+003
    endloop
  endfacet
  facet normal -2.324487e-005 -2.665833e-005  1.000000e+000
    outer loop
      vertex  0.000000e+000  0.000000e+000 -2.783886e+003
      vertex  2.309930e+002  2.473331e+002 -2.783874e+003
      vertex  2.135759e+002  2.625201e+002 -2.783874e+003
    endloop
  endfacet
  facet normal -2.137145e-005 -2.818247e-005  9.999999e-001
    outer loop
      vertex  0.000000e+000  0.000000e+000 -2.783886e+003
      vertex  2.135759e+002  2.625201e+002 -2.783874e+003
      vertex  1.951630e+002  2.764830e+002 -2.783874e+003
    endloop
  endfacet
  facet normal -1.939836e-005 -2.957522e-005  9.999999e-001
    outer loop
      vertex  0.000000e+000  0.000000e+000 -2.783886e+003
      vertex  1.951630e+002  2.764830e+002 -2.783874e+003
      vertex  1.758402e+002  2.891569e+002 -2.783874e+003
    endloop
  endfacet
  facet normal -1.733489e-005 -3.083005e-005  1.000000e+000
    outer loop
      vertex  0.000000e+000  0.000000e+000 -2.783886e+003
      vertex  1.758402e+002  2.891569e+002 -2.783874e+003
      vertex  1.556975e+002  3.004825e+002 -2.783874e+003
    endloop
  endfacet
  facet normal -1.519056e-005 -3.194116e-005  1.000000e+000
    outer loop
      vertex  0.000000e+000  0.000000e+000 -2.783886e+003
      vertex  1.556975e+002  3.004825e+002 -2.783874e+003
      vertex  1.348289e+002  3.104072e+002 -2.783874e+003
    endloop
  endfacet
  facet normal -1.297539e-005 -3.290334e-005  1.000000e+000
    outer loop
      vertex  0.000000e+000  0.000000e+000 -2.783886e+003
      vertex  1.348289e+002  3.104072e+002 -2.783874e+003
      vertex  1.133316e+002  3.188846e+002 -2.783874e+003
    endloop
  endfacet
  facet normal -1.069974e-005 -3.371210e-005  9.999999e-001
    outer loop
      vertex  0.000000e+000  0.000000e+000 -2.783886e+003
      vertex  1.133316e+002  3.188846e+002 -2.783874e+003
      vertex  9.130597e+001  3.258753e+002 -2.783874e+003
    endloop
  endfacet
  facet normal -8.374205e-006 -3.436369e-005  1.000000e+000
    outer loop
      vertex  0.000000e+000  0.000000e+000 -2.783886e+003
      vertex  9.130597e+001  3.258753e+002 -2.783874e+003
      vertex  6.885460e+001  3.313465e+002 -2.783874e+003
    endloop
  endfacet
  facet normal -6.009576e-006 -3.485506e-005  9.999999e-001
    outer loop
      vertex  0.000000e+000  0.000000e+000 -2.783886e+003
      vertex  6.885460e+001  3.313465e+002 -2.783874e+003
      vertex  4.608220e+001  3.352729e+002 -2.783874e+003
    endloop
  endfacet
  facet normal -3.617058e-006 -3.518391e-005  1.000000e+000
    outer loop
      vertex  0.000000e+000  0.000000e+000 -2.783886e+003
      vertex  4.608220e+001  3.352729e+002 -2.783874e+003
      vertex  2.309494e+001  3.376360e+002 -2.783874e+003
    endloop
  endfacet
  facet normal -1.207539e-006 -3.534872e-005  1.000000e+000
    outer loop
      vertex  0.000000e+000  0.000000e+000 -2.783886e+003
      vertex  2.309494e+001  3.376360e+002 -2.783874e+003
      vertex  4.041945e-013  3.384250e+002 -2.783874e+003
    endloop
  endfacet
  facet normal  6.678689e-003  1.955077e-001  9.806795e-001
    outer loop
      vertex  4.041945e-013  3.384250e+002 -2.783874e+003
      vertex  2.309494e+001  3.376360e+002 -2.783874e+003
      vertex  2.238555e+001  3.415374e+002 -2.784647e+003
    endloop
  endfacet
  facet normal  1.955077e-001  6.678689e-003  9.806795e-001
    outer loop
      vertex  3.384250e+002 -8.289021e-014 -2.783874e+003
      vertex  3.415374e+002  2.238555e+001 -2.784647e+003
      vertex  3.376360e+002  2.309494e+001 -2.783874e+003
    endloop
  endfacet
  facet normal  1.931994e-001  1.986174e-002  9.809584e-001
    outer loop
      vertex  3.393421e+002  4.467524e+001 -2.784647e+003
      vertex  3.352729e+002  4.608220e+001 -2.783874e+003
      vertex  3.376360e+002  2.309494e+001 -2.783874e+003
    endloop
  endfacet
  facet normal  1.901597e-001  3.278660e-002  9.812055e-001
    outer loop
      vertex  3.356937e+002  6.677362e+001 -2.784647e+003
      vertex  3.313465e+002  6.885460e+001 -2.783874e+003
      vertex  3.352729e+002  4.608220e+001 -2.783874e+003
    endloop
  endfacet
  facet normal  1.864040e-001  4.542544e-002  9.814224e-001
    outer loop
      vertex  3.306077e+002  8.858607e+001 -2.784647e+003
      vertex  3.258753e+002  9.130597e+001 -2.783874e+003
      vertex  3.313465e+002  6.885460e+001 -2.783874e+003
    endloop
  endfacet
  facet normal  1.819474e-001  5.774752e-002  9.816111e-001
    outer loop
      vertex  3.241060e+002  1.100192e+002 -2.784647e+003
      vertex  3.188846e+002  1.133316e+002 -2.783874e+003
      vertex  3.258753e+002  9.130597e+001 -2.783874e+003
    endloop
  endfacet
  facet normal  1.768100e-001  6.972478e-002  9.817721e-001
    outer loop
      vertex  3.162165e+002  1.309812e+002 -2.784647e+003
      vertex  3.104072e+002  1.348289e+002 -2.783874e+003
      vertex  3.188846e+002  1.133316e+002 -2.783874e+003
    endloop
  endfacet
  facet normal  1.710100e-001  8.132885e-002  9.819069e-001
    outer loop
      vertex  3.069729e+002  1.513823e+002 -2.784647e+003
      vertex  3.004825e+002  1.556975e+002 -2.783874e+003
      vertex  3.104072e+002  1.348289e+002 -2.783874e+003
    endloop
  endfacet
  facet normal  1.645674e-001  9.253172e-002  9.820160e-001
    outer loop
      vertex  2.964148e+002  1.711351e+002 -2.784647e+003
      vertex  2.891569e+002  1.758402e+002 -2.783874e+003
      vertex  3.004825e+002  1.556975e+002 -2.783874e+003
    endloop
  endfacet
  facet normal  1.575032e-001  1.033062e-001  9.821001e-001
    outer loop
      vertex  2.845873e+002  1.901552e+002 -2.784647e+003
      vertex  2.764830e+002  1.951630e+002 -2.783874e+003
      vertex  2.891569e+002  1.758402e+002 -2.783874e+003
    endloop
  endfacet
  facet normal  1.498372e-001  1.136252e-001  9.821599e-001
    outer loop
      vertex  2.715413e+002  2.083609e+002 -2.784647e+003
      vertex  2.625201e+002  2.135759e+002 -2.783874e+003
      vertex  2.764830e+002  1.951630e+002 -2.783874e+003
    endloop
  endfacet
  facet normal  1.415932e-001  1.234630e-001  9.821956e-001
    outer loop
      vertex  2.573324e+002  2.256745e+002 -2.784647e+003
      vertex  2.473331e+002  2.309930e+002 -2.783874e+003
      vertex  2.625201e+002  2.135759e+002 -2.783874e+003
    endloop
  endfacet
  facet normal  1.327939e-001  1.327939e-001  9.822075e-001
    outer loop
      vertex  2.420216e+002  2.420216e+002 -2.784647e+003
      vertex  2.309930e+002  2.473331e+002 -2.783874e+003
      vertex  2.473331e+002  2.309930e+002 -2.783874e+003
    endloop
  endfacet
  facet normal  1.234630e-001  1.415932e-001  9.821956e-001
    outer loop
      vertex  2.256745e+002  2.573324e+002 -2.784647e+003
      vertex  2.135759e+002  2.625201e+002 -2.783874e+003
      vertex  2.309930e+002  2.473331e+002 -2.783874e+003
    endloop
  endfacet
  facet normal  1.136252e-001  1.498372e-001  9.821599e-001
    outer loop
      vertex  2.083609e+002  2.715413e+002 -2.784647e+003
      vertex  1.951630e+002  2.764830e+002 -2.783874e+003
      vertex  2.135759e+002  2.625201e+002 -2.783874e+003
    endloop
  endfacet
  facet normal  1.033062e-001  1.575032e-001  9.821001e-001
    outer loop
      vertex  1.901552e+002  2.845873e+002 -2.784647e+003
      vertex  1.758402e+002  2.891569e+002 -2.783874e+003
      vertex  1.951630e+002  2.764830e+002 -2.783874e+003
    endloop
  endfacet
  facet normal  9.253173e-002  1.645675e-001  9.820160e-001
    outer loop
      vertex  1.711351e+002  2.964148e+002 -2.784647e+003
      vertex  1.556975e+002  3.004825e+002 -2.783874e+003
      vertex  1.758402e+002  2.891569e+002 -2.783874e+003
    endloop
  endfacet
  facet normal  8.132886e-002  1.710100e-001  9.819069e-001
    outer loop
      vertex  1.513823e+002  3.069729e+002 -2.784647e+003
      vertex  1.348289e+002  3.104072e+002 -2.783874e+003
      vertex  1.556975e+002  3.004825e+002 -2.783874e+003
    endloop
  endfacet
  facet normal  6.972478e-002  1.768100e-001  9.817722e-001
    outer loop
      vertex  1.309812e+002  3.162165e+002 -2.784647e+003
      vertex  1.133316e+002  3.188846e+002 -2.783874e+003
      vertex  1.348289e+002  3.104072e+002 -2.783874e+003
    endloop
  endfacet
  facet normal  5.774752e-002  1.819474e-001  9.816111e-001
    outer loop
      vertex  1.100192e+002  3.241060e+002 -2.784647e+003
      vertex  9.130597e+001  3.258753e+002 -2.783874e+003
      vertex  1.133316e+002  3.188846e+002 -2.783874e+003
    endloop
  endfacet
  facet normal  4.542545e-002  1.864040e-001  9.814225e-001
    outer loop
      vertex  8.858607e+001  3.306077e+002 -2.784647e+003
      vertex  6.885460e+001  3.313465e+002 -2.783874e+003
      vertex  9.130597e+001  3.258753e+002 -2.783874e+003
    endloop
  endfacet
  facet normal  3.278660e-002  1.901597e-001  9.812055e-001
    outer loop
      vertex  6.677362e+001  3.356937e+002 -2.784647e+003
      vertex  4.608220e+001  3.352729e+002 -2.783874e+003
      vertex  6.885460e+001  3.313465e+002 -2.783874e+003
    endloop
  endfacet
  facet normal  1.986174e-002  1.931994e-001  9.809584e-001
    outer loop
      vertex  4.467524e+001  3.393421e+002 -2.784647e+003
      vertex  2.309494e+001  3.376360e+002 -2.783874e+003
      vertex  4.608220e+001  3.352729e+002 -2.783874e+003
    endloop
  endfacet
  facet normal  3.206256e-002  9.794236e-001  1.992525e-001
    outer loop
      vertex  2.279299e+001  3.477538e+002 -2.793926e+003
      vertex  9.872202e-014  3.485000e+002 -2.793926e+003
      vertex  2.274185e+001  3.469736e+002 -2.790082e+003
    endloop
  endfacet
  facet normal  3.206236e-002  9.794233e-001  1.992535e-001
    outer loop
      vertex  2.274185e+001  3.469736e+002 -2.790082e+003
      vertex  9.872202e-014  3.485000e+002 -2.793926e+003
      vertex  4.152937e-013  3.477181e+002 -2.790082e+003
    endloop
  endfacet
  facet normal  2.716826e-002  8.299209e-001  5.572193e-001
    outer loop
      vertex  2.274185e+001  3.469736e+002 -2.790082e+003
      vertex  4.152937e-013  3.477181e+002 -2.790082e+003
      vertex  2.259886e+001  3.447919e+002 -2.786826e+003
    endloop
  endfacet
  facet normal  2.716874e-002  8.299223e-001  5.572171e-001
    outer loop
      vertex  2.259886e+001  3.447919e+002 -2.786826e+003
      vertex  4.152937e-013  3.477181e+002 -2.790082e+003
      vertex  4.126824e-013  3.455317e+002 -2.786826e+003
    endloop
  endfacet
  facet normal  1.817993e-002  5.553414e-001  8.314236e-001
    outer loop
      vertex  2.259886e+001  3.447919e+002 -2.786826e+003
      vertex  4.126824e-013  3.455317e+002 -2.786826e+003
      vertex  2.238555e+001  3.415374e+002 -2.784647e+003
    endloop
  endfacet
  facet normal  1.818064e-002  5.553443e-001  8.314217e-001
    outer loop
      vertex  2.238555e+001  3.415374e+002 -2.784647e+003
      vertex  4.126824e-013  3.455317e+002 -2.786826e+003
      vertex  4.087871e-013  3.422703e+002 -2.784647e+003
    endloop
  endfacet
  facet normal  6.451437e-003  1.970651e-001  9.803692e-001
    outer loop
      vertex  2.238555e+001  3.415374e+002 -2.784647e+003
      vertex  4.087871e-013  3.422703e+002 -2.784647e+003
      vertex  4.041945e-013  3.384250e+002 -2.783874e+003
    endloop
  endfacet
  facet normal  9.794233e-001  3.206255e-002  1.992535e-001
    outer loop
      vertex  3.485000e+002  0.000000e+000 -2.793926e+003
      vertex  3.477538e+002  2.279299e+001 -2.793926e+003
      vertex  3.477181e+002 -8.516637e-014 -2.790082e+003
    endloop
  endfacet
  facet normal  9.794235e-001  3.206237e-002  1.992524e-001
    outer loop
      vertex  3.477181e+002 -8.516637e-014 -2.790082e+003
      vertex  3.477538e+002  2.279299e+001 -2.793926e+003
      vertex  3.469736e+002  2.274185e+001 -2.790082e+003
    endloop
  endfacet
  facet normal  8.299223e-001  2.716830e-002  5.572171e-001
    outer loop
      vertex  3.477181e+002 -8.516637e-014 -2.790082e+003
      vertex  3.469736e+002  2.274185e+001 -2.790082e+003
      vertex  3.455317e+002 -8.463087e-014 -2.786826e+003
    endloop
  endfacet
  facet normal  8.299208e-001  2.716869e-002  5.572192e-001
    outer loop
      vertex  3.455317e+002 -8.463087e-014 -2.786826e+003
      vertex  3.469736e+002  2.274185e+001 -2.790082e+003
      vertex  3.447919e+002  2.259886e+001 -2.786826e+003
    endloop
  endfacet
  facet normal  5.553444e-001  1.818002e-002  8.314217e-001
    outer loop
      vertex  3.455317e+002 -8.463087e-014 -2.786826e+003
      vertex  3.447919e+002  2.259886e+001 -2.786826e+003
      vertex  3.422703e+002 -8.383204e-014 -2.784647e+003
    endloop
  endfacet
  facet normal  5.553414e-001  1.818055e-002  8.314238e-001
    outer loop
      vertex  3.422703e+002 -8.383204e-014 -2.784647e+003
      vertex  3.447919e+002  2.259886e+001 -2.786826e+003
      vertex  3.415374e+002  2.238555e+001 -2.784647e+003
    endloop
  endfacet
  facet normal  1.970651e-001  6.451438e-003  9.803692e-001
    outer loop
      vertex  3.422703e+002 -8.383204e-014 -2.784647e+003
      vertex  3.415374e+002  2.238555e+001 -2.784647e+003
      vertex  3.384250e+002 -8.289021e-014 -2.783874e+003
    endloop
  endfacet
  facet normal  9.752294e-001  9.605259e-002  1.992524e-001
    outer loop
      vertex  3.477538e+002  2.279299e+001 -2.793926e+003
      vertex  3.455185e+002  4.548838e+001 -2.793926e+003
      vertex  3.469736e+002  2.274185e+001 -2.790082e+003
    endloop
  endfacet
  facet normal  9.752305e-001  9.605183e-002  1.992475e-001
    outer loop
      vertex  3.469736e+002  2.274185e+001 -2.790082e+003
      vertex  3.455185e+002  4.548838e+001 -2.793926e+003
      vertex  3.447433e+002  4.538632e+001 -2.790082e+003
    endloop
  endfacet
  facet normal  8.263670e-001  8.139006e-002  5.572191e-001
    outer loop
      vertex  3.469736e+002  2.274185e+001 -2.790082e+003
      vertex  3.447433e+002  4.538632e+001 -2.790082e+003
      vertex  3.447919e+002  2.259886e+001 -2.786826e+003
    endloop
  endfacet
  facet normal  8.263688e-001  8.138969e-002  5.572165e-001
    outer loop
      vertex  3.447919e+002  2.259886e+001 -2.786826e+003
      vertex  3.447433e+002  4.538632e+001 -2.790082e+003
      vertex  3.425757e+002  4.510094e+001 -2.786826e+003
    endloop
  endfacet
  facet normal  5.529634e-001  5.446178e-002  8.314236e-001
    outer loop
      vertex  3.447919e+002  2.259886e+001 -2.786826e+003
      vertex  3.425757e+002  4.510094e+001 -2.786826e+003
      vertex  3.415374e+002  2.238555e+001 -2.784647e+003
    endloop
  endfacet
  facet normal  5.529616e-001  5.446197e-002  8.314249e-001
    outer loop
      vertex  3.415374e+002  2.238555e+001 -2.784647e+003
      vertex  3.425757e+002  4.510094e+001 -2.786826e+003
      vertex  3.393421e+002  4.467524e+001 -2.784647e+003
    endloop
  endfacet
  facet normal  1.977127e-001  1.947300e-002  9.800667e-001
    outer loop
      vertex  3.415374e+002  2.238555e+001 -2.784647e+003
      vertex  3.393421e+002  4.467524e+001 -2.784647e+003
      vertex  3.376360e+002  2.309494e+001 -2.783874e+003
    endloop
  endfacet
  facet normal  9.668605e-001  1.596285e-001  1.992475e-001
    outer loop
      vertex  3.455185e+002  4.548838e+001 -2.793926e+003
      vertex  3.418037e+002  6.798898e+001 -2.793926e+003
      vertex  3.447433e+002  4.538632e+001 -2.790082e+003
    endloop
  endfacet
  facet normal  9.668586e-001  1.596296e-001  1.992557e-001
    outer loop
      vertex  3.447433e+002  4.538632e+001 -2.790082e+003
      vertex  3.418037e+002  6.798898e+001 -2.793926e+003
      vertex  3.410368e+002  6.783643e+001 -2.790082e+003
    endloop
  endfacet
  facet normal  8.192763e-001  1.352636e-001  5.572166e-001
    outer loop
      vertex  3.447433e+002  4.538632e+001 -2.790082e+003
      vertex  3.410368e+002  6.783643e+001 -2.790082e+003
      vertex  3.425757e+002  4.510094e+001 -2.786826e+003
    endloop
  endfacet
  facet normal  8.192773e-001  1.352634e-001  5.572150e-001
    outer loop
      vertex  3.425757e+002  4.510094e+001 -2.786826e+003
      vertex  3.410368e+002  6.783643e+001 -2.790082e+003
      vertex  3.388925e+002  6.740990e+001 -2.786826e+003
    endloop
  endfacet
  facet normal  5.482157e-001  9.051089e-002  8.314250e-001
    outer loop
      vertex  3.425757e+002  4.510094e+001 -2.786826e+003
      vertex  3.388925e+002  6.740990e+001 -2.786826e+003
      vertex  3.393421e+002  4.467524e+001 -2.784647e+003
    endloop
  endfacet
  facet normal  5.482187e-001  9.051076e-002  8.314230e-001
    outer loop
      vertex  3.393421e+002  4.467524e+001 -2.784647e+003
      vertex  3.388925e+002  6.740990e+001 -2.786826e+003
      vertex  3.356937e+002  6.677362e+001 -2.784647e+003
    endloop
  endfacet
  facet normal  1.973765e-001  3.258681e-002  9.797861e-001
    outer loop
      vertex  3.393421e+002  4.467524e+001 -2.784647e+003
      vertex  3.356937e+002  6.677362e+001 -2.784647e+003
      vertex  3.352729e+002  4.608220e+001 -2.783874e+003
    endloop
  endfacet
  facet normal  9.543483e-001  2.225231e-001  1.992557e-001
    outer loop
      vertex  3.418037e+002  6.798898e+001 -2.793926e+003
      vertex  3.366252e+002  9.019844e+001 -2.793926e+003
      vertex  3.410368e+002  6.783643e+001 -2.790082e+003
    endloop
  endfacet
  facet normal  9.543487e-001  2.225229e-001  1.992539e-001
    outer loop
      vertex  3.410368e+002  6.783643e+001 -2.790082e+003
      vertex  3.366252e+002  9.019844e+001 -2.793926e+003
      vertex  3.358699e+002  8.999606e+001 -2.790082e+003
    endloop
  endfacet
  facet normal  8.086765e-001  1.885569e-001  5.572149e-001
    outer loop
      vertex  3.410368e+002  6.783643e+001 -2.790082e+003
      vertex  3.358699e+002  8.999606e+001 -2.790082e+003
      vertex  3.388925e+002  6.740990e+001 -2.786826e+003
    endloop
  endfacet
  facet normal  8.086745e-001  1.885570e-001  5.572177e-001
    outer loop
      vertex  3.388925e+002  6.740990e+001 -2.786826e+003
      vertex  3.358699e+002  8.999606e+001 -2.790082e+003
      vertex  3.337580e+002  8.943020e+001 -2.786826e+003
    endloop
  endfacet
  facet normal  5.411250e-001  1.261730e-001  8.314229e-001
    outer loop
      vertex  3.388925e+002  6.740990e+001 -2.786826e+003
      vertex  3.337580e+002  8.943020e+001 -2.786826e+003
      vertex  3.356937e+002  6.677362e+001 -2.784647e+003
    endloop
  endfacet
  facet normal  5.411247e-001  1.261730e-001  8.314231e-001
    outer loop
      vertex  3.356937e+002  6.677362e+001 -2.784647e+003
      vertex  3.337580e+002  8.943020e+001 -2.786826e+003
      vertex  3.306077e+002  8.858607e+001 -2.784647e+003
    endloop
  endfacet
  facet normal  1.960490e-001  4.571238e-002  9.795281e-001
    outer loop
      vertex  3.356937e+002  6.677362e+001 -2.784647e+003
      vertex  3.306077e+002  8.858607e+001 -2.784647e+003
      vertex  3.313465e+002  6.885460e+001 -2.783874e+003
    endloop
  endfacet
  facet normal  9.377517e-001  2.844637e-001  1.992540e-001
    outer loop
      vertex  3.366252e+002  9.019844e+001 -2.793926e+003
      vertex  3.300052e+002  1.120217e+002 -2.793926e+003
      vertex  3.358699e+002  8.999606e+001 -2.790082e+003
    endloop
  endfacet
  facet normal  9.377524e-001  2.844634e-001  1.992514e-001
    outer loop
      vertex  3.358699e+002  8.999606e+001 -2.790082e+003
      vertex  3.300052e+002  1.120217e+002 -2.793926e+003
      vertex  3.292647e+002  1.117703e+002 -2.790082e+003
    endloop
  endfacet
  facet normal  7.946113e-001  2.410422e-001  5.572177e-001
    outer loop
      vertex  3.358699e+002  8.999606e+001 -2.790082e+003
      vertex  3.292647e+002  1.117703e+002 -2.790082e+003
      vertex  3.337580e+002  8.943020e+001 -2.786826e+003
    endloop
  endfacet
  facet normal  7.946117e-001  2.410422e-001  5.572172e-001
    outer loop
      vertex  3.337580e+002  8.943020e+001 -2.786826e+003
      vertex  3.292647e+002  1.117703e+002 -2.790082e+003
      vertex  3.271944e+002  1.110675e+002 -2.786826e+003
    endloop
  endfacet
  facet normal  5.317142e-001  1.612933e-001  8.314231e-001
    outer loop
      vertex  3.337580e+002  8.943020e+001 -2.786826e+003
      vertex  3.271944e+002  1.110675e+002 -2.786826e+003
      vertex  3.306077e+002  8.858607e+001 -2.784647e+003
    endloop
  endfacet
  facet normal  5.317140e-001  1.612933e-001  8.314233e-001
    outer loop
      vertex  3.306077e+002  8.858607e+001 -2.784647e+003
      vertex  3.271944e+002  1.110675e+002 -2.786826e+003
      vertex  3.241060e+002  1.100192e+002 -2.784647e+003
    endloop
  endfacet
  facet normal  1.937233e-001  5.876519e-002  9.792947e-001
    outer loop
      vertex  3.306077e+002  8.858607e+001 -2.784647e+003
      vertex  3.241060e+002  1.100192e+002 -2.784647e+003
      vertex  3.258753e+002  9.130597e+001 -2.783874e+003
    endloop
  endfacet
  facet normal  9.171394e-001  3.451872e-001  1.992514e-001
    outer loop
      vertex  3.300052e+002  1.120217e+002 -2.793926e+003
      vertex  3.219720e+002  1.333652e+002 -2.793926e+003
      vertex  3.292647e+002  1.117703e+002 -2.790082e+003
    endloop
  endfacet
  facet normal  9.171401e-001  3.451870e-001  1.992487e-001
    outer loop
      vertex  3.292647e+002  1.117703e+002 -2.790082e+003
      vertex  3.219720e+002  1.333652e+002 -2.793926e+003
      vertex  3.212496e+002  1.330659e+002 -2.790082e+003
    endloop
  endfacet
  facet normal  7.771453e-001  2.924967e-001  5.572171e-001
    outer loop
      vertex  3.292647e+002  1.117703e+002 -2.790082e+003
      vertex  3.212496e+002  1.330659e+002 -2.790082e+003
      vertex  3.271944e+002  1.110675e+002 -2.786826e+003
    endloop
  endfacet
  facet normal  7.771441e-001  2.924966e-001  5.572188e-001
    outer loop
      vertex  3.271944e+002  1.110675e+002 -2.786826e+003
      vertex  3.212496e+002  1.330659e+002 -2.790082e+003
      vertex  3.192297e+002  1.322293e+002 -2.786826e+003
    endloop
  endfacet
  facet normal  5.200263e-001  1.957242e-001  8.314233e-001
    outer loop
      vertex  3.271944e+002  1.110675e+002 -2.786826e+003
      vertex  3.192297e+002  1.322293e+002 -2.786826e+003
      vertex  3.241060e+002  1.100192e+002 -2.784647e+003
    endloop
  endfacet
  facet normal  5.200281e-001  1.957245e-001  8.314220e-001
    outer loop
      vertex  3.241060e+002  1.100192e+002 -2.784647e+003
      vertex  3.192297e+002  1.322293e+002 -2.786826e+003
      vertex  3.162165e+002  1.309812e+002 -2.784647e+003
    endloop
  endfacet
  facet normal  1.904010e-001  7.166179e-002  9.790874e-001
    outer loop
      vertex  3.241060e+002  1.100192e+002 -2.784647e+003
      vertex  3.162165e+002  1.309812e+002 -2.784647e+003
      vertex  3.188846e+002  1.133316e+002 -2.783874e+003
    endloop
  endfacet
  facet normal  8.926001e-001  4.044318e-001  1.992488e-001
    outer loop
      vertex  3.219720e+002  1.333652e+002 -2.793926e+003
      vertex  3.125602e+002  1.541376e+002 -2.793926e+003
      vertex  3.212496e+002  1.330659e+002 -2.790082e+003
    endloop
  endfacet
  facet normal  8.926002e-001  4.044317e-001  1.992480e-001
    outer loop
      vertex  3.212496e+002  1.330659e+002 -2.790082e+003
      vertex  3.125602e+002  1.541376e+002 -2.793926e+003
      vertex  3.118589e+002  1.537918e+002 -2.790082e+003
    endloop
  endfacet
  facet normal  7.563503e-001  3.426977e-001  5.572187e-001
    outer loop
      vertex  3.212496e+002  1.330659e+002 -2.790082e+003
      vertex  3.118589e+002  1.537918e+002 -2.790082e+003
      vertex  3.192297e+002  1.322293e+002 -2.786826e+003
    endloop
  endfacet
  facet normal  7.563503e-001  3.426977e-001  5.572184e-001
    outer loop
      vertex  3.192297e+002  1.322293e+002 -2.786826e+003
      vertex  3.118589e+002  1.537918e+002 -2.790082e+003
      vertex  3.098980e+002  1.528248e+002 -2.786826e+003
    endloop
  endfacet
  facet normal  5.061137e-001  2.293170e-001  8.314222e-001
    outer loop
      vertex  3.192297e+002  1.322293e+002 -2.786826e+003
      vertex  3.098980e+002  1.528248e+002 -2.786826e+003
      vertex  3.162165e+002  1.309812e+002 -2.784647e+003
    endloop
  endfacet
  facet normal  5.061129e-001  2.293168e-001  8.314226e-001
    outer loop
      vertex  3.162165e+002  1.309812e+002 -2.784647e+003
      vertex  3.098980e+002  1.528248e+002 -2.786826e+003
      vertex  3.069729e+002  1.513823e+002 -2.784647e+003
    endloop
  endfacet
  facet normal  1.860947e-001  8.431839e-002  9.789071e-001
    outer loop
      vertex  3.162165e+002  1.309812e+002 -2.784647e+003
      vertex  3.069729e+002  1.513823e+002 -2.784647e+003
      vertex  3.104072e+002  1.348289e+002 -2.783874e+003
    endloop
  endfacet
  facet normal  8.642378e-001  4.619449e-001  1.992480e-001
    outer loop
      vertex  3.125602e+002  1.541376e+002 -2.793926e+003
      vertex  3.018098e+002  1.742500e+002 -2.793926e+003
      vertex  3.118589e+002  1.537918e+002 -2.790082e+003
    endloop
  endfacet
  facet normal  8.642369e-001  4.619452e-001  1.992516e-001
    outer loop
      vertex  3.118589e+002  1.537918e+002 -2.790082e+003
      vertex  3.018098e+002  1.742500e+002 -2.793926e+003
      vertex  3.011327e+002  1.738590e+002 -2.790082e+003
    endloop
  endfacet
  facet normal  7.323172e-001  3.914325e-001  5.572183e-001
    outer loop
      vertex  3.118589e+002  1.537918e+002 -2.790082e+003
      vertex  3.011327e+002  1.738590e+002 -2.790082e+003
      vertex  3.098980e+002  1.528248e+002 -2.786826e+003
    endloop
  endfacet
  facet normal  7.323172e-001  3.914325e-001  5.572181e-001
    outer loop
      vertex  3.098980e+002  1.528248e+002 -2.786826e+003
      vertex  3.011327e+002  1.738590e+002 -2.790082e+003
      vertex  2.992393e+002  1.727659e+002 -2.786826e+003
    endloop
  endfacet
  facet normal  4.900311e-001  2.619275e-001  8.314226e-001
    outer loop
      vertex  3.098980e+002  1.528248e+002 -2.786826e+003
      vertex  2.992393e+002  1.727659e+002 -2.786826e+003
      vertex  3.069729e+002  1.513823e+002 -2.784647e+003
    endloop
  endfacet
  facet normal  4.900323e-001  2.619279e-001  8.314218e-001
    outer loop
      vertex  3.069729e+002  1.513823e+002 -2.784647e+003
      vertex  2.992393e+002  1.727659e+002 -2.786826e+003
      vertex  2.964148e+002  1.711351e+002 -2.784647e+003
    endloop
  endfacet
  facet normal  1.808222e-001  9.665154e-002  9.787552e-001
    outer loop
      vertex  3.069729e+002  1.513823e+002 -2.784647e+003
      vertex  2.964148e+002  1.711351e+002 -2.784647e+003
      vertex  3.004825e+002  1.556975e+002 -2.783874e+003
    endloop
  endfacet
  facet normal  8.321742e-001  5.174792e-001  1.992517e-001
    outer loop
      vertex  3.018098e+002  1.742500e+002 -2.793926e+003
      vertex  2.897672e+002  1.936162e+002 -2.793926e+003
      vertex  3.011327e+002  1.738590e+002 -2.790082e+003
    endloop
  endfacet
  facet normal  8.321757e-001  5.174791e-001  1.992464e-001
    outer loop
      vertex  3.011327e+002  1.738590e+002 -2.790082e+003
      vertex  2.897672e+002  1.936162e+002 -2.793926e+003
      vertex  2.891170e+002  1.931818e+002 -2.790082e+003
    endloop
  endfacet
  facet normal  7.051492e-001  4.384891e-001  5.572180e-001
    outer loop
      vertex  3.011327e+002  1.738590e+002 -2.790082e+003
      vertex  2.891170e+002  1.931818e+002 -2.790082e+003
      vertex  2.992393e+002  1.727659e+002 -2.786826e+003
    endloop
  endfacet
  facet normal  7.051466e-001  4.384883e-001  5.572220e-001
    outer loop
      vertex  2.992393e+002  1.727659e+002 -2.786826e+003
      vertex  2.891170e+002  1.931818e+002 -2.790082e+003
      vertex  2.872991e+002  1.919671e+002 -2.786826e+003
    endloop
  endfacet
  facet normal  4.718523e-001  2.934166e-001  8.314217e-001
    outer loop
      vertex  2.992393e+002  1.727659e+002 -2.786826e+003
      vertex  2.872991e+002  1.919671e+002 -2.786826e+003
      vertex  2.964148e+002  1.711351e+002 -2.784647e+003
    endloop
  endfacet
  facet normal  4.718519e-001  2.934165e-001  8.314219e-001
    outer loop
      vertex  2.964148e+002  1.711351e+002 -2.784647e+003
      vertex  2.872991e+002  1.919671e+002 -2.786826e+003
      vertex  2.845873e+002  1.901552e+002 -2.784647e+003
    endloop
  endfacet
  facet normal  1.746106e-001  1.085799e-001  9.786325e-001
    outer loop
      vertex  2.964148e+002  1.711351e+002 -2.784647e+003
      vertex  2.845873e+002  1.901552e+002 -2.784647e+003
      vertex  2.891569e+002  1.758402e+002 -2.783874e+003
    endloop
  endfacet
  facet normal  7.965487e-001  5.707984e-001  1.992466e-001
    outer loop
      vertex  2.897672e+002  1.936162e+002 -2.793926e+003
      vertex  2.764836e+002  2.121534e+002 -2.793926e+003
      vertex  2.891170e+002  1.931818e+002 -2.790082e+003
    endloop
  endfacet
  facet normal  7.965481e-001  5.707985e-001  1.992488e-001
    outer loop
      vertex  2.891170e+002  1.931818e+002 -2.790082e+003
      vertex  2.764836e+002  2.121534e+002 -2.793926e+003
      vertex  2.758633e+002  2.116774e+002 -2.790082e+003
    endloop
  endfacet
  facet normal  6.749584e-001  4.836684e-001  5.572218e-001
    outer loop
      vertex  2.891170e+002  1.931818e+002 -2.790082e+003
      vertex  2.758633e+002  2.116774e+002 -2.790082e+003
      vertex  2.872991e+002  1.919671e+002 -2.786826e+003
    endloop
  endfacet
  facet normal  6.749594e-001  4.836687e-001  5.572200e-001
    outer loop
      vertex  2.872991e+002  1.919671e+002 -2.786826e+003
      vertex  2.758633e+002  2.116774e+002 -2.790082e+003
      vertex  2.741288e+002  2.103464e+002 -2.786826e+003
    endloop
  endfacet
  facet normal  4.516514e-001  3.236486e-001  8.314220e-001
    outer loop
      vertex  2.872991e+002  1.919671e+002 -2.786826e+003
      vertex  2.741288e+002  2.103464e+002 -2.786826e+003
      vertex  2.845873e+002  1.901552e+002 -2.784647e+003
    endloop
  endfacet
  facet normal  4.516519e-001  3.236488e-001  8.314216e-001
    outer loop
      vertex  2.845873e+002  1.901552e+002 -2.784647e+003
      vertex  2.741288e+002  2.103464e+002 -2.786826e+003
      vertex  2.715413e+002  2.083609e+002 -2.784647e+003
    endloop
  endfacet
  facet normal  1.674943e-001  1.200246e-001  9.785396e-001
    outer loop
      vertex  2.845873e+002  1.901552e+002 -2.784647e+003
      vertex  2.715413e+002  2.083609e+002 -2.784647e+003
      vertex  2.764830e+002  1.951630e+002 -2.783874e+003
    endloop
  endfacet
  facet normal  7.575108e-001  6.216730e-001  1.992486e-001
    outer loop
      vertex  2.764836e+002  2.121534e+002 -2.793926e+003
      vertex  2.620162e+002  2.297820e+002 -2.793926e+003
      vertex  2.758633e+002  2.116774e+002 -2.790082e+003
    endloop
  endfacet
  facet normal  7.575108e-001  6.216730e-001  1.992488e-001
    outer loop
      vertex  2.758633e+002  2.116774e+002 -2.790082e+003
      vertex  2.620162e+002  2.297820e+002 -2.793926e+003
      vertex  2.614283e+002  2.292665e+002 -2.790082e+003
    endloop
  endfacet
  facet normal  6.418808e-001  5.267779e-001  5.572200e-001
    outer loop
      vertex  2.758633e+002  2.116774e+002 -2.790082e+003
      vertex  2.614283e+002  2.292665e+002 -2.790082e+003
      vertex  2.741288e+002  2.103464e+002 -2.786826e+003
    endloop
  endfacet
  facet normal  6.418805e-001  5.267779e-001  5.572204e-001
    outer loop
      vertex  2.741288e+002  2.103464e+002 -2.786826e+003
      vertex  2.614283e+002  2.292665e+002 -2.790082e+003
      vertex  2.597845e+002  2.278249e+002 -2.786826e+003
    endloop
  endfacet
  facet normal  4.295170e-001  3.524956e-001  8.314217e-001
    outer loop
      vertex  2.741288e+002  2.103464e+002 -2.786826e+003
      vertex  2.597845e+002  2.278249e+002 -2.786826e+003
      vertex  2.715413e+002  2.083609e+002 -2.784647e+003
    endloop
  endfacet
  facet normal  4.295166e-001  3.524953e-001  8.314220e-001
    outer loop
      vertex  2.715413e+002  2.083609e+002 -2.784647e+003
      vertex  2.597845e+002  2.278249e+002 -2.786826e+003
      vertex  2.573324e+002  2.256745e+002 -2.784647e+003
    endloop
  endfacet
  facet normal  1.595133e-001  1.309092e-001  9.784774e-001
    outer loop
      vertex  2.715413e+002  2.083609e+002 -2.784647e+003
      vertex  2.573324e+002  2.256745e+002 -2.784647e+003
      vertex  2.625201e+002  2.135759e+002 -2.783874e+003
    endloop
  endfacet
  facet normal  7.152295e-001  6.698856e-001  1.992487e-001
    outer loop
      vertex  2.620162e+002  2.297820e+002 -2.793926e+003
      vertex  2.464267e+002  2.464267e+002 -2.793926e+003
      vertex  2.614283e+002  2.292665e+002 -2.790082e+003
    endloop
  endfacet
  facet normal  7.152296e-001  6.698856e-001  1.992482e-001
    outer loop
      vertex  2.614283e+002  2.292665e+002 -2.790082e+003
      vertex  2.464267e+002  2.464267e+002 -2.793926e+003
      vertex  2.458738e+002  2.458738e+002 -2.790082e+003
    endloop
  endfacet
  facet normal  6.060534e-001  5.676308e-001  5.572204e-001
    outer loop
      vertex  2.614283e+002  2.292665e+002 -2.790082e+003
      vertex  2.458738e+002  2.458738e+002 -2.790082e+003
      vertex  2.597845e+002  2.278249e+002 -2.786826e+003
    endloop
  endfacet
  facet normal  6.060532e-001  5.676308e-001  5.572206e-001
    outer loop
      vertex  2.597845e+002  2.278249e+002 -2.786826e+003
      vertex  2.458738e+002  2.458738e+002 -2.790082e+003
      vertex  2.443278e+002  2.443278e+002 -2.786826e+003
    endloop
  endfacet
  facet normal  4.055427e-001  3.798321e-001  8.314220e-001
    outer loop
      vertex  2.597845e+002  2.278249e+002 -2.786826e+003
      vertex  2.443278e+002  2.443278e+002 -2.786826e+003
      vertex  2.573324e+002  2.256745e+002 -2.784647e+003
    endloop
  endfacet
  facet normal  4.055417e-001  3.798316e-001  8.314227e-001
    outer loop
      vertex  2.573324e+002  2.256745e+002 -2.784647e+003
      vertex  2.443278e+002  2.443278e+002 -2.786826e+003
      vertex  2.420216e+002  2.420216e+002 -2.784647e+003
    endloop
  endfacet
  facet normal  1.507177e-001  1.411626e-001  9.784464e-001
    outer loop
      vertex  2.573324e+002  2.256745e+002 -2.784647e+003
      vertex  2.420216e+002  2.420216e+002 -2.784647e+003
      vertex  2.473331e+002  2.309930e+002 -2.783874e+003
    endloop
  endfacet
  facet normal  6.698856e-001  7.152296e-001  1.992482e-001
    outer loop
      vertex  2.464267e+002  2.464267e+002 -2.793926e+003
      vertex  2.297820e+002  2.620162e+002 -2.793926e+003
      vertex  2.458738e+002  2.458738e+002 -2.790082e+003
    endloop
  endfacet
  facet normal  6.698855e-001  7.152296e-001  1.992487e-001
    outer loop
      vertex  2.458738e+002  2.458738e+002 -2.790082e+003
      vertex  2.297820e+002  2.620162e+002 -2.793926e+003
      vertex  2.292665e+002  2.614283e+002 -2.790082e+003
    endloop
  endfacet
  facet normal  5.676307e-001  6.060532e-001  5.572206e-001
    outer loop
      vertex  2.458738e+002  2.458738e+002 -2.790082e+003
      vertex  2.292665e+002  2.614283e+002 -2.790082e+003
      vertex  2.443278e+002  2.443278e+002 -2.786826e+003
    endloop
  endfacet
  facet normal  5.676309e-001  6.060534e-001  5.572203e-001
    outer loop
      vertex  2.443278e+002  2.443278e+002 -2.786826e+003
      vertex  2.292665e+002  2.614283e+002 -2.790082e+003
      vertex  2.278249e+002  2.597845e+002 -2.786826e+003
    endloop
  endfacet
  facet normal  3.798315e-001  4.055420e-001  8.314227e-001
    outer loop
      vertex  2.443278e+002  2.443278e+002 -2.786826e+003
      vertex  2.278249e+002  2.597845e+002 -2.786826e+003
      vertex  2.420216e+002  2.420216e+002 -2.784647e+003
    endloop
  endfacet
  facet normal  3.798323e-001  4.055425e-001  8.314220e-001
    outer loop
      vertex  2.420216e+002  2.420216e+002 -2.784647e+003
      vertex  2.278249e+002  2.597845e+002 -2.786826e+003
      vertex  2.256745e+002  2.573324e+002 -2.784647e+003
    endloop
  endfacet
  facet normal  1.411626e-001  1.507177e-001  9.784464e-001
    outer loop
      vertex  2.420216e+002  2.420216e+002 -2.784647e+003
      vertex  2.256745e+002  2.573324e+002 -2.784647e+003
      vertex  2.309930e+002  2.473331e+002 -2.783874e+003
    endloop
  endfacet
  facet normal  6.216730e-001  7.575108e-001  1.992487e-001
    outer loop
      vertex  2.297820e+002  2.620162e+002 -2.793926e+003
      vertex  2.121534e+002  2.764836e+002 -2.793926e+003
      vertex  2.292665e+002  2.614283e+002 -2.790082e+003
    endloop
  endfacet
  facet normal  6.216730e-001  7.575108e-001  1.992486e-001
    outer loop
      vertex  2.292665e+002  2.614283e+002 -2.790082e+003
      vertex  2.121534e+002  2.764836e+002 -2.793926e+003
      vertex  2.116774e+002  2.758633e+002 -2.790082e+003
    endloop
  endfacet
  facet normal  5.267777e-001  6.418805e-001  5.572205e-001
    outer loop
      vertex  2.292665e+002  2.614283e+002 -2.790082e+003
      vertex  2.116774e+002  2.758633e+002 -2.790082e+003
      vertex  2.278249e+002  2.597845e+002 -2.786826e+003
    endloop
  endfacet
  facet normal  5.267781e-001  6.418808e-001  5.572198e-001
    outer loop
      vertex  2.278249e+002  2.597845e+002 -2.786826e+003
      vertex  2.116774e+002  2.758633e+002 -2.790082e+003
      vertex  2.103464e+002  2.741288e+002 -2.786826e+003
    endloop
  endfacet
  facet normal  3.524952e-001  4.295165e-001  8.314221e-001
    outer loop
      vertex  2.278249e+002  2.597845e+002 -2.786826e+003
      vertex  2.103464e+002  2.741288e+002 -2.786826e+003
      vertex  2.256745e+002  2.573324e+002 -2.784647e+003
    endloop
  endfacet
  facet normal  3.524957e-001  4.295170e-001  8.314217e-001
    outer loop
      vertex  2.256745e+002  2.573324e+002 -2.784647e+003
      vertex  2.103464e+002  2.741288e+002 -2.786826e+003
      vertex  2.083609e+002  2.715413e+002 -2.784647e+003
    endloop
  endfacet
  facet normal  1.309092e-001  1.595133e-001  9.784775e-001
    outer loop
      vertex  2.256745e+002  2.573324e+002 -2.784647e+003
      vertex  2.083609e+002  2.715413e+002 -2.784647e+003
      vertex  2.135759e+002  2.625201e+002 -2.783874e+003
    endloop
  endfacet
  facet normal  5.707982e-001  7.965484e-001  1.992489e-001
    outer loop
      vertex  2.121534e+002  2.764836e+002 -2.793926e+003
      vertex  1.936162e+002  2.897672e+002 -2.793926e+003
      vertex  2.116774e+002  2.758633e+002 -2.790082e+003
    endloop
  endfacet
  facet normal  5.707988e-001  7.965485e-001  1.992467e-001
    outer loop
      vertex  2.116774e+002  2.758633e+002 -2.790082e+003
      vertex  1.936162e+002  2.897672e+002 -2.793926e+003
      vertex  1.931818e+002  2.891170e+002 -2.790082e+003
    endloop
  endfacet
  facet normal  4.836691e-001  6.749594e-001  5.572200e-001
    outer loop
      vertex  2.116774e+002  2.758633e+002 -2.790082e+003
      vertex  1.931818e+002  2.891170e+002 -2.790082e+003
      vertex  2.103464e+002  2.741288e+002 -2.786826e+003
    endloop
  endfacet
  facet normal  4.836681e-001  6.749585e-001  5.572218e-001
    outer loop
      vertex  2.103464e+002  2.741288e+002 -2.786826e+003
      vertex  1.931818e+002  2.891170e+002 -2.790082e+003
      vertex  1.919671e+002  2.872991e+002 -2.786826e+003
    endloop
  endfacet
  facet normal  3.236489e-001  4.516519e-001  8.314217e-001
    outer loop
      vertex  2.103464e+002  2.741288e+002 -2.786826e+003
      vertex  1.919671e+002  2.872991e+002 -2.786826e+003
      vertex  2.083609e+002  2.715413e+002 -2.784647e+003
    endloop
  endfacet
  facet normal  3.236485e-001  4.516515e-001  8.314220e-001
    outer loop
      vertex  2.083609e+002  2.715413e+002 -2.784647e+003
      vertex  1.919671e+002  2.872991e+002 -2.786826e+003
      vertex  1.901552e+002  2.845873e+002 -2.784647e+003
    endloop
  endfacet
  facet normal  1.200246e-001  1.674943e-001  9.785396e-001
    outer loop
      vertex  2.083609e+002  2.715413e+002 -2.784647e+003
      vertex  1.901552e+002  2.845873e+002 -2.784647e+003
      vertex  1.951630e+002  2.764830e+002 -2.783874e+003
    endloop
  endfacet
  facet normal  5.174798e-001  8.321751e-001  1.992465e-001
    outer loop
      vertex  1.936162e+002  2.897672e+002 -2.793926e+003
      vertex  1.742500e+002  3.018098e+002 -2.793926e+003
      vertex  1.931818e+002  2.891170e+002 -2.790082e+003
    endloop
  endfacet
  facet normal  5.174785e-001  8.321747e-001  1.992517e-001
    outer loop
      vertex  1.931818e+002  2.891170e+002 -2.790082e+003
      vertex  1.742500e+002  3.018098e+002 -2.793926e+003
      vertex  1.738590e+002  3.011327e+002 -2.790082e+003
    endloop
  endfacet
  facet normal  4.384876e-001  7.051469e-001  5.572220e-001
    outer loop
      vertex  1.931818e+002  2.891170e+002 -2.790082e+003
      vertex  1.738590e+002  3.011327e+002 -2.790082e+003
      vertex  1.919671e+002  2.872991e+002 -2.786826e+003
    endloop
  endfacet
  facet normal  4.384898e-001  7.051488e-001  5.572180e-001
    outer loop
      vertex  1.919671e+002  2.872991e+002 -2.786826e+003
      vertex  1.738590e+002  3.011327e+002 -2.790082e+003
      vertex  1.727659e+002  2.992393e+002 -2.786826e+003
    endloop
  endfacet
  facet normal  2.934165e-001  4.718520e-001  8.314220e-001
    outer loop
      vertex  1.919671e+002  2.872991e+002 -2.786826e+003
      vertex  1.727659e+002  2.992393e+002 -2.786826e+003
      vertex  1.901552e+002  2.845873e+002 -2.784647e+003
    endloop
  endfacet
  facet normal  2.934167e-001  4.718522e-001  8.314217e-001
    outer loop
      vertex  1.901552e+002  2.845873e+002 -2.784647e+003
      vertex  1.727659e+002  2.992393e+002 -2.786826e+003
      vertex  1.711351e+002  2.964148e+002 -2.784647e+003
    endloop
  endfacet
  facet normal  1.085799e-001  1.746106e-001  9.786325e-001
    outer loop
      vertex  1.901552e+002  2.845873e+002 -2.784647e+003
      vertex  1.711351e+002  2.964148e+002 -2.784647e+003
      vertex  1.758402e+002  2.891569e+002 -2.783874e+003
    endloop
  endfacet
  facet normal  4.619446e-001  8.642372e-001  1.992516e-001
    outer loop
      vertex  1.742500e+002  3.018098e+002 -2.793926e+003
      vertex  1.541376e+002  3.125602e+002 -2.793926e+003
      vertex  1.738590e+002  3.011327e+002 -2.790082e+003
    endloop
  endfacet
  facet normal  4.619456e-001  8.642375e-001  1.992478e-001
    outer loop
      vertex  1.738590e+002  3.011327e+002 -2.790082e+003
      vertex  1.541376e+002  3.125602e+002 -2.793926e+003
      vertex  1.537918e+002  3.118589e+002 -2.790082e+003
    endloop
  endfacet
  facet normal  3.914325e-001  7.323173e-001  5.572180e-001
    outer loop
      vertex  1.738590e+002  3.011327e+002 -2.790082e+003
      vertex  1.537918e+002  3.118589e+002 -2.790082e+003
      vertex  1.727659e+002  2.992393e+002 -2.786826e+003
    endloop
  endfacet
  facet normal  3.914324e-001  7.323170e-001  5.572185e-001
    outer loop
      vertex  1.727659e+002  2.992393e+002 -2.786826e+003
      vertex  1.537918e+002  3.118589e+002 -2.790082e+003
      vertex  1.528248e+002  3.098980e+002 -2.786826e+003
    endloop
  endfacet
  facet normal  2.619281e-001  4.900321e-001  8.314218e-001
    outer loop
      vertex  1.727659e+002  2.992393e+002 -2.786826e+003
      vertex  1.528248e+002  3.098980e+002 -2.786826e+003
      vertex  1.711351e+002  2.964148e+002 -2.784647e+003
    endloop
  endfacet
  facet normal  2.619273e-001  4.900311e-001  8.314226e-001
    outer loop
      vertex  1.711351e+002  2.964148e+002 -2.784647e+003
      vertex  1.528248e+002  3.098980e+002 -2.786826e+003
      vertex  1.513823e+002  3.069729e+002 -2.784647e+003
    endloop
  endfacet
  facet normal  9.665154e-002  1.808222e-001  9.787552e-001
    outer loop
      vertex  1.711351e+002  2.964148e+002 -2.784647e+003
      vertex  1.513823e+002  3.069729e+002 -2.784647e+003
      vertex  1.556975e+002  3.004825e+002 -2.783874e+003
    endloop
  endfacet
  facet normal  4.044319e-001  8.926002e-001  1.992480e-001
    outer loop
      vertex  1.541376e+002  3.125602e+002 -2.793926e+003
      vertex  1.333652e+002  3.219720e+002 -2.793926e+003
      vertex  1.537918e+002  3.118589e+002 -2.790082e+003
    endloop
  endfacet
  facet normal  4.044317e-001  8.926001e-001  1.992487e-001
    outer loop
      vertex  1.537918e+002  3.118589e+002 -2.790082e+003
      vertex  1.333652e+002  3.219720e+002 -2.793926e+003
      vertex  1.330659e+002  3.212496e+002 -2.790082e+003
    endloop
  endfacet
  facet normal  3.426977e-001  7.563504e-001  5.572184e-001
    outer loop
      vertex  1.537918e+002  3.118589e+002 -2.790082e+003
      vertex  1.330659e+002  3.212496e+002 -2.790082e+003
      vertex  1.528248e+002  3.098980e+002 -2.786826e+003
    endloop
  endfacet
  facet normal  3.426976e-001  7.563502e-001  5.572187e-001
    outer loop
      vertex  1.528248e+002  3.098980e+002 -2.786826e+003
      vertex  1.330659e+002  3.212496e+002 -2.790082e+003
      vertex  1.322293e+002  3.192297e+002 -2.786826e+003
    endloop
  endfacet
  facet normal  2.293167e-001  5.061131e-001  8.314226e-001
    outer loop
      vertex  1.528248e+002  3.098980e+002 -2.786826e+003
      vertex  1.322293e+002  3.192297e+002 -2.786826e+003
      vertex  1.513823e+002  3.069729e+002 -2.784647e+003
    endloop
  endfacet
  facet normal  2.293171e-001  5.061135e-001  8.314222e-001
    outer loop
      vertex  1.513823e+002  3.069729e+002 -2.784647e+003
      vertex  1.322293e+002  3.192297e+002 -2.786826e+003
      vertex  1.309812e+002  3.162165e+002 -2.784647e+003
    endloop
  endfacet
  facet normal  8.431839e-002  1.860947e-001  9.789071e-001
    outer loop
      vertex  1.513823e+002  3.069729e+002 -2.784647e+003
      vertex  1.309812e+002  3.162165e+002 -2.784647e+003
      vertex  1.348289e+002  3.104072e+002 -2.783874e+003
    endloop
  endfacet
  facet normal  3.451874e-001  9.171399e-001  1.992487e-001
    outer loop
      vertex  1.333652e+002  3.219720e+002 -2.793926e+003
      vertex  1.120217e+002  3.300052e+002 -2.793926e+003
      vertex  1.330659e+002  3.212496e+002 -2.790082e+003
    endloop
  endfacet
  facet normal  3.451868e-001  9.171395e-001  1.992513e-001
    outer loop
      vertex  1.330659e+002  3.212496e+002 -2.790082e+003
      vertex  1.120217e+002  3.300052e+002 -2.793926e+003
      vertex  1.117703e+002  3.292647e+002 -2.790082e+003
    endloop
  endfacet
  facet normal  2.924963e-001  7.771442e-001  5.572189e-001
    outer loop
      vertex  1.330659e+002  3.212496e+002 -2.790082e+003
      vertex  1.117703e+002  3.292647e+002 -2.790082e+003
      vertex  1.322293e+002  3.192297e+002 -2.786826e+003
    endloop
  endfacet
  facet normal  2.924971e-001  7.771452e-001  5.572171e-001
    outer loop
      vertex  1.322293e+002  3.192297e+002 -2.786826e+003
      vertex  1.117703e+002  3.292647e+002 -2.790082e+003
      vertex  1.110675e+002  3.271944e+002 -2.786826e+003
    endloop
  endfacet
  facet normal  1.957249e-001  5.200280e-001  8.314220e-001
    outer loop
      vertex  1.322293e+002  3.192297e+002 -2.786826e+003
      vertex  1.110675e+002  3.271944e+002 -2.786826e+003
      vertex  1.309812e+002  3.162165e+002 -2.784647e+003
    endloop
  endfacet
  facet normal  1.957238e-001  5.200264e-001  8.314233e-001
    outer loop
      vertex  1.309812e+002  3.162165e+002 -2.784647e+003
      vertex  1.110675e+002  3.271944e+002 -2.786826e+003
      vertex  1.100192e+002  3.241060e+002 -2.784647e+003
    endloop
  endfacet
  facet normal  7.166178e-002  1.904010e-001  9.790874e-001
    outer loop
      vertex  1.309812e+002  3.162165e+002 -2.784647e+003
      vertex  1.100192e+002  3.241060e+002 -2.784647e+003
      vertex  1.133316e+002  3.188846e+002 -2.783874e+003
    endloop
  endfacet
  facet normal  2.844639e-001  9.377522e-001  1.992514e-001
    outer loop
      vertex  1.120217e+002  3.300052e+002 -2.793926e+003
      vertex  9.019844e+001  3.366252e+002 -2.793926e+003
      vertex  1.117703e+002  3.292647e+002 -2.790082e+003
    endloop
  endfacet
  facet normal  2.844633e-001  9.377519e-001  1.992540e-001
    outer loop
      vertex  1.117703e+002  3.292647e+002 -2.790082e+003
      vertex  9.019844e+001  3.366252e+002 -2.793926e+003
      vertex  8.999606e+001  3.358699e+002 -2.790082e+003
    endloop
  endfacet
  facet normal  2.410423e-001  7.946116e-001  5.572171e-001
    outer loop
      vertex  1.117703e+002  3.292647e+002 -2.790082e+003
      vertex  8.999606e+001  3.358699e+002 -2.790082e+003
      vertex  1.110675e+002  3.271944e+002 -2.786826e+003
    endloop
  endfacet
  facet normal  2.410421e-001  7.946113e-001  5.572178e-001
    outer loop
      vertex  1.110675e+002  3.271944e+002 -2.786826e+003
      vertex  8.999606e+001  3.358699e+002 -2.790082e+003
      vertex  8.943020e+001  3.337580e+002 -2.786826e+003
    endloop
  endfacet
  facet normal  1.612933e-001  5.317141e-001  8.314233e-001
    outer loop
      vertex  1.110675e+002  3.271944e+002 -2.786826e+003
      vertex  8.943020e+001  3.337580e+002 -2.786826e+003
      vertex  1.100192e+002  3.241060e+002 -2.784647e+003
    endloop
  endfacet
  facet normal  1.612933e-001  5.317141e-001  8.314232e-001
    outer loop
      vertex  1.100192e+002  3.241060e+002 -2.784647e+003
      vertex  8.943020e+001  3.337580e+002 -2.786826e+003
      vertex  8.858607e+001  3.306077e+002 -2.784647e+003
    endloop
  endfacet
  facet normal  5.876519e-002  1.937233e-001  9.792947e-001
    outer loop
      vertex  1.100192e+002  3.241060e+002 -2.784647e+003
      vertex  8.858607e+001  3.306077e+002 -2.784647e+003
      vertex  9.130597e+001  3.258753e+002 -2.783874e+003
    endloop
  endfacet
  facet normal  2.225232e-001  9.543487e-001  1.992539e-001
    outer loop
      vertex  9.019844e+001  3.366252e+002 -2.793926e+003
      vertex  6.798898e+001  3.418037e+002 -2.793926e+003
      vertex  8.999606e+001  3.358699e+002 -2.790082e+003
    endloop
  endfacet
  facet normal  2.225228e-001  9.543484e-001  1.992557e-001
    outer loop
      vertex  8.999606e+001  3.358699e+002 -2.790082e+003
      vertex  6.798898e+001  3.418037e+002 -2.793926e+003
      vertex  6.783643e+001  3.410368e+002 -2.790082e+003
    endloop
  endfacet
  facet normal  1.885565e-001  8.086747e-001  5.572178e-001
    outer loop
      vertex  8.999606e+001  3.358699e+002 -2.790082e+003
      vertex  6.783643e+001  3.410368e+002 -2.790082e+003
      vertex  8.943020e+001  3.337580e+002 -2.786826e+003
    endloop
  endfacet
  facet normal  1.885575e-001  8.086764e-001  5.572150e-001
    outer loop
      vertex  8.943020e+001  3.337580e+002 -2.786826e+003
      vertex  6.783643e+001  3.410368e+002 -2.790082e+003
      vertex  6.740990e+001  3.388925e+002 -2.786826e+003
    endloop
  endfacet
  facet normal  1.261730e-001  5.411247e-001  8.314232e-001
    outer loop
      vertex  8.943020e+001  3.337580e+002 -2.786826e+003
      vertex  6.740990e+001  3.388925e+002 -2.786826e+003
      vertex  8.858607e+001  3.306077e+002 -2.784647e+003
    endloop
  endfacet
  facet normal  1.261731e-001  5.411251e-001  8.314229e-001
    outer loop
      vertex  8.858607e+001  3.306077e+002 -2.784647e+003
      vertex  6.740990e+001  3.388925e+002 -2.786826e+003
      vertex  6.677362e+001  3.356937e+002 -2.784647e+003
    endloop
  endfacet
  facet normal  4.571238e-002  1.960490e-001  9.795281e-001
    outer loop
      vertex  8.858607e+001  3.306077e+002 -2.784647e+003
      vertex  6.677362e+001  3.356937e+002 -2.784647e+003
      vertex  6.885460e+001  3.313465e+002 -2.783874e+003
    endloop
  endfacet
  facet normal  1.596282e-001  9.668589e-001  1.992557e-001
    outer loop
      vertex  6.798898e+001  3.418037e+002 -2.793926e+003
      vertex  4.548838e+001  3.455185e+002 -2.793926e+003
      vertex  6.783643e+001  3.410368e+002 -2.790082e+003
    endloop
  endfacet
  facet normal  1.596299e-001  9.668602e-001  1.992475e-001
    outer loop
      vertex  6.783643e+001  3.410368e+002 -2.790082e+003
      vertex  4.548838e+001  3.455185e+002 -2.793926e+003
      vertex  4.538632e+001  3.447433e+002 -2.790082e+003
    endloop
  endfacet
  facet normal  1.352637e-001  8.192773e-001  5.572150e-001
    outer loop
      vertex  6.783643e+001  3.410368e+002 -2.790082e+003
      vertex  4.538632e+001  3.447433e+002 -2.790082e+003
      vertex  6.740990e+001  3.388925e+002 -2.786826e+003
    endloop
  endfacet
  facet normal  1.352632e-001  8.192763e-001  5.572165e-001
    outer loop
      vertex  6.740990e+001  3.388925e+002 -2.786826e+003
      vertex  4.538632e+001  3.447433e+002 -2.790082e+003
      vertex  4.510094e+001  3.425757e+002 -2.786826e+003
    endloop
  endfacet
  facet normal  9.051135e-002  5.482185e-001  8.314229e-001
    outer loop
      vertex  6.740990e+001  3.388925e+002 -2.786826e+003
      vertex  4.510094e+001  3.425757e+002 -2.786826e+003
      vertex  6.677362e+001  3.356937e+002 -2.784647e+003
    endloop
  endfacet
  facet normal  9.051028e-002  5.482157e-001  8.314249e-001
    outer loop
      vertex  6.677362e+001  3.356937e+002 -2.784647e+003
      vertex  4.510094e+001  3.425757e+002 -2.786826e+003
      vertex  4.467524e+001  3.393421e+002 -2.784647e+003
    endloop
  endfacet
  facet normal  3.258681e-002  1.973765e-001  9.797861e-001
    outer loop
      vertex  6.677362e+001  3.356937e+002 -2.784647e+003
      vertex  4.467524e+001  3.393421e+002 -2.784647e+003
      vertex  4.608220e+001  3.352729e+002 -2.783874e+003
    endloop
  endfacet
  facet normal  9.605269e-002  9.752303e-001  1.992475e-001
    outer loop
      vertex  4.548838e+001  3.455185e+002 -2.793926e+003
      vertex  2.279299e+001  3.477538e+002 -2.793926e+003
      vertex  4.538632e+001  3.447433e+002 -2.790082e+003
    endloop
  endfacet
  facet normal  9.605173e-002  9.752294e-001  1.992524e-001
    outer loop
      vertex  4.538632e+001  3.447433e+002 -2.790082e+003
      vertex  2.279299e+001  3.477538e+002 -2.793926e+003
      vertex  2.274185e+001  3.469736e+002 -2.790082e+003
    endloop
  endfacet
  facet normal  8.139024e-002  8.263688e-001  5.572166e-001
    outer loop
      vertex  4.538632e+001  3.447433e+002 -2.790082e+003
      vertex  2.274185e+001  3.469736e+002 -2.790082e+003
      vertex  4.510094e+001  3.425757e+002 -2.786826e+003
    endloop
  endfacet
  facet normal  8.138952e-002  8.263671e-001  5.572192e-001
    outer loop
      vertex  4.510094e+001  3.425757e+002 -2.786826e+003
      vertex  2.274185e+001  3.469736e+002 -2.790082e+003
      vertex  2.259886e+001  3.447919e+002 -2.786826e+003
    endloop
  endfacet
  facet normal  5.446161e-002  5.529617e-001  8.314249e-001
    outer loop
      vertex  4.510094e+001  3.425757e+002 -2.786826e+003
      vertex  2.259886e+001  3.447919e+002 -2.786826e+003
      vertex  4.467524e+001  3.393421e+002 -2.784647e+003
    endloop
  endfacet
  facet normal  5.446215e-002  5.529634e-001  8.314236e-001
    outer loop
      vertex  4.467524e+001  3.393421e+002 -2.784647e+003
      vertex  2.259886e+001  3.447919e+002 -2.786826e+003
      vertex  2.238555e+001  3.415374e+002 -2.784647e+003
    endloop
  endfacet
  facet normal  1.947300e-002  1.977127e-001  9.800667e-001
    outer loop
      vertex  4.467524e+001  3.393421e+002 -2.784647e+003
      vertex  2.238555e+001  3.415374e+002 -2.784647e+003
      vertex  2.309494e+001  3.376360e+002 -2.783874e+003
    endloop
  endfacet
  facet normal  3.271862e-002  9.994646e-001 -9.722044e-019
    outer loop
      vertex  0.000000e+000  3.485000e+002 -6.116322e+003
      vertex  9.872202e-014  3.485000e+002 -2.793926e+003
      vertex  2.279299e+001  3.477538e+002 -6.116322e+003
    endloop
  endfacet
  facet normal  3.271862e-002  9.994646e-001  -0.000000e+000
    outer loop
      vertex  2.279299e+001  3.477538e+002 -6.116322e+003
      vertex  9.872202e-014  3.485000e+002 -2.793926e+003
      vertex  2.279299e+001  3.477538e+002 -2.793926e+003
    endloop
  endfacet
  facet normal  9.801804e-002  9.951846e-001  0.000000e+000
    outer loop
      vertex  2.279299e+001  3.477538e+002 -6.116322e+003
      vertex  2.279299e+001  3.477538e+002 -2.793926e+003
      vertex  4.548838e+001  3.455185e+002 -6.116322e+003
    endloop
  endfacet
  facet normal  9.801804e-002  9.951846e-001  -0.000000e+000
    outer loop
      vertex  4.548838e+001  3.455185e+002 -6.116322e+003
      vertex  2.279299e+001  3.477538e+002 -2.793926e+003
      vertex  4.548838e+001  3.455185e+002 -2.793926e+003
    endloop
  endfacet
  facet normal  1.628946e-001  9.866434e-001  0.000000e+000
    outer loop
      vertex  4.548838e+001  3.455185e+002 -6.116322e+003
      vertex  4.548838e+001  3.455185e+002 -2.793926e+003
      vertex  6.798898e+001  3.418037e+002 -6.116322e+003
    endloop
  endfacet
  facet normal  1.628946e-001  9.866434e-001  -0.000000e+000
    outer loop
      vertex  6.798898e+001  3.418037e+002 -6.116322e+003
      vertex  4.548838e+001  3.455185e+002 -2.793926e+003
      vertex  6.798898e+001  3.418037e+002 -2.793926e+003
    endloop
  endfacet
  facet normal  2.270765e-001  9.738770e-001  0.000000e+000
    outer loop
      vertex  6.798898e+001  3.418037e+002 -6.116322e+003
      vertex  6.798898e+001  3.418037e+002 -2.793926e+003
      vertex  9.019844e+001  3.366252e+002 -6.116322e+003
    endloop
  endfacet
  facet normal  2.270765e-001  9.738770e-001  -0.000000e+000
    outer loop
      vertex  9.019844e+001  3.366252e+002 -6.116322e+003
      vertex  6.798898e+001  3.418037e+002 -2.793926e+003
      vertex  9.019844e+001  3.366252e+002 -2.793926e+003
    endloop
  endfacet
  facet normal  2.902845e-001  9.569405e-001  0.000000e+000
    outer loop
      vertex  9.019844e+001  3.366252e+002 -6.116322e+003
      vertex  9.019844e+001  3.366252e+002 -2.793926e+003
      vertex  1.120217e+002  3.300052e+002 -6.116322e+003
    endloop
  endfacet
  facet normal  2.902845e-001  9.569405e-001  -0.000000e+000
    outer loop
      vertex  1.120217e+002  3.300052e+002 -6.116322e+003
      vertex  9.019844e+001  3.366252e+002 -2.793926e+003
      vertex  1.120217e+002  3.300052e+002 -2.793926e+003
    endloop
  endfacet
  facet normal  3.522504e-001  9.359058e-001  0.000000e+000
    outer loop
      vertex  1.120217e+002  3.300052e+002 -6.116322e+003
      vertex  1.120217e+002  3.300052e+002 -2.793926e+003
      vertex  1.333652e+002  3.219720e+002 -6.116322e+003
    endloop
  endfacet
  facet normal  3.522504e-001  9.359058e-001  -0.000000e+000
    outer loop
      vertex  1.333652e+002  3.219720e+002 -6.116322e+003
      vertex  1.120217e+002  3.300052e+002 -2.793926e+003
      vertex  1.333652e+002  3.219720e+002 -2.793926e+003
    endloop
  endfacet
  facet normal  4.127070e-001  9.108638e-001  0.000000e+000
    outer loop
      vertex  1.333652e+002  3.219720e+002 -6.116322e+003
      vertex  1.333652e+002  3.219720e+002 -2.793926e+003
      vertex  1.541376e+002  3.125602e+002 -6.116322e+003
    endloop
  endfacet
  facet normal  4.127070e-001  9.108638e-001  -0.000000e+000
    outer loop
      vertex  1.541376e+002  3.125602e+002 -6.116322e+003
      vertex  1.333652e+002  3.219720e+002 -2.793926e+003
      vertex  1.541376e+002  3.125602e+002 -2.793926e+003
    endloop
  endfacet
  facet normal  4.713969e-001  8.819212e-001  0.000000e+000
    outer loop
      vertex  1.541376e+002  3.125602e+002 -6.116322e+003
      vertex  1.541376e+002  3.125602e+002 -2.793926e+003
      vertex  1.742500e+002  3.018098e+002 -6.116322e+003
    endloop
  endfacet
  facet normal  4.713969e-001  8.819212e-001  -0.000000e+000
    outer loop
      vertex  1.742500e+002  3.018098e+002 -6.116322e+003
      vertex  1.541376e+002  3.125602e+002 -2.793926e+003
      vertex  1.742500e+002  3.018098e+002 -2.793926e+003
    endloop
  endfacet
  facet normal  5.280679e-001  8.492022e-001  0.000000e+000
    outer loop
      vertex  1.742500e+002  3.018098e+002 -6.116322e+003
      vertex  1.742500e+002  3.018098e+002 -2.793926e+003
      vertex  1.936162e+002  2.897672e+002 -6.116322e+003
    endloop
  endfacet
  facet normal  5.280679e-001  8.492022e-001  -0.000000e+000
    outer loop
      vertex  1.936162e+002  2.897672e+002 -6.116322e+003
      vertex  1.742500e+002  3.018098e+002 -2.793926e+003
      vertex  1.936162e+002  2.897672e+002 -2.793926e+003
    endloop
  endfacet
  facet normal  5.824775e-001  8.128468e-001  0.000000e+000
    outer loop
      vertex  1.936162e+002  2.897672e+002 -6.116322e+003
      vertex  1.936162e+002  2.897672e+002 -2.793926e+003
      vertex  2.121534e+002  2.764836e+002 -6.116322e+003
    endloop
  endfacet
  facet normal  5.824775e-001  8.128468e-001  -0.000000e+000
    outer loop
      vertex  2.121534e+002  2.764836e+002 -6.116322e+003
      vertex  1.936162e+002  2.897672e+002 -2.793926e+003
      vertex  2.121534e+002  2.764836e+002 -2.793926e+003
    endloop
  endfacet
  facet normal  6.343933e-001  7.730105e-001  0.000000e+000
    outer loop
      vertex  2.121534e+002  2.764836e+002 -6.116322e+003
      vertex  2.121534e+002  2.764836e+002 -2.793926e+003
      vertex  2.297820e+002  2.620162e+002 -6.116322e+003
    endloop
  endfacet
  facet normal  6.343933e-001  7.730105e-001  -0.000000e+000
    outer loop
      vertex  2.297820e+002  2.620162e+002 -6.116322e+003
      vertex  2.121534e+002  2.764836e+002 -2.793926e+003
      vertex  2.297820e+002  2.620162e+002 -2.793926e+003
    endloop
  endfacet
  facet normal  6.835923e-001  7.298641e-001  0.000000e+000
    outer loop
      vertex  2.297820e+002  2.620162e+002 -6.116322e+003
      vertex  2.297820e+002  2.620162e+002 -2.793926e+003
      vertex  2.464267e+002  2.464267e+002 -6.116322e+003
    endloop
  endfacet
  facet normal  6.835923e-001  7.298641e-001  -0.000000e+000
    outer loop
      vertex  2.464267e+002  2.464267e+002 -6.116322e+003
      vertex  2.297820e+002  2.620162e+002 -2.793926e+003
      vertex  2.464267e+002  2.464267e+002 -2.793926e+003
    endloop
  endfacet
  facet normal  7.298641e-001  6.835923e-001  0.000000e+000
    outer loop
      vertex  2.464267e+002  2.464267e+002 -6.116322e+003
      vertex  2.464267e+002  2.464267e+002 -2.793926e+003
      vertex  2.620162e+002  2.297820e+002 -6.116322e+003
    endloop
  endfacet
  facet normal  7.298641e-001  6.835923e-001  -0.000000e+000
    outer loop
      vertex  2.620162e+002  2.297820e+002 -6.116322e+003
      vertex  2.464267e+002  2.464267e+002 -2.793926e+003
      vertex  2.620162e+002  2.297820e+002 -2.793926e+003
    endloop
  endfacet
  facet normal  7.730105e-001  6.343933e-001  0.000000e+000
    outer loop
      vertex  2.620162e+002  2.297820e+002 -6.116322e+003
      vertex  2.620162e+002  2.297820e+002 -2.793926e+003
      vertex  2.764836e+002  2.121534e+002 -6.116322e+003
    endloop
  endfacet
  facet normal  7.730105e-001  6.343933e-001  -0.000000e+000
    outer loop
      vertex  2.764836e+002  2.121534e+002 -6.116322e+003
      vertex  2.620162e+002  2.297820e+002 -2.793926e+003
      vertex  2.764836e+002  2.121534e+002 -2.793926e+003
    endloop
  endfacet
  facet normal  8.128468e-001  5.824775e-001  0.000000e+000
    outer loop
      vertex  2.764836e+002  2.121534e+002 -6.116322e+003
      vertex  2.764836e+002  2.121534e+002 -2.793926e+003
      vertex  2.897672e+002  1.936162e+002 -6.116322e+003
    endloop
  endfacet
  facet normal  8.128468e-001  5.824775e-001  -0.000000e+000
    outer loop
      vertex  2.897672e+002  1.936162e+002 -6.116322e+003
      vertex  2.764836e+002  2.121534e+002 -2.793926e+003
      vertex  2.897672e+002  1.936162e+002 -2.793926e+003
    endloop
  endfacet
  facet normal  8.492022e-001  5.280679e-001  0.000000e+000
    outer loop
      vertex  2.897672e+002  1.936162e+002 -6.116322e+003
      vertex  2.897672e+002  1.936162e+002 -2.793926e+003
      vertex  3.018098e+002  1.742500e+002 -6.116322e+003
    endloop
  endfacet
  facet normal  8.492022e-001  5.280679e-001  -0.000000e+000
    outer loop
      vertex  3.018098e+002  1.742500e+002 -6.116322e+003
      vertex  2.897672e+002  1.936162e+002 -2.793926e+003
      vertex  3.018098e+002  1.742500e+002 -2.793926e+003
    endloop
  endfacet
  facet normal  8.819212e-001  4.713969e-001  0.000000e+000
    outer loop
      vertex  3.018098e+002  1.742500e+002 -6.116322e+003
      vertex  3.018098e+002  1.742500e+002 -2.793926e+003
      vertex  3.125602e+002  1.541376e+002 -6.116322e+003
    endloop
  endfacet
  facet normal  8.819212e-001  4.713969e-001  -0.000000e+000
    outer loop
      vertex  3.125602e+002  1.541376e+002 -6.116322e+003
      vertex  3.018098e+002  1.742500e+002 -2.793926e+003
      vertex  3.125602e+002  1.541376e+002 -2.793926e+003
    endloop
  endfacet
  facet normal  9.108638e-001  4.127070e-001  0.000000e+000
    outer loop
      vertex  3.125602e+002  1.541376e+002 -6.116322e+003
      vertex  3.125602e+002  1.541376e+002 -2.793926e+003
      vertex  3.219720e+002  1.333652e+002 -6.116322e+003
    endloop
  endfacet
  facet normal  9.108638e-001  4.127070e-001  -0.000000e+000
    outer loop
      vertex  3.219720e+002  1.333652e+002 -6.116322e+003
      vertex  3.125602e+002  1.541376e+002 -2.793926e+003
      vertex  3.219720e+002  1.333652e+002 -2.793926e+003
    endloop
  endfacet
  facet normal  9.359058e-001  3.522504e-001  0.000000e+000
    outer loop
      vertex  3.219720e+002  1.333652e+002 -6.116322e+003
      vertex  3.219720e+002  1.333652e+002 -2.793926e+003
      vertex  3.300052e+002  1.120217e+002 -6.116322e+003
    endloop
  endfacet
  facet normal  9.359058e-001  3.522504e-001  -0.000000e+000
    outer loop
      vertex  3.300052e+002  1.120217e+002 -6.116322e+003
      vertex  3.219720e+002  1.333652e+002 -2.793926e+003
      vertex  3.300052e+002  1.120217e+002 -2.793926e+003
    endloop
  endfacet
  facet normal  9.569405e-001  2.902845e-001  0.000000e+000
    outer loop
      vertex  3.300052e+002  1.120217e+002 -6.116322e+003
      vertex  3.300052e+002  1.120217e+002 -2.793926e+003
      vertex  3.366252e+002  9.019844e+001 -6.116322e+003
    endloop
  endfacet
  facet normal  9.569405e-001  2.902845e-001  -0.000000e+000
    outer loop
      vertex  3.366252e+002  9.019844e+001 -6.116322e+003
      vertex  3.300052e+002  1.120217e+002 -2.793926e+003
      vertex  3.366252e+002  9.019844e+001 -2.793926e+003
    endloop
  endfacet
  facet normal  9.738770e-001  2.270765e-001  0.000000e+000
    outer loop
      vertex  3.366252e+002  9.019844e+001 -6.116322e+003
      vertex  3.366252e+002  9.019844e+001 -2.793926e+003
      vertex  3.418037e+002  6.798898e+001 -6.116322e+003
    endloop
  endfacet
  facet normal  9.738770e-001  2.270765e-001  -0.000000e+000
    outer loop
      vertex  3.418037e+002  6.798898e+001 -6.116322e+003
      vertex  3.366252e+002  9.019844e+001 -2.793926e+003
      vertex  3.418037e+002  6.798898e+001 -2.793926e+003
    endloop
  endfacet
  facet normal  9.866434e-001  1.628946e-001  0.000000e+000
    outer loop
      vertex  3.418037e+002  6.798898e+001 -6.116322e+003
      vertex  3.418037e+002  6.798898e+001 -2.793926e+003
      vertex  3.455185e+002  4.548838e+001 -6.116322e+003
    endloop
  endfacet
  facet normal  9.866434e-001  1.628946e-001  -0.000000e+000
    outer loop
      vertex  3.455185e+002  4.548838e+001 -6.116322e+003
      vertex  3.418037e+002  6.798898e+001 -2.793926e+003
      vertex  3.455185e+002  4.548838e+001 -2.793926e+003
    endloop
  endfacet
  facet normal  9.951846e-001  9.801804e-002  0.000000e+000
    outer loop
      vertex  3.455185e+002  4.548838e+001 -6.116322e+003
      vertex  3.455185e+002  4.548838e+001 -2.793926e+003
      vertex  3.477538e+002  2.279299e+001 -6.116322e+003
    endloop
  endfacet
  facet normal  9.951846e-001  9.801804e-002  -0.000000e+000
    outer loop
      vertex  3.477538e+002  2.279299e+001 -6.116322e+003
      vertex  3.455185e+002  4.548838e+001 -2.793926e+003
      vertex  3.477538e+002  2.279299e+001 -2.793926e+003
    endloop
  endfacet
  facet normal  9.994646e-001  3.271862e-002  0.000000e+000
    outer loop
      vertex  3.477538e+002  2.279299e+001 -6.116322e+003
      vertex  3.477538e+002  2.279299e+001 -2.793926e+003
      vertex  3.485000e+002  0.000000e+000 -6.116322e+003
    endloop
  endfacet
  facet normal  9.994646e-001  3.271862e-002  -0.000000e+000
    outer loop
      vertex  3.485000e+002  0.000000e+000 -6.116322e+003
      vertex  3.477538e+002  2.279299e+001 -2.793926e+003
      vertex  3.485000e+002  0.000000e+000 -2.793926e+003
    endloop
  endfacet
  facet normal  0.000000e+000  -0.000000e+000 -9.999999e-001
    outer loop
      vertex -3.979039e-013  0.000000e+000 -6.116322e+003
      vertex  0.000000e+000  3.485000e+002 -6.116322e+003
      vertex  2.279299e+001  3.477538e+002 -6.116322e+003
    endloop
  endfacet
  facet normal  0.000000e+000  -0.000000e+000 -1.000000e+000
    outer loop
      vertex -3.979039e-013  0.000000e+000 -6.116322e+003
      vertex  2.279299e+001  3.477538e+002 -6.116322e+003
      vertex  4.548838e+001  3.455185e+002 -6.116322e+003
    endloop
  endfacet
  facet normal  0.000000e+000  -0.000000e+000 -9.999999e-001
    outer loop
      vertex -3.979039e-013  0.000000e+000 -6.116322e+003
      vertex  4.548838e+001  3.455185e+002 -6.116322e+003
      vertex  6.798898e+001  3.418037e+002 -6.116322e+003
    endloop
  endfacet
  facet normal  0.000000e+000  -0.000000e+000 -1.000000e+000
    outer loop
      vertex -3.979039e-013  0.000000e+000 -6.116322e+003
      vertex  6.798898e+001  3.418037e+002 -6.116322e+003
      vertex  9.019844e+001  3.366252e+002 -6.116322e+003
    endloop
  endfacet
  facet normal  0.000000e+000  -0.000000e+000 -1.000000e+000
    outer loop
      vertex -3.979039e-013  0.000000e+000 -6.116322e+003
      vertex  9.019844e+001  3.366252e+002 -6.116322e+003
      vertex  1.120217e+002  3.300052e+002 -6.116322e+003
    endloop
  endfacet
  facet normal  0.000000e+000  -0.000000e+000 -1.000000e+000
    outer loop
      vertex -3.979039e-013  0.000000e+000 -6.116322e+003
      vertex  1.120217e+002  3.300052e+002 -6.116322e+003
      vertex  1.333652e+002  3.219720e+002 -6.116322e+003
    endloop
  endfacet
  facet normal  0.000000e+000  -0.000000e+000 -1.000000e+000
    outer loop
      vertex -3.979039e-013  0.000000e+000 -6.116322e+003
      vertex  1.333652e+002  3.219720e+002 -6.116322e+003
      vertex  1.541376e+002  3.125602e+002 -6.116322e+003
    endloop
  endfacet
  facet normal  0.000000e+000  -0.000000e+000 -1.000000e+000
    outer loop
      vertex -3.979039e-013  0.000000e+000 -6.116322e+003
      vertex  1.541376e+002  3.125602e+002 -6.116322e+003
      vertex  1.742500e+002  3.018098e+002 -6.116322e+003
    endloop
  endfacet
  facet normal  0.000000e+000  -0.000000e+000 -1.000000e+000
    outer loop
      vertex -3.979039e-013  0.000000e+000 -6.116322e+003
      vertex  1.742500e+002  3.018098e+002 -6.116322e+003
      vertex  1.936162e+002  2.897672e+002 -6.116322e+003
    endloop
  endfacet
  facet normal  0.000000e+000  -0.000000e+000 -1.000000e+000
    outer loop
      vertex -3.979039e-013  0.000000e+000 -6.116322e+003
      vertex  1.936162e+002  2.897672e+002 -6.116322e+003
      vertex  2.121534e+002  2.764836e+002 -6.116322e+003
    endloop
  endfacet
  facet normal  0.000000e+000  -0.000000e+000 -1.000000e+000
    outer loop
      vertex -3.979039e-013  0.000000e+000 -6.116322e+003
      vertex  2.121534e+002  2.764836e+002 -6.116322e+003
      vertex  2.297820e+002  2.620162e+002 -6.116322e+003
    endloop
  endfacet
  facet normal  0.000000e+000  -0.000000e+000 -1.000000e+000
    outer loop
      vertex -3.979039e-013  0.000000e+000 -6.116322e+003
      vertex  2.297820e+002  2.620162e+002 -6.116322e+003
      vertex  2.464267e+002  2.464267e+002 -6.116322e+003
    endloop
  endfacet
  facet normal  0.000000e+000  -0.000000e+000 -1.000000e+000
    outer loop
      vertex -3.979039e-013  0.000000e+000 -6.116322e+003
      vertex  2.464267e+002  2.464267e+002 -6.116322e+003
      vertex  2.620162e+002  2.297820e+002 -6.116322e+003
    endloop
  endfacet
  facet normal  0.000000e+000  -0.000000e+000 -1.000000e+000
    outer loop
      vertex -3.979039e-013  0.000000e+000 -6.116322e+003
      vertex  2.620162e+002  2.297820e+002 -6.116322e+003
      vertex  2.764836e+002  2.121534e+002 -6.116322e+003
    endloop
  endfacet
  facet normal  0.000000e+000  -0.000000e+000 -1.000000e+000
    outer loop
      vertex -3.979039e-013  0.000000e+000 -6.116322e+003
      vertex  2.764836e+002  2.121534e+002 -6.116322e+003
      vertex  2.897672e+002  1.936162e+002 -6.116322e+003
    endloop
  endfacet
  facet normal  0.000000e+000  -0.000000e+000 -1.000000e+000
    outer loop
      vertex -3.979039e-013  0.000000e+000 -6.116322e+003
      vertex  2.897672e+002  1.936162e+002 -6.116322e+003
      vertex  3.018098e+002  1.742500e+002 -6.116322e+003
    endloop
  endfacet
  facet normal  0.000000e+000  -0.000000e+000 -1.000000e+000
    outer loop
      vertex -3.979039e-013  0.000000e+000 -6.116322e+003
      vertex  3.018098e+002  1.742500e+002 -6.116322e+003
      vertex  3.125602e+002  1.541376e+002 -6.116322e+003
    endloop
  endfacet
  facet normal  0.000000e+000  -0.000000e+000 -1.000000e+000
    outer loop
      vertex -3.979039e-013  0.000000e+000 -6.116322e+003
      vertex  3.125602e+002  1.541376e+002 -6.116322e+003
      vertex  3.219720e+002  1.333652e+002 -6.116322e+003
    endloop
  endfacet
  facet normal  0.000000e+000  -0.000000e+000 -1.000000e+000
    outer loop
      vertex -3.979039e-013  0.000000e+000 -6.116322e+003
      vertex  3.219720e+002  1.333652e+002 -6.116322e+003
      vertex  3.300052e+002  1.120217e+002 -6.116322e+003
    endloop
  endfacet
  facet normal  0.000000e+000  -0.000000e+000 -1.000000e+000
    outer loop
      vertex -3.979039e-013  0.000000e+000 -6.116322e+003
      vertex  3.300052e+002  1.120217e+002 -6.116322e+003
      vertex  3.366252e+002  9.019844e+001 -6.116322e+003
    endloop
  endfacet
  facet normal  0.000000e+000  -0.000000e+000 -1.000000e+000
    outer loop
      vertex -3.979039e-013  0.000000e+000 -6.116322e+003
      vertex  3.366252e+002  9.019844e+001 -6.116322e+003
      vertex  3.418037e+002  6.798898e+001 -6.116322e+003
    endloop
  endfacet
  facet normal  0.000000e+000  -0.000000e+000 -9.999999e-001
    outer loop
      vertex -3.979039e-013  0.000000e+000 -6.116322e+003
      vertex  3.418037e+002  6.798898e+001 -6.116322e+003
      vertex  3.455185e+002  4.548838e+001 -6.116322e+003
    endloop
  endfacet
  facet normal  0.000000e+000  -0.000000e+000 -1.000000e+000
    outer loop
      vertex -3.979039e-013  0.000000e+000 -6.116322e+003
      vertex  3.455185e+002  4.548838e+001 -6.116322e+003
      vertex  3.477538e+002  2.279299e+001 -6.116322e+003
    endloop
  endfacet
  facet normal  0.000000e+000  -0.000000e+000 -9.999999e-001
    outer loop
      vertex -3.979039e-013  0.000000e+000 -6.116322e+003
      vertex  3.477538e+002  2.279299e+001 -6.116322e+003
      vertex  3.485000e+002  0.000000e+000 -6.116322e+003
    endloop
  endfacet
  facet normal -1.000000e+000  0.000000e+000  0.000000e+000
    outer loop
      vertex  0.000000e+000  3.485000e+002 -2.793926e+003
      vertex  0.000000e+000  3.485000e+002 -6.116322e+003
      vertex  0.000000e+000 -5.115908e-013 -6.116322e+003
    endloop
  endfacet
  facet normal -1.000000e+000  0.000000e+000  -0.000000e+000
    outer loop
      vertex  0.000000e+000  0.000000e+000 -2.783886e+003
      vertex  0.000000e+000  3.384250e+002 -2.783874e+003
      vertex  0.000000e+000  3.422703e+002 -2.784647e+003
    endloop
  endfacet
  facet normal -1.000000e+000  -0.000000e+000  -0.000000e+000
    outer loop
      vertex  0.000000e+000  0.000000e+000 -2.783886e+003
      vertex  0.000000e+000  3.422703e+002 -2.784647e+003
      vertex  0.000000e+000  3.455317e+002 -2.786826e+003
    endloop
  endfacet
  facet normal -1.000000e+000  -0.000000e+000  -0.000000e+000
    outer loop
      vertex  0.000000e+000  0.000000e+000 -2.783886e+003
      vertex  0.000000e+000  3.455317e+002 -2.786826e+003
      vertex  0.000000e+000  3.477181e+002 -2.790082e+003
    endloop
  endfacet
  facet normal -1.000000e+000  -0.000000e+000  -0.000000e+000
    outer loop
      vertex  0.000000e+000  0.000000e+000 -2.783886e+003
      vertex  0.000000e+000  3.477181e+002 -2.790082e+003
      vertex  0.000000e+000  3.485000e+002 -2.793926e+003
    endloop
  endfacet
  facet normal -1.000000e+000  -0.000000e+000  0.000000e+000
    outer loop
      vertex  0.000000e+000  0.000000e+000 -2.783886e+003
      vertex  0.000000e+000  3.485000e+002 -2.793926e+003
      vertex  0.000000e+000 -5.115908e-013 -6.116322e+003
    endloop
  endfacet
  facet normal -1.384820e-016  1.000000e+000  0.000000e+000
    outer loop
      vertex  3.485000e+002  0.000000e+000 -6.116322e+003
      vertex  8.526513e-014 -4.826097e-014 -6.116322e+003
      vertex  3.485000e+002  0.000000e+000 -2.793926e+003
    endloop
  endfacet
  facet normal  2.433029e-016  1.000000e+000  4.601184e-014
    outer loop
      vertex  0.000000e+000  0.000000e+000 -2.783886e+003
      vertex  3.384250e+002 -8.289021e-014 -2.783874e+003
      vertex  3.422703e+002 -4.826097e-014 -2.784647e+003
    endloop
  endfacet
  facet normal  1.414734e-016  1.000000e+000  2.118039e-016
    outer loop
      vertex  0.000000e+000  0.000000e+000 -2.783886e+003
      vertex  3.422703e+002 -4.826097e-014 -2.784647e+003
      vertex  3.455317e+002 -4.826097e-014 -2.786826e+003
    endloop
  endfacet
  facet normal  1.404739e-016  1.000000e+000  9.431543e-017
    outer loop
      vertex  0.000000e+000  0.000000e+000 -2.783886e+003
      vertex  3.455317e+002 -4.826097e-014 -2.786826e+003
      vertex  3.477181e+002 -4.826097e-014 -2.790082e+003
    endloop
  endfacet
  facet normal  3.638498e-016  1.000000e+000  1.263052e-014
    outer loop
      vertex  0.000000e+000  0.000000e+000 -2.783886e+003
      vertex  3.477181e+002 -4.826097e-014 -2.790082e+003
      vertex  3.485000e+002  0.000000e+000 -2.793926e+003
    endloop
  endfacet
  facet normal -4.171912e-019  1.000000e+000 -1.448219e-017
    outer loop
      vertex  0.000000e+000  0.000000e+000 -2.783886e+003
      vertex  3.485000e+002  0.000000e+000 -2.793926e+003
      vertex  8.526513e-014 -4.826097e-014 -6.116322e+003
    endloop
  endfacet
endsolid CATIA STL
