solid CATIA STL
 facet normal  0.000000e+000  0.000000e+000 -1.000000e+000
    outer loop
      vertex -5.000000e+002 -5.000000e+002 -1.750000e+003
      vertex -5.000000e+002  5.000000e+002 -1.750000e+003
      vertex  5.000000e+002 -5.000000e+002 -1.750000e+003
    endloop
  endfacet
  facet normal  0.000000e+000  0.000000e+000 -1.000000e+000
    outer loop
      vertex  5.000000e+002 -5.000000e+002 -1.750000e+003
      vertex -5.000000e+002  5.000000e+002 -1.750000e+003
      vertex  5.000000e+002  5.000000e+002 -1.750000e+003
    endloop
  endfacet
endsolid CATIA STL
