solid CATIA STL

  facet normal -5.519540e-001 -8.338745e-001  -0.000000e+000
    outer loop
      vertex  2.309401e+002  3.265986e+002 -2.343830e+003
      vertex  2.104140e+002  3.401852e+002 -2.147200e+003
      vertex  2.104140e+002  3.401852e+002 -2.343830e+003
    endloop
  endfacet
  facet normal -4.996179e-001 -8.662459e-001  0.000000e+000
    outer loop
      vertex  2.104140e+002  3.401852e+002 -2.343830e+003
      vertex  2.104140e+002  3.401852e+002 -2.147200e+003
      vertex  1.890911e+002  3.524834e+002 -2.147200e+003
    endloop
  endfacet
  facet normal -4.996179e-001 -8.662459e-001  -0.000000e+000
    outer loop
      vertex  2.104140e+002  3.401852e+002 -2.343830e+003
      vertex  1.890911e+002  3.524834e+002 -2.147200e+003
      vertex  1.890911e+002  3.524834e+002 -2.343830e+003
    endloop
  endfacet
  facet normal -4.453899e-001 -8.953367e-001  0.000000e+000
    outer loop
      vertex  1.890911e+002  3.524834e+002 -2.343830e+003
      vertex  1.890911e+002  3.524834e+002 -2.147200e+003
      vertex  1.670521e+002  3.634468e+002 -2.147200e+003
    endloop
  endfacet
  facet normal -4.453899e-001 -8.953367e-001  -0.000000e+000
    outer loop
      vertex  1.890911e+002  3.524834e+002 -2.343830e+003
      vertex  1.670521e+002  3.634468e+002 -2.147200e+003
      vertex  1.670521e+002  3.634468e+002 -2.343830e+003
    endloop
  endfacet
  facet normal -3.894748e-001 -9.210371e-001  0.000000e+000
    outer loop
      vertex  1.670521e+002  3.634468e+002 -2.343830e+003
      vertex  1.670521e+002  3.634468e+002 -2.147200e+003
      vertex  1.443805e+002  3.730338e+002 -2.147200e+003
    endloop
  endfacet
  facet normal -3.894748e-001 -9.210371e-001  -0.000000e+000
    outer loop
      vertex  1.670521e+002  3.634468e+002 -2.343830e+003
      vertex  1.443805e+002  3.730338e+002 -2.147200e+003
      vertex  1.443805e+002  3.730338e+002 -2.343830e+003
    endloop
  endfacet
  facet normal -3.320864e-001 -9.432490e-001  0.000000e+000
    outer loop
      vertex  1.443805e+002  3.730338e+002 -2.343830e+003
      vertex  1.443805e+002  3.730338e+002 -2.147200e+003
      vertex  1.211622e+002  3.812083e+002 -2.147200e+003
    endloop
  endfacet
  facet normal -3.320864e-001 -9.432490e-001  -0.000000e+000
    outer loop
      vertex  1.443805e+002  3.730338e+002 -2.343830e+003
      vertex  1.211622e+002  3.812083e+002 -2.147200e+003
      vertex  1.211622e+002  3.812083e+002 -2.343830e+003
    endloop
  endfacet
  facet normal -2.734386e-001 -9.618894e-001  0.000000e+000
    outer loop
      vertex  1.211622e+002  3.812083e+002 -2.343830e+003
      vertex  1.211622e+002  3.812083e+002 -2.147200e+003
      vertex  9.748498e+001  3.879390e+002 -2.147200e+003
    endloop
  endfacet
  facet normal -2.734386e-001 -9.618894e-001  -0.000000e+000
    outer loop
      vertex  1.211622e+002  3.812083e+002 -2.343830e+003
      vertex  9.748498e+001  3.879390e+002 -2.147200e+003
      vertex  9.748498e+001  3.879390e+002 -2.343830e+003
    endloop
  endfacet
  facet normal -2.137556e-001 -9.768872e-001  0.000000e+000
    outer loop
      vertex  9.748498e+001  3.879390e+002 -2.343830e+003
      vertex  9.748498e+001  3.879390e+002 -2.147200e+003
      vertex  7.343861e+001  3.932007e+002 -2.147200e+003
    endloop
  endfacet
  facet normal -2.137556e-001 -9.768872e-001  -0.000000e+000
    outer loop
      vertex  9.748498e+001  3.879390e+002 -2.343830e+003
      vertex  7.343861e+001  3.932007e+002 -2.147200e+003
      vertex  7.343861e+001  3.932007e+002 -2.343830e+003
    endloop
  endfacet
  facet normal -1.532629e-001 -9.881854e-001  0.000000e+000
    outer loop
      vertex  7.343861e+001  3.932007e+002 -2.343830e+003
      vertex  7.343861e+001  3.932007e+002 -2.147200e+003
      vertex  4.911412e+001  3.969733e+002 -2.147200e+003
    endloop
  endfacet
  facet normal -1.532629e-001 -9.881854e-001  -0.000000e+000
    outer loop
      vertex  7.343861e+001  3.932007e+002 -2.343830e+003
      vertex  4.911412e+001  3.969733e+002 -2.147200e+003
      vertex  4.911412e+001  3.969733e+002 -2.343830e+003
    endloop
  endfacet
  facet normal -9.219133e-002 -9.957413e-001  0.000000e+000
    outer loop
      vertex  4.911412e+001  3.969733e+002 -2.343830e+003
      vertex  4.911412e+001  3.969733e+002 -2.147200e+003
      vertex  2.460365e+001  3.992426e+002 -2.147200e+003
    endloop
  endfacet
  facet normal -9.219133e-002 -9.957413e-001  -0.000000e+000
    outer loop
      vertex  4.911412e+001  3.969733e+002 -2.343830e+003
      vertex  2.460365e+001  3.992426e+002 -2.147200e+003
      vertex  2.460365e+001  3.992426e+002 -2.343830e+003
    endloop
  endfacet
  facet normal -3.076888e-002 -9.995266e-001  0.000000e+000
    outer loop
      vertex  2.460365e+001  3.992426e+002 -2.343830e+003
      vertex  2.460365e+001  3.992426e+002 -2.147200e+003
      vertex  1.133108e-013  4.000000e+002 -2.147200e+003
    endloop
  endfacet
  facet normal -3.076888e-002 -9.995266e-001  2.779661e-017
    outer loop
      vertex  2.460365e+001  3.992426e+002 -2.343830e+003
      vertex  1.133108e-013  4.000000e+002 -2.147200e+003
      vertex -6.432491e-014  4.000000e+002 -2.343830e+003
    endloop
  endfacet
  facet normal -5.519540e-001 -8.338745e-001  0.000000e+000
    outer loop
      vertex  2.104140e+002  3.401852e+002 -2.147200e+003
      vertex  2.309401e+002  3.265986e+002 -2.343830e+003
      vertex  2.309401e+002  3.265986e+002 -2.147200e+003
    endloop
  endfacet
  facet normal -6.021998e-001 -7.983454e-001  -0.000000e+000
    outer loop
      vertex  2.309401e+002  3.265986e+002 -2.147200e+003
      vertex  2.309401e+002  3.265986e+002 -2.343830e+003
      vertex  2.505916e+002  3.117753e+002 -2.343830e+003
    endloop
  endfacet
  facet normal -6.021998e-001 -7.983454e-001  0.000000e+000
    outer loop
      vertex  2.309401e+002  3.265986e+002 -2.147200e+003
      vertex  2.505916e+002  3.117753e+002 -2.343830e+003
      vertex  2.505916e+002  3.117753e+002 -2.147200e+003
    endloop
  endfacet
  facet normal -6.501648e-001 -7.597931e-001  -0.000000e+000
    outer loop
      vertex  2.505916e+002  3.117753e+002 -2.147200e+003
      vertex  2.505916e+002  3.117753e+002 -2.343830e+003
      vertex  2.692942e+002  2.957713e+002 -2.343830e+003
    endloop
  endfacet
  facet normal -6.501648e-001 -7.597931e-001  0.000000e+000
    outer loop
      vertex  2.505916e+002  3.117753e+002 -2.147200e+003
      vertex  2.692942e+002  2.957713e+002 -2.343830e+003
      vertex  2.692942e+002  2.957713e+002 -2.147200e+003
    endloop
  endfacet
  facet normal -6.956680e-001 -7.183635e-001  -0.000000e+000
    outer loop
      vertex  2.692942e+002  2.957713e+002 -2.147200e+003
      vertex  2.692942e+002  2.957713e+002 -2.343830e+003
      vertex  2.869769e+002  2.786472e+002 -2.343830e+003
    endloop
  endfacet
  facet normal -6.956680e-001 -7.183635e-001  0.000000e+000
    outer loop
      vertex  2.692942e+002  2.957713e+002 -2.147200e+003
      vertex  2.869769e+002  2.786472e+002 -2.343830e+003
      vertex  2.869769e+002  2.786472e+002 -2.147200e+003
    endloop
  endfacet
  facet normal -7.385373e-001 -6.742125e-001  -0.000000e+000
    outer loop
      vertex  2.869769e+002  2.786472e+002 -2.147200e+003
      vertex  2.869769e+002  2.786472e+002 -2.343830e+003
      vertex  3.035728e+002  2.604679e+002 -2.343830e+003
    endloop
  endfacet
  facet normal -7.385373e-001 -6.742125e-001  0.000000e+000
    outer loop
      vertex  2.869769e+002  2.786472e+002 -2.147200e+003
      vertex  3.035728e+002  2.604679e+002 -2.343830e+003
      vertex  3.035728e+002  2.604679e+002 -2.147200e+003
    endloop
  endfacet
  facet normal -7.786084e-001 -6.275101e-001  -0.000000e+000
    outer loop
      vertex  3.035728e+002  2.604679e+002 -2.147200e+003
      vertex  3.035728e+002  2.604679e+002 -2.343830e+003
      vertex  3.190192e+002  2.413022e+002 -2.343830e+003
    endloop
  endfacet
  facet normal -7.786084e-001 -6.275101e-001  0.000000e+000
    outer loop
      vertex  3.035728e+002  2.604679e+002 -2.147200e+003
      vertex  3.190192e+002  2.413022e+002 -2.343830e+003
      vertex  3.190192e+002  2.413022e+002 -2.147200e+003
    endloop
  endfacet
  facet normal -8.157323e-001 -5.784296e-001  -0.000000e+000
    outer loop
      vertex  3.190192e+002  2.413022e+002 -2.147200e+003
      vertex  3.190192e+002  2.413022e+002 -2.343830e+003
      vertex  3.332574e+002  2.212227e+002 -2.343830e+003
    endloop
  endfacet
  facet normal -8.157323e-001 -5.784296e-001  0.000000e+000
    outer loop
      vertex  3.190192e+002  2.413022e+002 -2.147200e+003
      vertex  3.332574e+002  2.212227e+002 -2.343830e+003
      vertex  3.332574e+002  2.212227e+002 -2.147200e+003
    endloop
  endfacet
  facet normal -8.497661e-001 -5.271597e-001  -0.000000e+000
    outer loop
      vertex  3.332574e+002  2.212227e+002 -2.147200e+003
      vertex  3.332574e+002  2.212227e+002 -2.343830e+003
      vertex  3.462336e+002  2.003055e+002 -2.343830e+003
    endloop
  endfacet
  facet normal -8.497661e-001 -5.271597e-001  0.000000e+000
    outer loop
      vertex  3.332574e+002  2.212227e+002 -2.147200e+003
      vertex  3.462336e+002  2.003055e+002 -2.343830e+003
      vertex  3.462336e+002  2.003055e+002 -2.147200e+003
    endloop
  endfacet
  facet normal -8.805820e-001 -4.738937e-001  -0.000000e+000
    outer loop
      vertex  3.462336e+002  2.003055e+002 -2.147200e+003
      vertex  3.462336e+002  2.003055e+002 -2.343830e+003
      vertex  3.578987e+002  1.786297e+002 -2.343830e+003
    endloop
  endfacet
  facet normal -8.805820e-001 -4.738937e-001  0.000000e+000
    outer loop
      vertex  3.462336e+002  2.003055e+002 -2.147200e+003
      vertex  3.578987e+002  1.786297e+002 -2.343830e+003
      vertex  3.578987e+002  1.786297e+002 -2.147200e+003
    endloop
  endfacet
  facet normal -9.080640e-001 -4.188315e-001  -0.000000e+000
    outer loop
      vertex  3.578987e+002  1.786297e+002 -2.147200e+003
      vertex  3.578987e+002  1.786297e+002 -2.343830e+003
      vertex  3.682083e+002  1.562774e+002 -2.343830e+003
    endloop
  endfacet
  facet normal -9.080640e-001 -4.188315e-001  0.000000e+000
    outer loop
      vertex  3.578987e+002  1.786297e+002 -2.147200e+003
      vertex  3.682083e+002  1.562774e+002 -2.343830e+003
      vertex  3.682083e+002  1.562774e+002 -2.147200e+003
    endloop
  endfacet
  facet normal -9.321059e-001 -3.621857e-001  -0.000000e+000
    outer loop
      vertex  3.682083e+002  1.562774e+002 -2.147200e+003
      vertex  3.682083e+002  1.562774e+002 -2.343830e+003
      vertex  3.771236e+002  1.333333e+002 -2.343830e+003
    endloop
  endfacet
  facet normal -9.321059e-001 -3.621857e-001  0.000000e+000
    outer loop
      vertex  3.682083e+002  1.562774e+002 -2.147200e+003
      vertex  3.771236e+002  1.333333e+002 -2.343830e+003
      vertex  3.771236e+002  1.333333e+002 -2.147200e+003
    endloop
  endfacet
endsolid CATIA STL
