solid CATIASTL
 facet normal 1 0 0
  outer loop
   vertex -0.5 0.15 -1.75
   vertex -0.5 0.4 -1.75
   vertex -0.5 0.15 -1.55
  endloop
 endfacet
 facet normal 1 -0 0
  outer loop
   vertex -0.5 0.15 -1.55
   vertex -0.5 0.4 -1.75
   vertex -0.5 0.4 -1.55
  endloop
 endfacet
 facet normal 1 0 0
  outer loop
   vertex -0.5 -0.4 -1.75
   vertex -0.5 -0.15 -1.75
   vertex -0.5 -0.4 -1.55
  endloop
 endfacet
 facet normal 1 -0 0
  outer loop
   vertex -0.5 -0.4 -1.55
   vertex -0.5 -0.15 -1.75
   vertex -0.5 -0.15 -1.55
  endloop
 endfacet
endsolid CATIASTL
