solid CATIA STL
  facet normal -1.000000e+000  0.000000e+000  0.000000e+000
    outer loop
      vertex  5.000000e+002  5.000000e+001 -5.000000e+001
      vertex  5.000000e+002 -5.000000e+001 -5.000000e+001
      vertex  5.000000e+002  5.000000e+001  5.000000e+001
    endloop
  endfacet
  facet normal -1.000000e+000  -0.000000e+000  0.000000e+000
    outer loop
      vertex  5.000000e+002  5.000000e+001  5.000000e+001
      vertex  5.000000e+002 -5.000000e+001 -5.000000e+001
      vertex  5.000000e+002 -5.000000e+001  5.000000e+001
    endloop
  endfacet
endsolid CATIA STL
