solid CATIA STL
  facet normal  1.251442e-001 -9.921386e-001  0.000000e+000
    outer loop
      vertex -3.507363e+001  3.482382e+002 -1.025000e+002
      vertex -5.250000e+001  3.460401e+002  1.025000e+002
      vertex -5.250000e+001  3.460401e+002 -1.025000e+002
    endloop
  endfacet
  facet normal  1.251442e-001 -9.921386e-001  0.000000e+000
    outer loop
      vertex -5.250000e+001  3.460401e+002  1.025000e+002
      vertex -3.507363e+001  3.482382e+002 -1.025000e+002
      vertex -3.507363e+001  3.482382e+002  1.025000e+002
    endloop
  endfacet
  facet normal  7.521301e-002 -9.971675e-001  0.000000e+000
    outer loop
      vertex -3.507363e+001  3.482382e+002  1.025000e+002
      vertex -3.507363e+001  3.482382e+002 -1.025000e+002
      vertex -1.755892e+001  3.495593e+002 -1.025000e+002
    endloop
  endfacet
  facet normal  7.521301e-002 -9.971675e-001  0.000000e+000
    outer loop
      vertex -3.507363e+001  3.482382e+002  1.025000e+002
      vertex -1.755892e+001  3.495593e+002 -1.025000e+002
      vertex -1.755892e+001  3.495593e+002  1.025000e+002
    endloop
  endfacet
  facet normal  2.509243e-002 -9.996852e-001  0.000000e+000
    outer loop
      vertex -1.755892e+001  3.495593e+002  1.025000e+002
      vertex -1.755892e+001  3.495593e+002 -1.025000e+002
      vertex  3.528061e-013  3.500000e+002 -1.025000e+002
    endloop
  endfacet
  facet normal  2.509243e-002 -9.996852e-001  0.000000e+000
    outer loop
      vertex -1.755892e+001  3.495593e+002  1.025000e+002
      vertex  3.528061e-013  3.500000e+002 -1.025000e+002
      vertex  3.528061e-013  3.500000e+002  1.025000e+002
    endloop
  endfacet
endsolid CATIA STL
