solid CATIA STL
  facet normal  5.232771e-001  8.521627e-001  0.000000e+000
    outer loop
      vertex -1.927109e+002 -2.921686e+002 -2.343830e+003
      vertex -1.733911e+002 -3.040321e+002 -2.147200e+003
      vertex -1.733911e+002 -3.040321e+002 -2.343830e+003
    endloop
  endfacet
  facet normal  4.670096e-001  8.842523e-001  -0.000000e+000
    outer loop
      vertex -1.733911e+002 -3.040321e+002 -2.343830e+003
      vertex -1.733911e+002 -3.040321e+002 -2.147200e+003
      vertex -1.533436e+002 -3.146200e+002 -2.147200e+003
    endloop
  endfacet
  facet normal  4.670096e-001  8.842523e-001  0.000000e+000
    outer loop
      vertex -1.733911e+002 -3.040321e+002 -2.343830e+003
      vertex -1.533436e+002 -3.146200e+002 -2.147200e+003
      vertex -1.533436e+002 -3.146200e+002 -2.343830e+003
    endloop
  endfacet
  facet normal  4.087803e-001  9.126329e-001  -0.000000e+000
    outer loop
      vertex -1.533436e+002 -3.146200e+002 -2.343830e+003
      vertex -1.533436e+002 -3.146200e+002 -2.147200e+003
      vertex -1.326528e+002 -3.238877e+002 -2.147200e+003
    endloop
  endfacet
  facet normal  4.087803e-001  9.126329e-001  0.000000e+000
    outer loop
      vertex -1.533436e+002 -3.146200e+002 -2.343830e+003
      vertex -1.326528e+002 -3.238877e+002 -2.147200e+003
      vertex -1.326528e+002 -3.238877e+002 -2.343830e+003
    endloop
  endfacet
  facet normal  3.488369e-001  9.371834e-001  -0.000000e+000
    outer loop
      vertex -1.326528e+002 -3.238877e+002 -2.343830e+003
      vertex -1.326528e+002 -3.238877e+002 -2.147200e+003
      vertex -1.114053e+002 -3.317964e+002 -2.147200e+003
    endloop
  endfacet
  facet normal  3.488369e-001  9.371834e-001  0.000000e+000
    outer loop
      vertex -1.326528e+002 -3.238877e+002 -2.343830e+003
      vertex -1.114053e+002 -3.317964e+002 -2.147200e+003
      vertex -1.114053e+002 -3.317964e+002 -2.343830e+003
    endloop
  endfacet
  facet normal  2.874304e-001  9.578015e-001  -0.000000e+000
    outer loop
      vertex -1.114053e+002 -3.317964e+002 -2.343830e+003
      vertex -1.114053e+002 -3.317964e+002 -2.147200e+003
      vertex -8.969044e+001 -3.383129e+002 -2.147200e+003
    endloop
  endfacet
  facet normal  2.874304e-001  9.578015e-001  0.000000e+000
    outer loop
      vertex -1.114053e+002 -3.317964e+002 -2.343830e+003
      vertex -8.969044e+001 -3.383129e+002 -2.147200e+003
      vertex -8.969044e+001 -3.383129e+002 -2.343830e+003
    endloop
  endfacet
  facet normal  2.248181e-001  9.744008e-001  -0.000000e+000
    outer loop
      vertex -8.969044e+001 -3.383129e+002 -2.343830e+003
      vertex -8.969044e+001 -3.383129e+002 -2.147200e+003
      vertex -6.759921e+001 -3.434099e+002 -2.147200e+003
    endloop
  endfacet
  facet normal  2.248181e-001  9.744008e-001  0.000000e+000
    outer loop
      vertex -8.969044e+001 -3.383129e+002 -2.343830e+003
      vertex -6.759921e+001 -3.434099e+002 -2.147200e+003
      vertex -6.759921e+001 -3.434099e+002 -2.343830e+003
    endloop
  endfacet
  facet normal  1.612606e-001  9.869119e-001  -0.000000e+000
    outer loop
      vertex -6.759921e+001 -3.434099e+002 -2.343830e+003
      vertex -6.759921e+001 -3.434099e+002 -2.147200e+003
      vertex -4.522434e+001 -3.470659e+002 -2.147200e+003
    endloop
  endfacet
  facet normal  1.612606e-001  9.869119e-001  0.000000e+000
    outer loop
      vertex -6.759921e+001 -3.434099e+002 -2.343830e+003
      vertex -4.522434e+001 -3.470659e+002 -2.147200e+003
      vertex -4.522434e+001 -3.470659e+002 -2.343830e+003
    endloop
  endfacet
  facet normal  9.702880e-002  9.952816e-001  -0.000000e+000
    outer loop
      vertex -4.522434e+001 -3.470659e+002 -2.343830e+003
      vertex -4.522434e+001 -3.470659e+002 -2.147200e+003
      vertex -2.265971e+001 -3.492657e+002 -2.147200e+003
    endloop
  endfacet
  facet normal  9.702880e-002  9.952816e-001  0.000000e+000
    outer loop
      vertex -4.522434e+001 -3.470659e+002 -2.343830e+003
      vertex -2.265971e+001 -3.492657e+002 -2.147200e+003
      vertex -2.265971e+001 -3.492657e+002 -2.343830e+003
    endloop
  endfacet
  facet normal  3.238781e-002  9.994754e-001  -0.000000e+000
    outer loop
      vertex -2.265971e+001 -3.492657e+002 -2.343830e+003
      vertex -2.265971e+001 -3.492657e+002 -2.147200e+003
      vertex  2.842171e-014 -3.500000e+002 -2.147200e+003
    endloop
  endfacet
  facet normal  3.238781e-002  9.994754e-001 -1.170366e-017
    outer loop
      vertex -2.265971e+001 -3.492657e+002 -2.343830e+003
      vertex  2.842171e-014 -3.500000e+002 -2.147200e+003
      vertex -4.263256e-014 -3.500000e+002 -2.343830e+003
    endloop
  endfacet
  facet normal  5.232771e-001  8.521627e-001  -0.000000e+000
    outer loop
      vertex -1.733911e+002 -3.040321e+002 -2.147200e+003
      vertex -1.927109e+002 -2.921686e+002 -2.343830e+003
      vertex -1.927109e+002 -2.921686e+002 -2.147200e+003
    endloop
  endfacet
  facet normal  5.773499e-001  8.164969e-001  0.000000e+000
    outer loop
      vertex -1.927109e+002 -2.921686e+002 -2.147200e+003
      vertex -1.927109e+002 -2.921686e+002 -2.343830e+003
      vertex -2.112222e+002 -2.790792e+002 -2.343830e+003
    endloop
  endfacet
  facet normal  5.773499e-001  8.164969e-001  -0.000000e+000
    outer loop
      vertex -1.927109e+002 -2.921686e+002 -2.147200e+003
      vertex -2.112222e+002 -2.790792e+002 -2.343830e+003
      vertex -2.112222e+002 -2.790792e+002 -2.147200e+003
    endloop
  endfacet
  facet normal  6.290013e-001  7.774042e-001  0.000000e+000
    outer loop
      vertex -2.112222e+002 -2.790792e+002 -2.147200e+003
      vertex -2.112222e+002 -2.790792e+002 -2.343830e+003
      vertex -2.288472e+002 -2.648187e+002 -2.343830e+003
    endloop
  endfacet
  facet normal  6.290013e-001  7.774042e-001  -0.000000e+000
    outer loop
      vertex -2.112222e+002 -2.790792e+002 -2.147200e+003
      vertex -2.288472e+002 -2.648187e+002 -2.343830e+003
      vertex -2.288472e+002 -2.648187e+002 -2.147200e+003
    endloop
  endfacet
  facet normal  6.780116e-001  7.350513e-001  0.000000e+000
    outer loop
      vertex -2.288472e+002 -2.648187e+002 -2.147200e+003
      vertex -2.288472e+002 -2.648187e+002 -2.343830e+003
      vertex -2.455120e+002 -2.494471e+002 -2.343830e+003
    endloop
  endfacet
  facet normal  6.780116e-001  7.350513e-001  -0.000000e+000
    outer loop
      vertex -2.288472e+002 -2.648187e+002 -2.147200e+003
      vertex -2.455120e+002 -2.494471e+002 -2.343830e+003
      vertex -2.455120e+002 -2.494471e+002 -2.147200e+003
    endloop
  endfacet
  facet normal  7.241777e-001  6.896133e-001  0.000000e+000
    outer loop
      vertex -2.455120e+002 -2.494471e+002 -2.147200e+003
      vertex -2.455120e+002 -2.494471e+002 -2.343830e+003
      vertex -2.611467e+002 -2.330288e+002 -2.343830e+003
    endloop
  endfacet
  facet normal  7.241777e-001  6.896133e-001  -0.000000e+000
    outer loop
      vertex -2.455120e+002 -2.494471e+002 -2.147200e+003
      vertex -2.611467e+002 -2.330288e+002 -2.343830e+003
      vertex -2.611467e+002 -2.330288e+002 -2.147200e+003
    endloop
  endfacet
  facet normal  7.673059e-001  6.412814e-001  0.000000e+000
    outer loop
      vertex -2.611467e+002 -2.330288e+002 -2.147200e+003
      vertex -2.611467e+002 -2.330288e+002 -2.343830e+003
      vertex -2.756855e+002 -2.156328e+002 -2.343830e+003
    endloop
  endfacet
  facet normal  7.673059e-001  6.412814e-001  -0.000000e+000
    outer loop
      vertex -2.611467e+002 -2.330288e+002 -2.147200e+003
      vertex -2.756855e+002 -2.156328e+002 -2.343830e+003
      vertex -2.756855e+002 -2.156328e+002 -2.147200e+003
    endloop
  endfacet
  facet normal  8.072140e-001  5.902590e-001  0.000000e+000
    outer loop
      vertex -2.756855e+002 -2.156328e+002 -2.147200e+003
      vertex -2.756855e+002 -2.156328e+002 -2.343830e+003
      vertex -2.890677e+002 -1.973319e+002 -2.343830e+003
    endloop
  endfacet
  facet normal  8.072140e-001  5.902590e-001  -0.000000e+000
    outer loop
      vertex -2.756855e+002 -2.156328e+002 -2.147200e+003
      vertex -2.890677e+002 -1.973319e+002 -2.343830e+003
      vertex -2.890677e+002 -1.973319e+002 -2.147200e+003
    endloop
  endfacet
  facet normal  8.437346e-001  5.367604e-001  0.000000e+000
    outer loop
      vertex -2.890677e+002 -1.973319e+002 -2.147200e+003
      vertex -2.890677e+002 -1.973319e+002 -2.343830e+003
      vertex -3.012369e+002 -1.782031e+002 -2.343830e+003
    endloop
  endfacet
  facet normal  8.437346e-001  5.367604e-001  -0.000000e+000
    outer loop
      vertex -2.890677e+002 -1.973319e+002 -2.147200e+003
      vertex -3.012369e+002 -1.782031e+002 -2.343830e+003
      vertex -3.012369e+002 -1.782031e+002 -2.147200e+003
    endloop
  endfacet
  facet normal  8.767158e-001  4.810088e-001  0.000000e+000
    outer loop
      vertex -3.012369e+002 -1.782031e+002 -2.147200e+003
      vertex -3.012369e+002 -1.782031e+002 -2.343830e+003
      vertex -3.121421e+002 -1.583266e+002 -2.343830e+003
    endloop
  endfacet
  facet normal  8.767158e-001  4.810088e-001  -0.000000e+000
    outer loop
      vertex -3.012369e+002 -1.782031e+002 -2.147200e+003
      vertex -3.121421e+002 -1.583266e+002 -2.343830e+003
      vertex -3.121421e+002 -1.583266e+002 -2.147200e+003
    endloop
  endfacet
  facet normal  9.060178e-001  4.232396e-001  0.000000e+000
    outer loop
      vertex -3.121421e+002 -1.583266e+002 -2.147200e+003
      vertex -3.121421e+002 -1.583266e+002 -2.343830e+003
      vertex -3.217376e+002 -1.377857e+002 -2.343830e+003
    endloop
  endfacet
  facet normal  9.060178e-001  4.232396e-001  -0.000000e+000
    outer loop
      vertex -3.121421e+002 -1.583266e+002 -2.147200e+003
      vertex -3.217376e+002 -1.377857e+002 -2.343830e+003
      vertex -3.217376e+002 -1.377857e+002 -2.147200e+003
    endloop
  endfacet
  facet normal  9.315186e-001  3.636936e-001  0.000000e+000
    outer loop
      vertex -3.217376e+002 -1.377857e+002 -2.147200e+003
      vertex -3.217376e+002 -1.377857e+002 -2.343830e+003
      vertex -3.299832e+002 -1.166667e+002 -2.343830e+003
    endloop
  endfacet
  facet normal  9.315186e-001  3.636936e-001  -0.000000e+000
    outer loop
      vertex -3.217376e+002 -1.377857e+002 -2.147200e+003
      vertex -3.299832e+002 -1.166667e+002 -2.343830e+003
      vertex -3.299832e+002 -1.166667e+002 -2.147200e+003
    endloop
  endfacet
endsolid CATIA STL
