solid CATIA STL
  facet normal  9.999999e-001  0.000000e+000  0.000000e+000
    outer loop
      vertex -3.522407e-015  3.500000e+002 -1.153968e+003
      vertex -3.522407e-015  3.500000e+002 -1.193968e+003
      vertex -3.522407e-015  4.348952e+002 -1.153968e+003
    endloop
  endfacet
  facet normal  9.999999e-001  0.000000e+000  0.000000e+000
    outer loop
      vertex -3.522407e-015  4.348952e+002 -1.153968e+003
      vertex -3.522407e-015  3.500000e+002 -1.193968e+003
      vertex -3.522407e-015  4.348952e+002 -1.193968e+003
    endloop
  endfacet
endsolid CATIA STL
