solid CATIASTL
 facet normal 0 1 -0
  outer loop
   vertex -0.15 -0.5 -1.75
   vertex -0.4 -0.5 -1.75
   vertex -0.15 -0.5 -1.55
  endloop
 endfacet
 facet normal 0 1 0
  outer loop
   vertex -0.15 -0.5 -1.55
   vertex -0.4 -0.5 -1.75
   vertex -0.4 -0.5 -1.55
  endloop
 endfacet
 facet normal 0 1 -0
  outer loop
   vertex 0.4 -0.5 -1.75
   vertex 0.15 -0.5 -1.75
   vertex 0.4 -0.5 -1.55
  endloop
 endfacet
 facet normal 0 1 0
  outer loop
   vertex 0.4 -0.5 -1.55
   vertex 0.15 -0.5 -1.75
   vertex 0.15 -0.5 -1.55
  endloop
 endfacet
endsolid CATIASTL
