solid CATIASTL
 facet normal 1 0 -0
  outer loop
   vertex 0.26 0.26 1.44
   vertex 0.26 0.26 1.5
   vertex 0.26 -0.26 1.44
  endloop
 endfacet
 facet normal 1 0 0
  outer loop
   vertex 0.26 -0.26 1.44
   vertex 0.26 0.26 1.5
   vertex 0.26 -0.26 1.5
  endloop
 endfacet
 facet normal 0 -1 0
  outer loop
   vertex 0.26 -0.26 1.44
   vertex 0.26 -0.26 1.5
   vertex -0.26 -0.26 1.44
  endloop
 endfacet
 facet normal 0 -1 0
  outer loop
   vertex -0.26 -0.26 1.44
   vertex 0.26 -0.26 1.5
   vertex -0.26 -0.26 1.5
  endloop
 endfacet
 facet normal -1 0 0
  outer loop
   vertex -0.26 -0.26 1.44
   vertex -0.26 -0.26 1.5
   vertex -0.26 0.26 1.44
  endloop
 endfacet
 facet normal -1 0 0
  outer loop
   vertex -0.26 0.26 1.44
   vertex -0.26 -0.26 1.5
   vertex -0.26 0.26 1.5
  endloop
 endfacet
 facet normal 0 1 0
  outer loop
   vertex -0.26 0.26 1.44
   vertex -0.26 0.26 1.5
   vertex 0.26 0.26 1.44
  endloop
 endfacet
 facet normal 0 1 -0
  outer loop
   vertex 0.26 0.26 1.44
   vertex -0.26 0.26 1.5
   vertex 0.26 0.26 1.5
  endloop
 endfacet
 facet normal -0 0 1
  outer loop
   vertex -0.26 0.26 1.44
   vertex -0.26 -0.26 1.44
   vertex 0.26 0.26 1.44
  endloop
 endfacet
 facet normal 0 0 1
  outer loop
   vertex 0.26 0.26 1.44
   vertex -0.26 -0.26 1.44
   vertex 0.26 -0.26 1.44
  endloop
 endfacet
 facet normal 0 0 -1
  outer loop
   vertex -0.26 -0.26 1.5
   vertex -0.26 0.26 1.5
   vertex 0.26 -0.26 1.5
  endloop
 endfacet
 facet normal 0 0 -1
  outer loop
   vertex 0.26 -0.26 1.5
   vertex -0.26 0.26 1.5
   vertex 0.26 0.26 1.5
  endloop
 endfacet
endsolid CATIASTL
