solid CATIA STL
  facet normal  1.000000e+000  0.000000e+000  0.000000e+000
    outer loop
      vertex  2.500000e+002 -2.500000e+002  1.750000e+003
      vertex  2.500000e+002  2.500000e+002  1.750000e+003
      vertex  2.500000e+002 -2.500000e+002  2.916667e+003
    endloop
  endfacet
  facet normal  1.000000e+000  -0.000000e+000  0.000000e+000
    outer loop
      vertex  2.500000e+002 -2.500000e+002  2.916667e+003
      vertex  2.500000e+002  2.500000e+002  1.750000e+003
      vertex  2.500000e+002  2.500000e+002  2.916667e+003
    endloop
  endfacet
  facet normal  0.000000e+000  1.000000e+000  0.000000e+000
    outer loop
      vertex  2.500000e+002  2.500000e+002  1.750000e+003
      vertex -2.500000e+002  2.500000e+002  1.750000e+003
      vertex  2.500000e+002  2.500000e+002  2.916667e+003
    endloop
  endfacet
  facet normal  0.000000e+000  1.000000e+000  0.000000e+000
    outer loop
      vertex  2.500000e+002  2.500000e+002  2.916667e+003
      vertex -2.500000e+002  2.500000e+002  1.750000e+003
      vertex -2.500000e+002  2.500000e+002  2.916667e+003
    endloop
  endfacet
  facet normal -1.000000e+000  0.000000e+000  0.000000e+000
    outer loop
      vertex -2.500000e+002  2.500000e+002  1.750000e+003
      vertex -2.500000e+002 -2.500000e+002  1.750000e+003
      vertex -2.500000e+002  2.500000e+002  2.916667e+003
    endloop
  endfacet
  facet normal -1.000000e+000  -0.000000e+000  0.000000e+000
    outer loop
      vertex -2.500000e+002  2.500000e+002  2.916667e+003
      vertex -2.500000e+002 -2.500000e+002  1.750000e+003
      vertex -2.500000e+002 -2.500000e+002  2.916667e+003
    endloop
  endfacet
  facet normal  0.000000e+000 -1.000000e+000  0.000000e+000
    outer loop
      vertex -2.500000e+002 -2.500000e+002  1.750000e+003
      vertex  2.500000e+002 -2.500000e+002  1.750000e+003
      vertex -2.500000e+002 -2.500000e+002  2.916667e+003
    endloop
  endfacet
  facet normal  0.000000e+000 -1.000000e+000  0.000000e+000
    outer loop
      vertex -2.500000e+002 -2.500000e+002  2.916667e+003
      vertex  2.500000e+002 -2.500000e+002  1.750000e+003
      vertex  2.500000e+002 -2.500000e+002  2.916667e+003
    endloop
  endfacet
  facet normal  0.000000e+000  0.000000e+000  1.000000e+000
    outer loop
      vertex  5.000000e+002 -5.000000e+002  1.750000e+003
      vertex -2.500000e+002 -2.500000e+002  1.750000e+003
      vertex -5.000000e+002 -5.000000e+002  1.750000e+003
    endloop
  endfacet
  facet normal  0.000000e+000  0.000000e+000  1.000000e+000
    outer loop
      vertex -5.000000e+002 -5.000000e+002  1.750000e+003
      vertex -2.500000e+002 -2.500000e+002  1.750000e+003
      vertex -2.500000e+002  2.500000e+002  1.750000e+003
    endloop
  endfacet
  facet normal  0.000000e+000  0.000000e+000  1.000000e+000
    outer loop
      vertex -5.000000e+002 -5.000000e+002  1.750000e+003
      vertex -2.500000e+002  2.500000e+002  1.750000e+003
      vertex -5.000000e+002  5.000000e+002  1.750000e+003
    endloop
  endfacet
  facet normal  0.000000e+000  0.000000e+000  1.000000e+000
    outer loop
      vertex -2.500000e+002 -2.500000e+002  1.750000e+003
      vertex  5.000000e+002 -5.000000e+002  1.750000e+003
      vertex  2.500000e+002 -2.500000e+002  1.750000e+003
    endloop
  endfacet
  facet normal  -0.000000e+000  0.000000e+000  1.000000e+000
    outer loop
      vertex  2.500000e+002 -2.500000e+002  1.750000e+003
      vertex  5.000000e+002 -5.000000e+002  1.750000e+003
      vertex  5.000000e+002  5.000000e+002  1.750000e+003
    endloop
  endfacet
  facet normal  0.000000e+000  0.000000e+000  1.000000e+000
    outer loop
      vertex  2.500000e+002 -2.500000e+002  1.750000e+003
      vertex  5.000000e+002  5.000000e+002  1.750000e+003
      vertex  2.500000e+002  2.500000e+002  1.750000e+003
    endloop
  endfacet
  facet normal  0.000000e+000  -0.000000e+000  1.000000e+000
    outer loop
      vertex  2.500000e+002  2.500000e+002  1.750000e+003
      vertex  5.000000e+002  5.000000e+002  1.750000e+003
      vertex -5.000000e+002  5.000000e+002  1.750000e+003
    endloop
  endfacet
  facet normal  0.000000e+000  0.000000e+000  1.000000e+000
    outer loop
      vertex  2.500000e+002  2.500000e+002  1.750000e+003
      vertex -5.000000e+002  5.000000e+002  1.750000e+003
      vertex -2.500000e+002  2.500000e+002  1.750000e+003
    endloop
  endfacet
  facet normal  0.000000e+000  1.000000e+000  -0.000000e+000
    outer loop
      vertex  4.000000e+002 -5.000000e+002 -1.550000e+003
      vertex  1.500000e+002 -5.000000e+002 -1.550000e+003
      vertex  5.000000e+001 -5.000000e+002 -5.000000e+001
    endloop
  endfacet
  facet normal  -0.000000e+000  1.000000e+000  0.000000e+000
    outer loop
      vertex  4.000000e+002 -5.000000e+002 -1.550000e+003
      vertex  5.000000e+001 -5.000000e+002 -5.000000e+001
      vertex  5.000000e+001 -5.000000e+002  5.000000e+001
    endloop
  endfacet
  facet normal  -0.000000e+000  1.000000e+000  0.000000e+000
    outer loop
      vertex  4.000000e+002 -5.000000e+002 -1.550000e+003
      vertex  5.000000e+001 -5.000000e+002  5.000000e+001
      vertex  5.000000e+002 -5.000000e+002  1.750000e+003
    endloop
  endfacet
  facet normal  0.000000e+000  1.000000e+000  0.000000e+000
    outer loop
      vertex  4.000000e+002 -5.000000e+002 -1.550000e+003
      vertex  5.000000e+002 -5.000000e+002  1.750000e+003
      vertex  5.000000e+002 -5.000000e+002 -1.750000e+003
    endloop
  endfacet
  facet normal  0.000000e+000  1.000000e+000  0.000000e+000
    outer loop
      vertex  4.000000e+002 -5.000000e+002 -1.550000e+003
      vertex  5.000000e+002 -5.000000e+002 -1.750000e+003
      vertex  4.000000e+002 -5.000000e+002 -1.750000e+003
    endloop
  endfacet
  facet normal  0.000000e+000  1.000000e+000  0.000000e+000
    outer loop
      vertex -1.500000e+002 -5.000000e+002 -1.750000e+003
      vertex -1.500000e+002 -5.000000e+002 -1.550000e+003
      vertex  1.500000e+002 -5.000000e+002 -1.750000e+003
    endloop
  endfacet
  facet normal  0.000000e+000  1.000000e+000  0.000000e+000
    outer loop
      vertex  1.500000e+002 -5.000000e+002 -1.750000e+003
      vertex -1.500000e+002 -5.000000e+002 -1.550000e+003
      vertex -5.000000e+001 -5.000000e+002 -5.000000e+001
    endloop
  endfacet
  facet normal  0.000000e+000  1.000000e+000  0.000000e+000
    outer loop
      vertex  1.500000e+002 -5.000000e+002 -1.750000e+003
      vertex -5.000000e+001 -5.000000e+002 -5.000000e+001
      vertex  1.500000e+002 -5.000000e+002 -1.550000e+003
    endloop
  endfacet
  facet normal  0.000000e+000  1.000000e+000  0.000000e+000
    outer loop
      vertex  1.500000e+002 -5.000000e+002 -1.550000e+003
      vertex -5.000000e+001 -5.000000e+002 -5.000000e+001
      vertex  5.000000e+001 -5.000000e+002 -5.000000e+001
    endloop
  endfacet
  facet normal  0.000000e+000  1.000000e+000  -0.000000e+000
    outer loop
      vertex  5.000000e+002 -5.000000e+002  1.750000e+003
      vertex  5.000000e+001 -5.000000e+002  5.000000e+001
      vertex -5.000000e+002 -5.000000e+002  1.750000e+003
    endloop
  endfacet
  facet normal  0.000000e+000  1.000000e+000  0.000000e+000
    outer loop
      vertex -5.000000e+002 -5.000000e+002  1.750000e+003
      vertex  5.000000e+001 -5.000000e+002  5.000000e+001
      vertex -5.000000e+001 -5.000000e+002  5.000000e+001
    endloop
  endfacet
  facet normal  0.000000e+000  1.000000e+000  0.000000e+000
    outer loop
      vertex -5.000000e+002 -5.000000e+002  1.750000e+003
      vertex -5.000000e+001 -5.000000e+002  5.000000e+001
      vertex -4.000000e+002 -5.000000e+002 -1.550000e+003
    endloop
  endfacet
  facet normal  0.000000e+000  1.000000e+000  0.000000e+000
    outer loop
      vertex -4.000000e+002 -5.000000e+002 -1.550000e+003
      vertex -5.000000e+001 -5.000000e+002  5.000000e+001
      vertex -5.000000e+001 -5.000000e+002 -5.000000e+001
    endloop
  endfacet
  facet normal  0.000000e+000  1.000000e+000  0.000000e+000
    outer loop
      vertex -4.000000e+002 -5.000000e+002 -1.550000e+003
      vertex -5.000000e+001 -5.000000e+002 -5.000000e+001
      vertex -1.500000e+002 -5.000000e+002 -1.550000e+003
    endloop
  endfacet
  facet normal  0.000000e+000  1.000000e+000  -0.000000e+000
    outer loop
      vertex -4.000000e+002 -5.000000e+002 -1.550000e+003
      vertex -4.000000e+002 -5.000000e+002 -1.750000e+003
      vertex -5.000000e+002 -5.000000e+002  1.750000e+003
    endloop
  endfacet
  facet normal  0.000000e+000  1.000000e+000  0.000000e+000
    outer loop
      vertex -5.000000e+002 -5.000000e+002  1.750000e+003
      vertex -4.000000e+002 -5.000000e+002 -1.750000e+003
      vertex -5.000000e+002 -5.000000e+002 -1.750000e+003
    endloop
  endfacet
  facet normal  1.000000e+000  0.000000e+000  -0.000000e+000
    outer loop
      vertex -5.000000e+002 -4.000000e+002 -1.550000e+003
      vertex -5.000000e+002 -1.500000e+002 -1.550000e+003
      vertex -5.000000e+002 -5.000000e+001 -5.000000e+001
    endloop
  endfacet
  facet normal  1.000000e+000  0.000000e+000  -0.000000e+000
    outer loop
      vertex -5.000000e+002 -4.000000e+002 -1.550000e+003
      vertex -5.000000e+002 -5.000000e+001 -5.000000e+001
      vertex -5.000000e+002 -5.000000e+001  5.000000e+001
    endloop
  endfacet
  facet normal  1.000000e+000  0.000000e+000  0.000000e+000
    outer loop
      vertex -5.000000e+002 -4.000000e+002 -1.550000e+003
      vertex -5.000000e+002 -5.000000e+001  5.000000e+001
      vertex -5.000000e+002 -5.000000e+002  1.750000e+003
    endloop
  endfacet
  facet normal  1.000000e+000  0.000000e+000  0.000000e+000
    outer loop
      vertex -5.000000e+002 -4.000000e+002 -1.550000e+003
      vertex -5.000000e+002 -5.000000e+002  1.750000e+003
      vertex -5.000000e+002 -5.000000e+002 -1.750000e+003
    endloop
  endfacet
  facet normal  1.000000e+000  0.000000e+000  0.000000e+000
    outer loop
      vertex -5.000000e+002 -4.000000e+002 -1.550000e+003
      vertex -5.000000e+002 -5.000000e+002 -1.750000e+003
      vertex -5.000000e+002 -4.000000e+002 -1.750000e+003
    endloop
  endfacet
  facet normal  1.000000e+000  0.000000e+000  0.000000e+000
    outer loop
      vertex -5.000000e+002  1.500000e+002 -1.750000e+003
      vertex -5.000000e+002  1.500000e+002 -1.550000e+003
      vertex -5.000000e+002 -1.500000e+002 -1.750000e+003
    endloop
  endfacet
  facet normal  1.000000e+000  0.000000e+000  0.000000e+000
    outer loop
      vertex -5.000000e+002 -1.500000e+002 -1.750000e+003
      vertex -5.000000e+002  1.500000e+002 -1.550000e+003
      vertex -5.000000e+002  5.000000e+001 -5.000000e+001
    endloop
  endfacet
  facet normal  1.000000e+000  0.000000e+000  0.000000e+000
    outer loop
      vertex -5.000000e+002 -1.500000e+002 -1.750000e+003
      vertex -5.000000e+002  5.000000e+001 -5.000000e+001
      vertex -5.000000e+002 -1.500000e+002 -1.550000e+003
    endloop
  endfacet
  facet normal  1.000000e+000  0.000000e+000  0.000000e+000
    outer loop
      vertex -5.000000e+002 -1.500000e+002 -1.550000e+003
      vertex -5.000000e+002  5.000000e+001 -5.000000e+001
      vertex -5.000000e+002 -5.000000e+001 -5.000000e+001
    endloop
  endfacet
  facet normal  1.000000e+000  0.000000e+000  -0.000000e+000
    outer loop
      vertex -5.000000e+002 -5.000000e+002  1.750000e+003
      vertex -5.000000e+002 -5.000000e+001  5.000000e+001
      vertex -5.000000e+002  5.000000e+002  1.750000e+003
    endloop
  endfacet
  facet normal  1.000000e+000  0.000000e+000  0.000000e+000
    outer loop
      vertex -5.000000e+002  5.000000e+002  1.750000e+003
      vertex -5.000000e+002 -5.000000e+001  5.000000e+001
      vertex -5.000000e+002  5.000000e+001  5.000000e+001
    endloop
  endfacet
  facet normal  1.000000e+000  -0.000000e+000  0.000000e+000
    outer loop
      vertex -5.000000e+002  5.000000e+002  1.750000e+003
      vertex -5.000000e+002  5.000000e+001  5.000000e+001
      vertex -5.000000e+002  4.000000e+002 -1.550000e+003
    endloop
  endfacet
  facet normal  1.000000e+000  0.000000e+000  0.000000e+000
    outer loop
      vertex -5.000000e+002  4.000000e+002 -1.550000e+003
      vertex -5.000000e+002  5.000000e+001  5.000000e+001
      vertex -5.000000e+002  5.000000e+001 -5.000000e+001
    endloop
  endfacet
  facet normal  1.000000e+000  0.000000e+000  0.000000e+000
    outer loop
      vertex -5.000000e+002  4.000000e+002 -1.550000e+003
      vertex -5.000000e+002  5.000000e+001 -5.000000e+001
      vertex -5.000000e+002  1.500000e+002 -1.550000e+003
    endloop
  endfacet
  facet normal  1.000000e+000  0.000000e+000  0.000000e+000
    outer loop
      vertex -5.000000e+002  4.000000e+002 -1.550000e+003
      vertex -5.000000e+002  4.000000e+002 -1.750000e+003
      vertex -5.000000e+002  5.000000e+002  1.750000e+003
    endloop
  endfacet
  facet normal  1.000000e+000  0.000000e+000  0.000000e+000
    outer loop
      vertex -5.000000e+002  5.000000e+002  1.750000e+003
      vertex -5.000000e+002  4.000000e+002 -1.750000e+003
      vertex -5.000000e+002  5.000000e+002 -1.750000e+003
    endloop
  endfacet
  facet normal  0.000000e+000 -1.000000e+000  0.000000e+000
    outer loop
      vertex -4.000000e+002  5.000000e+002 -1.550000e+003
      vertex -1.500000e+002  5.000000e+002 -1.550000e+003
      vertex -5.000000e+001  5.000000e+002 -5.000000e+001
    endloop
  endfacet
  facet normal  -0.000000e+000 -1.000000e+000  0.000000e+000
    outer loop
      vertex -4.000000e+002  5.000000e+002 -1.550000e+003
      vertex -5.000000e+001  5.000000e+002 -5.000000e+001
      vertex -5.000000e+001  5.000000e+002  5.000000e+001
    endloop
  endfacet
  facet normal  -0.000000e+000 -1.000000e+000  0.000000e+000
    outer loop
      vertex -4.000000e+002  5.000000e+002 -1.550000e+003
      vertex -5.000000e+001  5.000000e+002  5.000000e+001
      vertex -5.000000e+002  5.000000e+002  1.750000e+003
    endloop
  endfacet
  facet normal  0.000000e+000 -1.000000e+000  0.000000e+000
    outer loop
      vertex -4.000000e+002  5.000000e+002 -1.550000e+003
      vertex -5.000000e+002  5.000000e+002  1.750000e+003
      vertex -5.000000e+002  5.000000e+002 -1.750000e+003
    endloop
  endfacet
  facet normal  0.000000e+000 -1.000000e+000  0.000000e+000
    outer loop
      vertex -4.000000e+002  5.000000e+002 -1.550000e+003
      vertex -5.000000e+002  5.000000e+002 -1.750000e+003
      vertex -4.000000e+002  5.000000e+002 -1.750000e+003
    endloop
  endfacet
  facet normal  0.000000e+000 -1.000000e+000  -0.000000e+000
    outer loop
      vertex  1.500000e+002  5.000000e+002 -1.750000e+003
      vertex  1.500000e+002  5.000000e+002 -1.550000e+003
      vertex -1.500000e+002  5.000000e+002 -1.750000e+003
    endloop
  endfacet
  facet normal  0.000000e+000 -1.000000e+000  0.000000e+000
    outer loop
      vertex -1.500000e+002  5.000000e+002 -1.750000e+003
      vertex  1.500000e+002  5.000000e+002 -1.550000e+003
      vertex  5.000000e+001  5.000000e+002 -5.000000e+001
    endloop
  endfacet
  facet normal  0.000000e+000 -1.000000e+000  0.000000e+000
    outer loop
      vertex -1.500000e+002  5.000000e+002 -1.750000e+003
      vertex  5.000000e+001  5.000000e+002 -5.000000e+001
      vertex -1.500000e+002  5.000000e+002 -1.550000e+003
    endloop
  endfacet
  facet normal  0.000000e+000 -1.000000e+000  0.000000e+000
    outer loop
      vertex -1.500000e+002  5.000000e+002 -1.550000e+003
      vertex  5.000000e+001  5.000000e+002 -5.000000e+001
      vertex -5.000000e+001  5.000000e+002 -5.000000e+001
    endloop
  endfacet
  facet normal  0.000000e+000 -1.000000e+000  0.000000e+000
    outer loop
      vertex -5.000000e+002  5.000000e+002  1.750000e+003
      vertex -5.000000e+001  5.000000e+002  5.000000e+001
      vertex  5.000000e+002  5.000000e+002  1.750000e+003
    endloop
  endfacet
  facet normal  0.000000e+000 -1.000000e+000  0.000000e+000
    outer loop
      vertex  5.000000e+002  5.000000e+002  1.750000e+003
      vertex -5.000000e+001  5.000000e+002  5.000000e+001
      vertex  5.000000e+001  5.000000e+002  5.000000e+001
    endloop
  endfacet
  facet normal  0.000000e+000 -1.000000e+000  0.000000e+000
    outer loop
      vertex  5.000000e+002  5.000000e+002  1.750000e+003
      vertex  5.000000e+001  5.000000e+002  5.000000e+001
      vertex  4.000000e+002  5.000000e+002 -1.550000e+003
    endloop
  endfacet
  facet normal  0.000000e+000 -1.000000e+000  0.000000e+000
    outer loop
      vertex  4.000000e+002  5.000000e+002 -1.550000e+003
      vertex  5.000000e+001  5.000000e+002  5.000000e+001
      vertex  5.000000e+001  5.000000e+002 -5.000000e+001
    endloop
  endfacet
  facet normal  0.000000e+000 -1.000000e+000  0.000000e+000
    outer loop
      vertex  4.000000e+002  5.000000e+002 -1.550000e+003
      vertex  5.000000e+001  5.000000e+002 -5.000000e+001
      vertex  1.500000e+002  5.000000e+002 -1.550000e+003
    endloop
  endfacet
  facet normal  0.000000e+000 -1.000000e+000  0.000000e+000
    outer loop
      vertex  4.000000e+002  5.000000e+002 -1.550000e+003
      vertex  4.000000e+002  5.000000e+002 -1.750000e+003
      vertex  5.000000e+002  5.000000e+002  1.750000e+003
    endloop
  endfacet
  facet normal  0.000000e+000 -1.000000e+000  -0.000000e+000
    outer loop
      vertex  5.000000e+002  5.000000e+002  1.750000e+003
      vertex  4.000000e+002  5.000000e+002 -1.750000e+003
      vertex  5.000000e+002  5.000000e+002 -1.750000e+003
    endloop
  endfacet
  facet normal -1.000000e+000  0.000000e+000  0.000000e+000
    outer loop
      vertex  5.000000e+002  4.000000e+002 -1.550000e+003
      vertex  5.000000e+002  1.500000e+002 -1.550000e+003
      vertex  5.000000e+002  5.000000e+001 -5.000000e+001
    endloop
  endfacet
  facet normal -1.000000e+000  0.000000e+000  0.000000e+000
    outer loop
      vertex  5.000000e+002  4.000000e+002 -1.550000e+003
      vertex  5.000000e+002  5.000000e+001 -5.000000e+001
      vertex  5.000000e+002  5.000000e+001  5.000000e+001
    endloop
  endfacet
  facet normal -1.000000e+000  0.000000e+000  0.000000e+000
    outer loop
      vertex  5.000000e+002  4.000000e+002 -1.550000e+003
      vertex  5.000000e+002  5.000000e+001  5.000000e+001
      vertex  5.000000e+002  5.000000e+002  1.750000e+003
    endloop
  endfacet
  facet normal -1.000000e+000  0.000000e+000  -0.000000e+000
    outer loop
      vertex  5.000000e+002  4.000000e+002 -1.550000e+003
      vertex  5.000000e+002  5.000000e+002  1.750000e+003
      vertex  5.000000e+002  5.000000e+002 -1.750000e+003
    endloop
  endfacet
  facet normal -1.000000e+000  0.000000e+000  0.000000e+000
    outer loop
      vertex  5.000000e+002  4.000000e+002 -1.550000e+003
      vertex  5.000000e+002  5.000000e+002 -1.750000e+003
      vertex  5.000000e+002  4.000000e+002 -1.750000e+003
    endloop
  endfacet
  facet normal -1.000000e+000  0.000000e+000  0.000000e+000
    outer loop
      vertex  5.000000e+002 -1.500000e+002 -1.750000e+003
      vertex  5.000000e+002 -1.500000e+002 -1.550000e+003
      vertex  5.000000e+002  1.500000e+002 -1.750000e+003
    endloop
  endfacet
  facet normal -1.000000e+000  0.000000e+000  0.000000e+000
    outer loop
      vertex  5.000000e+002  1.500000e+002 -1.750000e+003
      vertex  5.000000e+002 -1.500000e+002 -1.550000e+003
      vertex  5.000000e+002 -5.000000e+001 -5.000000e+001
    endloop
  endfacet
  facet normal -1.000000e+000  0.000000e+000  0.000000e+000
    outer loop
      vertex  5.000000e+002  1.500000e+002 -1.750000e+003
      vertex  5.000000e+002 -5.000000e+001 -5.000000e+001
      vertex  5.000000e+002  1.500000e+002 -1.550000e+003
    endloop
  endfacet
  facet normal -1.000000e+000  0.000000e+000  0.000000e+000
    outer loop
      vertex  5.000000e+002  1.500000e+002 -1.550000e+003
      vertex  5.000000e+002 -5.000000e+001 -5.000000e+001
      vertex  5.000000e+002  5.000000e+001 -5.000000e+001
    endloop
  endfacet
  facet normal -1.000000e+000  0.000000e+000  0.000000e+000
    outer loop
      vertex  5.000000e+002  5.000000e+002  1.750000e+003
      vertex  5.000000e+002  5.000000e+001  5.000000e+001
      vertex  5.000000e+002 -5.000000e+002  1.750000e+003
    endloop
  endfacet
  facet normal -1.000000e+000  0.000000e+000  0.000000e+000
    outer loop
      vertex  5.000000e+002 -5.000000e+002  1.750000e+003
      vertex  5.000000e+002  5.000000e+001  5.000000e+001
      vertex  5.000000e+002 -5.000000e+001  5.000000e+001
    endloop
  endfacet
  facet normal -1.000000e+000  -0.000000e+000  0.000000e+000
    outer loop
      vertex  5.000000e+002 -5.000000e+002  1.750000e+003
      vertex  5.000000e+002 -5.000000e+001  5.000000e+001
      vertex  5.000000e+002 -4.000000e+002 -1.550000e+003
    endloop
  endfacet
  facet normal -1.000000e+000  0.000000e+000  0.000000e+000
    outer loop
      vertex  5.000000e+002 -4.000000e+002 -1.550000e+003
      vertex  5.000000e+002 -5.000000e+001  5.000000e+001
      vertex  5.000000e+002 -5.000000e+001 -5.000000e+001
    endloop
  endfacet
  facet normal -1.000000e+000  0.000000e+000  0.000000e+000
    outer loop
      vertex  5.000000e+002 -4.000000e+002 -1.550000e+003
      vertex  5.000000e+002 -5.000000e+001 -5.000000e+001
      vertex  5.000000e+002 -1.500000e+002 -1.550000e+003
    endloop
  endfacet
  facet normal -1.000000e+000  0.000000e+000  0.000000e+000
    outer loop
      vertex  5.000000e+002 -4.000000e+002 -1.550000e+003
      vertex  5.000000e+002 -4.000000e+002 -1.750000e+003
      vertex  5.000000e+002 -5.000000e+002  1.750000e+003
    endloop
  endfacet
  facet normal -1.000000e+000  0.000000e+000  0.000000e+000
    outer loop
      vertex  5.000000e+002 -5.000000e+002  1.750000e+003
      vertex  5.000000e+002 -4.000000e+002 -1.750000e+003
      vertex  5.000000e+002 -5.000000e+002 -1.750000e+003
    endloop
  endfacet
endsolid CATIA STL
