solid CATIA STL
  facet normal  -0.000000e+000  0.000000e+000  1.000000e+000
    outer loop
      vertex  7.768114e+000  1.531741e+002  5.977740e+002
      vertex -7.768114e+000  1.531741e+002  5.977740e+002
      vertex  2.322463e+001  1.516024e+002  5.977740e+002
    endloop
  endfacet
  facet normal  0.000000e+000  0.000000e+000  1.000000e+000
    outer loop
      vertex  2.322463e+001  1.516024e+002  5.977740e+002
      vertex -7.768114e+000  1.531741e+002  5.977740e+002
      vertex -2.322463e+001  1.516024e+002  5.977740e+002
    endloop
  endfacet
  facet normal  -0.000000e+000  0.000000e+000  1.000000e+000
    outer loop
      vertex  2.322463e+001  1.516024e+002  5.977740e+002
      vertex -2.322463e+001  1.516024e+002  5.977740e+002
      vertex  3.844283e+001  1.484750e+002  5.977740e+002
    endloop
  endfacet
  facet normal  0.000000e+000  0.000000e+000  9.999999e-001
    outer loop
      vertex  3.844283e+001  1.484750e+002  5.977740e+002
      vertex -2.322463e+001  1.516024e+002  5.977740e+002
      vertex -3.844283e+001  1.484750e+002  5.977740e+002
    endloop
  endfacet
  facet normal  -0.000000e+000  0.000000e+000  1.000000e+000
    outer loop
      vertex  3.844283e+001  1.484750e+002  5.977740e+002
      vertex -3.844283e+001  1.484750e+002  5.977740e+002
      vertex  5.326656e+001  1.438240e+002  5.977740e+002
    endloop
  endfacet
  facet normal  0.000000e+000  0.000000e+000  1.000000e+000
    outer loop
      vertex  5.326656e+001  1.438240e+002  5.977740e+002
      vertex -3.844283e+001  1.484750e+002  5.977740e+002
      vertex -5.326656e+001  1.438240e+002  5.977740e+002
    endloop
  endfacet
  facet normal  -0.000000e+000  0.000000e+000  1.000000e+000
    outer loop
      vertex  5.326656e+001  1.438240e+002  5.977740e+002
      vertex -5.326656e+001  1.438240e+002  5.977740e+002
      vertex  6.754369e+001  1.376972e+002  5.977740e+002
    endloop
  endfacet
  facet normal  0.000000e+000  0.000000e+000  1.000000e+000
    outer loop
      vertex  6.754369e+001  1.376972e+002  5.977740e+002
      vertex -5.326656e+001  1.438240e+002  5.977740e+002
      vertex -6.754369e+001  1.376972e+002  5.977740e+002
    endloop
  endfacet
  facet normal  -0.000000e+000  0.000000e+000  1.000000e+000
    outer loop
      vertex  6.754369e+001  1.376972e+002  5.977740e+002
      vertex -6.754369e+001  1.376972e+002  5.977740e+002
      vertex  8.112774e+001  1.301574e+002  5.977740e+002
    endloop
  endfacet
  facet normal  0.000000e+000  0.000000e+000  1.000000e+000
    outer loop
      vertex  8.112774e+001  1.301574e+002  5.977740e+002
      vertex -6.754369e+001  1.376972e+002  5.977740e+002
      vertex -8.112774e+001  1.301574e+002  5.977740e+002
    endloop
  endfacet
  facet normal  -0.000000e+000  0.000000e+000  1.000000e+000
    outer loop
      vertex  8.112774e+001  1.301574e+002  5.977740e+002
      vertex -8.112774e+001  1.301574e+002  5.977740e+002
      vertex  9.387930e+001  1.212821e+002  5.977740e+002
    endloop
  endfacet
  facet normal  0.000000e+000  0.000000e+000  1.000000e+000
    outer loop
      vertex  9.387930e+001  1.212821e+002  5.977740e+002
      vertex -8.112774e+001  1.301574e+002  5.977740e+002
      vertex -9.387930e+001  1.212821e+002  5.977740e+002
    endloop
  endfacet
  facet normal  -0.000000e+000  0.000000e+000  1.000000e+000
    outer loop
      vertex  9.387930e+001  1.212821e+002  5.977740e+002
      vertex -9.387930e+001  1.212821e+002  5.977740e+002
      vertex  1.056675e+002  1.111622e+002  5.977740e+002
    endloop
  endfacet
  facet normal  0.000000e+000  0.000000e+000  1.000000e+000
    outer loop
      vertex  1.056675e+002  1.111622e+002  5.977740e+002
      vertex -9.387930e+001  1.212821e+002  5.977740e+002
      vertex -1.056675e+002  1.111622e+002  5.977740e+002
    endloop
  endfacet
  facet normal  -0.000000e+000  0.000000e+000  1.000000e+000
    outer loop
      vertex  1.056675e+002  1.111622e+002  5.977740e+002
      vertex -1.056675e+002  1.111622e+002  5.977740e+002
      vertex  1.163715e+002  9.990165e+001  5.977740e+002
    endloop
  endfacet
  facet normal  0.000000e+000  0.000000e+000  1.000000e+000
    outer loop
      vertex  1.163715e+002  9.990165e+001  5.977740e+002
      vertex -1.056675e+002  1.111622e+002  5.977740e+002
      vertex -1.163715e+002  9.990165e+001  5.977740e+002
    endloop
  endfacet
  facet normal  -0.000000e+000  0.000000e+000  9.999999e-001
    outer loop
      vertex  1.163715e+002  9.990165e+001  5.977740e+002
      vertex -1.163715e+002  9.990165e+001  5.977740e+002
      vertex  1.258813e+002  8.761597e+001  5.977740e+002
    endloop
  endfacet
  facet normal  0.000000e+000  0.000000e+000  1.000000e+000
    outer loop
      vertex  1.258813e+002  8.761597e+001  5.977740e+002
      vertex -1.163715e+002  9.990165e+001  5.977740e+002
      vertex -1.258813e+002  8.761597e+001  5.977740e+002
    endloop
  endfacet
  facet normal  -0.000000e+000  0.000000e+000  1.000000e+000
    outer loop
      vertex  1.258813e+002  8.761597e+001  5.977740e+002
      vertex -1.258813e+002  8.761597e+001  5.977740e+002
      vertex  1.340994e+002  7.443124e+001  5.977740e+002
    endloop
  endfacet
  facet normal  0.000000e+000  0.000000e+000  1.000000e+000
    outer loop
      vertex  1.340994e+002  7.443124e+001  5.977740e+002
      vertex -1.258813e+002  8.761597e+001  5.977740e+002
      vertex -1.340994e+002  7.443124e+001  5.977740e+002
    endloop
  endfacet
  facet normal  -0.000000e+000  0.000000e+000  9.999999e-001
    outer loop
      vertex  1.340994e+002  7.443124e+001  5.977740e+002
      vertex -1.340994e+002  7.443124e+001  5.977740e+002
      vertex  1.409415e+002  6.048275e+001  5.977740e+002
    endloop
  endfacet
  facet normal  0.000000e+000  0.000000e+000  1.000000e+000
    outer loop
      vertex  1.409415e+002  6.048275e+001  5.977740e+002
      vertex -1.340994e+002  7.443124e+001  5.977740e+002
      vertex -1.409415e+002  6.048275e+001  5.977740e+002
    endloop
  endfacet
  facet normal  -0.000000e+000  0.000000e+000  1.000000e+000
    outer loop
      vertex  1.409415e+002  6.048275e+001  5.977740e+002
      vertex -1.409415e+002  6.048275e+001  5.977740e+002
      vertex  1.463373e+002  4.591362e+001  5.977740e+002
    endloop
  endfacet
  facet normal  0.000000e+000  0.000000e+000  1.000000e+000
    outer loop
      vertex  1.463373e+002  4.591362e+001  5.977740e+002
      vertex -1.409415e+002  6.048275e+001  5.977740e+002
      vertex -1.463373e+002  4.591362e+001  5.977740e+002
    endloop
  endfacet
  facet normal  -0.000000e+000  0.000000e+000  1.000000e+000
    outer loop
      vertex  1.463373e+002  4.591362e+001  5.977740e+002
      vertex -1.463373e+002  4.591362e+001  5.977740e+002
      vertex  1.502315e+002  3.087336e+001  5.977740e+002
    endloop
  endfacet
  facet normal  0.000000e+000  0.000000e+000  1.000000e+000
    outer loop
      vertex  1.502315e+002  3.087336e+001  5.977740e+002
      vertex -1.463373e+002  4.591362e+001  5.977740e+002
      vertex -1.502315e+002  3.087336e+001  5.977740e+002
    endloop
  endfacet
  facet normal  -0.000000e+000  0.000000e+000  1.000000e+000
    outer loop
      vertex  1.502315e+002  3.087336e+001  5.977740e+002
      vertex -1.502315e+002  3.087336e+001  5.977740e+002
      vertex  1.525841e+002  1.551629e+001  5.977740e+002
    endloop
  endfacet
  facet normal  0.000000e+000  0.000000e+000  1.000000e+000
    outer loop
      vertex  1.525841e+002  1.551629e+001  5.977740e+002
      vertex -1.502315e+002  3.087336e+001  5.977740e+002
      vertex -1.525841e+002  1.551629e+001  5.977740e+002
    endloop
  endfacet
  facet normal  -0.000000e+000  0.000000e+000  1.000000e+000
    outer loop
      vertex  1.525841e+002  1.551629e+001  5.977740e+002
      vertex -1.525841e+002  1.551629e+001  5.977740e+002
      vertex  1.533710e+002 -3.756506e-014  5.977740e+002
    endloop
  endfacet
  facet normal  0.000000e+000  0.000000e+000  1.000000e+000
    outer loop
      vertex  1.533710e+002 -3.756506e-014  5.977740e+002
      vertex -1.525841e+002  1.551629e+001  5.977740e+002
      vertex -1.533710e+002  1.878253e-014  5.977740e+002
    endloop
  endfacet
  facet normal  0.000000e+000  0.000000e+000  1.000000e+000
    outer loop
      vertex  1.533710e+002 -3.756506e-014  5.977740e+002
      vertex -1.533710e+002  1.878253e-014  5.977740e+002
      vertex  1.525841e+002 -1.551629e+001  5.977740e+002
    endloop
  endfacet
  facet normal  0.000000e+000  0.000000e+000  1.000000e+000
    outer loop
      vertex  1.525841e+002 -1.551629e+001  5.977740e+002
      vertex -1.533710e+002  1.878253e-014  5.977740e+002
      vertex -1.525841e+002 -1.551629e+001  5.977740e+002
    endloop
  endfacet
  facet normal  -0.000000e+000  0.000000e+000  1.000000e+000
    outer loop
      vertex  1.525841e+002 -1.551629e+001  5.977740e+002
      vertex -1.525841e+002 -1.551629e+001  5.977740e+002
      vertex  1.502315e+002 -3.087336e+001  5.977740e+002
    endloop
  endfacet
  facet normal  0.000000e+000  0.000000e+000  1.000000e+000
    outer loop
      vertex  1.502315e+002 -3.087336e+001  5.977740e+002
      vertex -1.525841e+002 -1.551629e+001  5.977740e+002
      vertex -1.502315e+002 -3.087336e+001  5.977740e+002
    endloop
  endfacet
  facet normal  -0.000000e+000  0.000000e+000  1.000000e+000
    outer loop
      vertex  1.502315e+002 -3.087336e+001  5.977740e+002
      vertex -1.502315e+002 -3.087336e+001  5.977740e+002
      vertex  1.463373e+002 -4.591362e+001  5.977740e+002
    endloop
  endfacet
  facet normal  0.000000e+000  0.000000e+000  1.000000e+000
    outer loop
      vertex  1.463373e+002 -4.591362e+001  5.977740e+002
      vertex -1.502315e+002 -3.087336e+001  5.977740e+002
      vertex -1.463373e+002 -4.591362e+001  5.977740e+002
    endloop
  endfacet
  facet normal  -0.000000e+000  0.000000e+000  1.000000e+000
    outer loop
      vertex  1.463373e+002 -4.591362e+001  5.977740e+002
      vertex -1.463373e+002 -4.591362e+001  5.977740e+002
      vertex  1.409415e+002 -6.048275e+001  5.977740e+002
    endloop
  endfacet
  facet normal  0.000000e+000  0.000000e+000  1.000000e+000
    outer loop
      vertex  1.409415e+002 -6.048275e+001  5.977740e+002
      vertex -1.463373e+002 -4.591362e+001  5.977740e+002
      vertex -1.409415e+002 -6.048275e+001  5.977740e+002
    endloop
  endfacet
  facet normal  -0.000000e+000  0.000000e+000  1.000000e+000
    outer loop
      vertex  1.409415e+002 -6.048275e+001  5.977740e+002
      vertex -1.409415e+002 -6.048275e+001  5.977740e+002
      vertex  1.340994e+002 -7.443124e+001  5.977740e+002
    endloop
  endfacet
  facet normal  0.000000e+000  0.000000e+000  9.999999e-001
    outer loop
      vertex  1.340994e+002 -7.443124e+001  5.977740e+002
      vertex -1.409415e+002 -6.048275e+001  5.977740e+002
      vertex -1.340994e+002 -7.443124e+001  5.977740e+002
    endloop
  endfacet
  facet normal  -0.000000e+000  0.000000e+000  1.000000e+000
    outer loop
      vertex  1.340994e+002 -7.443124e+001  5.977740e+002
      vertex -1.340994e+002 -7.443124e+001  5.977740e+002
      vertex  1.258813e+002 -8.761597e+001  5.977740e+002
    endloop
  endfacet
  facet normal  0.000000e+000  0.000000e+000  1.000000e+000
    outer loop
      vertex  1.258813e+002 -8.761597e+001  5.977740e+002
      vertex -1.340994e+002 -7.443124e+001  5.977740e+002
      vertex -1.258813e+002 -8.761597e+001  5.977740e+002
    endloop
  endfacet
  facet normal  -0.000000e+000  0.000000e+000  1.000000e+000
    outer loop
      vertex  1.258813e+002 -8.761597e+001  5.977740e+002
      vertex -1.258813e+002 -8.761597e+001  5.977740e+002
      vertex  1.163715e+002 -9.990165e+001  5.977740e+002
    endloop
  endfacet
  facet normal  0.000000e+000  0.000000e+000  9.999999e-001
    outer loop
      vertex  1.163715e+002 -9.990165e+001  5.977740e+002
      vertex -1.258813e+002 -8.761597e+001  5.977740e+002
      vertex -1.163715e+002 -9.990165e+001  5.977740e+002
    endloop
  endfacet
  facet normal  -0.000000e+000  0.000000e+000  1.000000e+000
    outer loop
      vertex  1.163715e+002 -9.990165e+001  5.977740e+002
      vertex -1.163715e+002 -9.990165e+001  5.977740e+002
      vertex  1.056675e+002 -1.111622e+002  5.977740e+002
    endloop
  endfacet
  facet normal  0.000000e+000  0.000000e+000  1.000000e+000
    outer loop
      vertex  1.056675e+002 -1.111622e+002  5.977740e+002
      vertex -1.163715e+002 -9.990165e+001  5.977740e+002
      vertex -1.056675e+002 -1.111622e+002  5.977740e+002
    endloop
  endfacet
  facet normal  -0.000000e+000  0.000000e+000  1.000000e+000
    outer loop
      vertex  1.056675e+002 -1.111622e+002  5.977740e+002
      vertex -1.056675e+002 -1.111622e+002  5.977740e+002
      vertex  9.387930e+001 -1.212821e+002  5.977740e+002
    endloop
  endfacet
  facet normal  0.000000e+000  0.000000e+000  1.000000e+000
    outer loop
      vertex  9.387930e+001 -1.212821e+002  5.977740e+002
      vertex -1.056675e+002 -1.111622e+002  5.977740e+002
      vertex -9.387930e+001 -1.212821e+002  5.977740e+002
    endloop
  endfacet
  facet normal  -0.000000e+000  0.000000e+000  1.000000e+000
    outer loop
      vertex  9.387930e+001 -1.212821e+002  5.977740e+002
      vertex -9.387930e+001 -1.212821e+002  5.977740e+002
      vertex  8.112774e+001 -1.301574e+002  5.977740e+002
    endloop
  endfacet
  facet normal  0.000000e+000  0.000000e+000  1.000000e+000
    outer loop
      vertex  8.112774e+001 -1.301574e+002  5.977740e+002
      vertex -9.387930e+001 -1.212821e+002  5.977740e+002
      vertex -8.112774e+001 -1.301574e+002  5.977740e+002
    endloop
  endfacet
  facet normal  -0.000000e+000  0.000000e+000  1.000000e+000
    outer loop
      vertex  8.112774e+001 -1.301574e+002  5.977740e+002
      vertex -8.112774e+001 -1.301574e+002  5.977740e+002
      vertex  6.754369e+001 -1.376972e+002  5.977740e+002
    endloop
  endfacet
  facet normal  0.000000e+000  0.000000e+000  1.000000e+000
    outer loop
      vertex  6.754369e+001 -1.376972e+002  5.977740e+002
      vertex -8.112774e+001 -1.301574e+002  5.977740e+002
      vertex -6.754369e+001 -1.376972e+002  5.977740e+002
    endloop
  endfacet
  facet normal  -0.000000e+000  0.000000e+000  1.000000e+000
    outer loop
      vertex  6.754369e+001 -1.376972e+002  5.977740e+002
      vertex -6.754369e+001 -1.376972e+002  5.977740e+002
      vertex  5.326656e+001 -1.438240e+002  5.977740e+002
    endloop
  endfacet
  facet normal  0.000000e+000  0.000000e+000  1.000000e+000
    outer loop
      vertex  5.326656e+001 -1.438240e+002  5.977740e+002
      vertex -6.754369e+001 -1.376972e+002  5.977740e+002
      vertex -5.326656e+001 -1.438240e+002  5.977740e+002
    endloop
  endfacet
  facet normal  -0.000000e+000  0.000000e+000  1.000000e+000
    outer loop
      vertex  5.326656e+001 -1.438240e+002  5.977740e+002
      vertex -5.326656e+001 -1.438240e+002  5.977740e+002
      vertex  3.844283e+001 -1.484750e+002  5.977740e+002
    endloop
  endfacet
  facet normal  0.000000e+000  0.000000e+000  1.000000e+000
    outer loop
      vertex  3.844283e+001 -1.484750e+002  5.977740e+002
      vertex -5.326656e+001 -1.438240e+002  5.977740e+002
      vertex -3.844283e+001 -1.484750e+002  5.977740e+002
    endloop
  endfacet
  facet normal  -0.000000e+000  0.000000e+000  9.999999e-001
    outer loop
      vertex  3.844283e+001 -1.484750e+002  5.977740e+002
      vertex -3.844283e+001 -1.484750e+002  5.977740e+002
      vertex  2.322463e+001 -1.516024e+002  5.977740e+002
    endloop
  endfacet
  facet normal  0.000000e+000  0.000000e+000  1.000000e+000
    outer loop
      vertex  2.322463e+001 -1.516024e+002  5.977740e+002
      vertex -3.844283e+001 -1.484750e+002  5.977740e+002
      vertex -2.322463e+001 -1.516024e+002  5.977740e+002
    endloop
  endfacet
  facet normal  -0.000000e+000  0.000000e+000  1.000000e+000
    outer loop
      vertex  2.322463e+001 -1.516024e+002  5.977740e+002
      vertex -2.322463e+001 -1.516024e+002  5.977740e+002
      vertex  7.768114e+000 -1.531741e+002  5.977740e+002
    endloop
  endfacet
  facet normal  0.000000e+000  0.000000e+000  1.000000e+000
    outer loop
      vertex  7.768114e+000 -1.531741e+002  5.977740e+002
      vertex -2.322463e+001 -1.516024e+002  5.977740e+002
      vertex -7.768114e+000 -1.531741e+002  5.977740e+002
    endloop
  endfacet
  facet normal  0.000000e+000  0.000000e+000 -1.000000e+000
    outer loop
      vertex  1.533710e+002 -3.756506e-014  6.371000e+002
      vertex -1.525841e+002  1.551629e+001  6.371000e+002
      vertex  1.525841e+002  1.551629e+001  6.371000e+002
    endloop
  endfacet
  facet normal  0.000000e+000  0.000000e+000 -1.000000e+000
    outer loop
      vertex  1.525841e+002  1.551629e+001  6.371000e+002
      vertex -1.525841e+002  1.551629e+001  6.371000e+002
      vertex -1.502315e+002  3.087336e+001  6.371000e+002
    endloop
  endfacet
  facet normal  0.000000e+000  0.000000e+000 -1.000000e+000
    outer loop
      vertex  1.525841e+002  1.551629e+001  6.371000e+002
      vertex -1.502315e+002  3.087336e+001  6.371000e+002
      vertex  1.502315e+002  3.087336e+001  6.371000e+002
    endloop
  endfacet
  facet normal  0.000000e+000  0.000000e+000 -1.000000e+000
    outer loop
      vertex  1.502315e+002  3.087336e+001  6.371000e+002
      vertex -1.502315e+002  3.087336e+001  6.371000e+002
      vertex -1.463373e+002  4.591362e+001  6.371000e+002
    endloop
  endfacet
  facet normal  0.000000e+000  0.000000e+000 -1.000000e+000
    outer loop
      vertex  1.502315e+002  3.087336e+001  6.371000e+002
      vertex -1.463373e+002  4.591362e+001  6.371000e+002
      vertex  1.463373e+002  4.591362e+001  6.371000e+002
    endloop
  endfacet
  facet normal  0.000000e+000  0.000000e+000 -1.000000e+000
    outer loop
      vertex  1.463373e+002  4.591362e+001  6.371000e+002
      vertex -1.463373e+002  4.591362e+001  6.371000e+002
      vertex -1.409415e+002  6.048275e+001  6.371000e+002
    endloop
  endfacet
  facet normal  0.000000e+000  0.000000e+000 -1.000000e+000
    outer loop
      vertex  1.463373e+002  4.591362e+001  6.371000e+002
      vertex -1.409415e+002  6.048275e+001  6.371000e+002
      vertex  1.409415e+002  6.048275e+001  6.371000e+002
    endloop
  endfacet
  facet normal  0.000000e+000  0.000000e+000 -1.000000e+000
    outer loop
      vertex  1.409415e+002  6.048275e+001  6.371000e+002
      vertex -1.409415e+002  6.048275e+001  6.371000e+002
      vertex -1.340994e+002  7.443124e+001  6.371000e+002
    endloop
  endfacet
  facet normal  0.000000e+000  0.000000e+000 -9.999999e-001
    outer loop
      vertex  1.409415e+002  6.048275e+001  6.371000e+002
      vertex -1.340994e+002  7.443124e+001  6.371000e+002
      vertex  1.340994e+002  7.443124e+001  6.371000e+002
    endloop
  endfacet
  facet normal  0.000000e+000  0.000000e+000 -1.000000e+000
    outer loop
      vertex  1.340994e+002  7.443124e+001  6.371000e+002
      vertex -1.340994e+002  7.443124e+001  6.371000e+002
      vertex -1.258813e+002  8.761597e+001  6.371000e+002
    endloop
  endfacet
  facet normal  0.000000e+000  0.000000e+000 -1.000000e+000
    outer loop
      vertex  1.340994e+002  7.443124e+001  6.371000e+002
      vertex -1.258813e+002  8.761597e+001  6.371000e+002
      vertex  1.258813e+002  8.761597e+001  6.371000e+002
    endloop
  endfacet
  facet normal  0.000000e+000  0.000000e+000 -1.000000e+000
    outer loop
      vertex  1.258813e+002  8.761597e+001  6.371000e+002
      vertex -1.258813e+002  8.761597e+001  6.371000e+002
      vertex -1.163715e+002  9.990165e+001  6.371000e+002
    endloop
  endfacet
  facet normal  0.000000e+000  0.000000e+000 -9.999999e-001
    outer loop
      vertex  1.258813e+002  8.761597e+001  6.371000e+002
      vertex -1.163715e+002  9.990165e+001  6.371000e+002
      vertex  1.163715e+002  9.990165e+001  6.371000e+002
    endloop
  endfacet
  facet normal  0.000000e+000  0.000000e+000 -1.000000e+000
    outer loop
      vertex  1.163715e+002  9.990165e+001  6.371000e+002
      vertex -1.163715e+002  9.990165e+001  6.371000e+002
      vertex -1.056675e+002  1.111622e+002  6.371000e+002
    endloop
  endfacet
  facet normal  0.000000e+000  0.000000e+000 -1.000000e+000
    outer loop
      vertex  1.163715e+002  9.990165e+001  6.371000e+002
      vertex -1.056675e+002  1.111622e+002  6.371000e+002
      vertex  1.056675e+002  1.111622e+002  6.371000e+002
    endloop
  endfacet
  facet normal  0.000000e+000  0.000000e+000 -1.000000e+000
    outer loop
      vertex  1.056675e+002  1.111622e+002  6.371000e+002
      vertex -1.056675e+002  1.111622e+002  6.371000e+002
      vertex -9.387930e+001  1.212821e+002  6.371000e+002
    endloop
  endfacet
  facet normal  0.000000e+000  0.000000e+000 -1.000000e+000
    outer loop
      vertex  1.056675e+002  1.111622e+002  6.371000e+002
      vertex -9.387930e+001  1.212821e+002  6.371000e+002
      vertex  9.387930e+001  1.212821e+002  6.371000e+002
    endloop
  endfacet
  facet normal  0.000000e+000  0.000000e+000 -1.000000e+000
    outer loop
      vertex  9.387930e+001  1.212821e+002  6.371000e+002
      vertex -9.387930e+001  1.212821e+002  6.371000e+002
      vertex -8.112774e+001  1.301574e+002  6.371000e+002
    endloop
  endfacet
  facet normal  0.000000e+000  0.000000e+000 -1.000000e+000
    outer loop
      vertex  9.387930e+001  1.212821e+002  6.371000e+002
      vertex -8.112774e+001  1.301574e+002  6.371000e+002
      vertex  8.112774e+001  1.301574e+002  6.371000e+002
    endloop
  endfacet
  facet normal  0.000000e+000  0.000000e+000 -1.000000e+000
    outer loop
      vertex  8.112774e+001  1.301574e+002  6.371000e+002
      vertex -8.112774e+001  1.301574e+002  6.371000e+002
      vertex -6.754369e+001  1.376972e+002  6.371000e+002
    endloop
  endfacet
  facet normal  0.000000e+000  0.000000e+000 -1.000000e+000
    outer loop
      vertex  8.112774e+001  1.301574e+002  6.371000e+002
      vertex -6.754369e+001  1.376972e+002  6.371000e+002
      vertex  6.754369e+001  1.376972e+002  6.371000e+002
    endloop
  endfacet
  facet normal  0.000000e+000  0.000000e+000 -1.000000e+000
    outer loop
      vertex  6.754369e+001  1.376972e+002  6.371000e+002
      vertex -6.754369e+001  1.376972e+002  6.371000e+002
      vertex -5.326656e+001  1.438240e+002  6.371000e+002
    endloop
  endfacet
  facet normal  0.000000e+000  0.000000e+000 -1.000000e+000
    outer loop
      vertex  6.754369e+001  1.376972e+002  6.371000e+002
      vertex -5.326656e+001  1.438240e+002  6.371000e+002
      vertex  5.326656e+001  1.438240e+002  6.371000e+002
    endloop
  endfacet
  facet normal  0.000000e+000  0.000000e+000 -1.000000e+000
    outer loop
      vertex  5.326656e+001  1.438240e+002  6.371000e+002
      vertex -5.326656e+001  1.438240e+002  6.371000e+002
      vertex -3.844283e+001  1.484750e+002  6.371000e+002
    endloop
  endfacet
  facet normal  0.000000e+000  0.000000e+000 -1.000000e+000
    outer loop
      vertex  5.326656e+001  1.438240e+002  6.371000e+002
      vertex -3.844283e+001  1.484750e+002  6.371000e+002
      vertex  3.844283e+001  1.484750e+002  6.371000e+002
    endloop
  endfacet
  facet normal  0.000000e+000  0.000000e+000 -9.999999e-001
    outer loop
      vertex  3.844283e+001  1.484750e+002  6.371000e+002
      vertex -3.844283e+001  1.484750e+002  6.371000e+002
      vertex -2.322463e+001  1.516024e+002  6.371000e+002
    endloop
  endfacet
  facet normal  0.000000e+000  0.000000e+000 -1.000000e+000
    outer loop
      vertex  3.844283e+001  1.484750e+002  6.371000e+002
      vertex -2.322463e+001  1.516024e+002  6.371000e+002
      vertex  2.322463e+001  1.516024e+002  6.371000e+002
    endloop
  endfacet
  facet normal  0.000000e+000  0.000000e+000 -1.000000e+000
    outer loop
      vertex  2.322463e+001  1.516024e+002  6.371000e+002
      vertex -2.322463e+001  1.516024e+002  6.371000e+002
      vertex -7.768114e+000  1.531741e+002  6.371000e+002
    endloop
  endfacet
  facet normal  0.000000e+000  0.000000e+000 -1.000000e+000
    outer loop
      vertex  2.322463e+001  1.516024e+002  6.371000e+002
      vertex -7.768114e+000  1.531741e+002  6.371000e+002
      vertex  7.768114e+000  1.531741e+002  6.371000e+002
    endloop
  endfacet
  facet normal  0.000000e+000  0.000000e+000 -1.000000e+000
    outer loop
      vertex -1.525841e+002  1.551629e+001  6.371000e+002
      vertex  1.533710e+002 -3.756506e-014  6.371000e+002
      vertex -1.533710e+002  1.878253e-014  6.371000e+002
    endloop
  endfacet
  facet normal  0.000000e+000  0.000000e+000 -1.000000e+000
    outer loop
      vertex -1.533710e+002  1.878253e-014  6.371000e+002
      vertex  1.533710e+002 -3.756506e-014  6.371000e+002
      vertex  1.525841e+002 -1.551629e+001  6.371000e+002
    endloop
  endfacet
  facet normal  0.000000e+000  0.000000e+000 -1.000000e+000
    outer loop
      vertex -1.533710e+002  1.878253e-014  6.371000e+002
      vertex  1.525841e+002 -1.551629e+001  6.371000e+002
      vertex -1.525841e+002 -1.551629e+001  6.371000e+002
    endloop
  endfacet
  facet normal  0.000000e+000  0.000000e+000 -1.000000e+000
    outer loop
      vertex -1.525841e+002 -1.551629e+001  6.371000e+002
      vertex  1.525841e+002 -1.551629e+001  6.371000e+002
      vertex  1.502315e+002 -3.087336e+001  6.371000e+002
    endloop
  endfacet
  facet normal  0.000000e+000  0.000000e+000 -1.000000e+000
    outer loop
      vertex -1.525841e+002 -1.551629e+001  6.371000e+002
      vertex  1.502315e+002 -3.087336e+001  6.371000e+002
      vertex -1.502315e+002 -3.087336e+001  6.371000e+002
    endloop
  endfacet
  facet normal  0.000000e+000  0.000000e+000 -1.000000e+000
    outer loop
      vertex -1.502315e+002 -3.087336e+001  6.371000e+002
      vertex  1.502315e+002 -3.087336e+001  6.371000e+002
      vertex  1.463373e+002 -4.591362e+001  6.371000e+002
    endloop
  endfacet
  facet normal  0.000000e+000  0.000000e+000 -1.000000e+000
    outer loop
      vertex -1.502315e+002 -3.087336e+001  6.371000e+002
      vertex  1.463373e+002 -4.591362e+001  6.371000e+002
      vertex -1.463373e+002 -4.591362e+001  6.371000e+002
    endloop
  endfacet
  facet normal  0.000000e+000  0.000000e+000 -1.000000e+000
    outer loop
      vertex -1.463373e+002 -4.591362e+001  6.371000e+002
      vertex  1.463373e+002 -4.591362e+001  6.371000e+002
      vertex  1.409415e+002 -6.048275e+001  6.371000e+002
    endloop
  endfacet
  facet normal  0.000000e+000  0.000000e+000 -1.000000e+000
    outer loop
      vertex -1.463373e+002 -4.591362e+001  6.371000e+002
      vertex  1.409415e+002 -6.048275e+001  6.371000e+002
      vertex -1.409415e+002 -6.048275e+001  6.371000e+002
    endloop
  endfacet
  facet normal  0.000000e+000  0.000000e+000 -1.000000e+000
    outer loop
      vertex -1.409415e+002 -6.048275e+001  6.371000e+002
      vertex  1.409415e+002 -6.048275e+001  6.371000e+002
      vertex  1.340994e+002 -7.443124e+001  6.371000e+002
    endloop
  endfacet
  facet normal  0.000000e+000  0.000000e+000 -9.999999e-001
    outer loop
      vertex -1.409415e+002 -6.048275e+001  6.371000e+002
      vertex  1.340994e+002 -7.443124e+001  6.371000e+002
      vertex -1.340994e+002 -7.443124e+001  6.371000e+002
    endloop
  endfacet
  facet normal  0.000000e+000  0.000000e+000 -1.000000e+000
    outer loop
      vertex -1.340994e+002 -7.443124e+001  6.371000e+002
      vertex  1.340994e+002 -7.443124e+001  6.371000e+002
      vertex  1.258813e+002 -8.761597e+001  6.371000e+002
    endloop
  endfacet
  facet normal  0.000000e+000  0.000000e+000 -1.000000e+000
    outer loop
      vertex -1.340994e+002 -7.443124e+001  6.371000e+002
      vertex  1.258813e+002 -8.761597e+001  6.371000e+002
      vertex -1.258813e+002 -8.761597e+001  6.371000e+002
    endloop
  endfacet
  facet normal  0.000000e+000  0.000000e+000 -1.000000e+000
    outer loop
      vertex -1.258813e+002 -8.761597e+001  6.371000e+002
      vertex  1.258813e+002 -8.761597e+001  6.371000e+002
      vertex  1.163715e+002 -9.990165e+001  6.371000e+002
    endloop
  endfacet
  facet normal  0.000000e+000  0.000000e+000 -9.999999e-001
    outer loop
      vertex -1.258813e+002 -8.761597e+001  6.371000e+002
      vertex  1.163715e+002 -9.990165e+001  6.371000e+002
      vertex -1.163715e+002 -9.990165e+001  6.371000e+002
    endloop
  endfacet
  facet normal  0.000000e+000  0.000000e+000 -1.000000e+000
    outer loop
      vertex -1.163715e+002 -9.990165e+001  6.371000e+002
      vertex  1.163715e+002 -9.990165e+001  6.371000e+002
      vertex  1.056675e+002 -1.111622e+002  6.371000e+002
    endloop
  endfacet
  facet normal  0.000000e+000  0.000000e+000 -1.000000e+000
    outer loop
      vertex -1.163715e+002 -9.990165e+001  6.371000e+002
      vertex  1.056675e+002 -1.111622e+002  6.371000e+002
      vertex -1.056675e+002 -1.111622e+002  6.371000e+002
    endloop
  endfacet
  facet normal  0.000000e+000  0.000000e+000 -1.000000e+000
    outer loop
      vertex -1.056675e+002 -1.111622e+002  6.371000e+002
      vertex  1.056675e+002 -1.111622e+002  6.371000e+002
      vertex  9.387930e+001 -1.212821e+002  6.371000e+002
    endloop
  endfacet
  facet normal  0.000000e+000  0.000000e+000 -1.000000e+000
    outer loop
      vertex -1.056675e+002 -1.111622e+002  6.371000e+002
      vertex  9.387930e+001 -1.212821e+002  6.371000e+002
      vertex -9.387930e+001 -1.212821e+002  6.371000e+002
    endloop
  endfacet
  facet normal  0.000000e+000  0.000000e+000 -1.000000e+000
    outer loop
      vertex -9.387930e+001 -1.212821e+002  6.371000e+002
      vertex  9.387930e+001 -1.212821e+002  6.371000e+002
      vertex  8.112774e+001 -1.301574e+002  6.371000e+002
    endloop
  endfacet
  facet normal  0.000000e+000  0.000000e+000 -1.000000e+000
    outer loop
      vertex -9.387930e+001 -1.212821e+002  6.371000e+002
      vertex  8.112774e+001 -1.301574e+002  6.371000e+002
      vertex -8.112774e+001 -1.301574e+002  6.371000e+002
    endloop
  endfacet
  facet normal  0.000000e+000  0.000000e+000 -1.000000e+000
    outer loop
      vertex -8.112774e+001 -1.301574e+002  6.371000e+002
      vertex  8.112774e+001 -1.301574e+002  6.371000e+002
      vertex  6.754369e+001 -1.376972e+002  6.371000e+002
    endloop
  endfacet
  facet normal  0.000000e+000  0.000000e+000 -1.000000e+000
    outer loop
      vertex -8.112774e+001 -1.301574e+002  6.371000e+002
      vertex  6.754369e+001 -1.376972e+002  6.371000e+002
      vertex -6.754369e+001 -1.376972e+002  6.371000e+002
    endloop
  endfacet
  facet normal  0.000000e+000  0.000000e+000 -1.000000e+000
    outer loop
      vertex -6.754369e+001 -1.376972e+002  6.371000e+002
      vertex  6.754369e+001 -1.376972e+002  6.371000e+002
      vertex  5.326656e+001 -1.438240e+002  6.371000e+002
    endloop
  endfacet
  facet normal  0.000000e+000  0.000000e+000 -1.000000e+000
    outer loop
      vertex -6.754369e+001 -1.376972e+002  6.371000e+002
      vertex  5.326656e+001 -1.438240e+002  6.371000e+002
      vertex -5.326656e+001 -1.438240e+002  6.371000e+002
    endloop
  endfacet
  facet normal  0.000000e+000  0.000000e+000 -1.000000e+000
    outer loop
      vertex -5.326656e+001 -1.438240e+002  6.371000e+002
      vertex  5.326656e+001 -1.438240e+002  6.371000e+002
      vertex  3.844283e+001 -1.484750e+002  6.371000e+002
    endloop
  endfacet
  facet normal  0.000000e+000  0.000000e+000 -1.000000e+000
    outer loop
      vertex -5.326656e+001 -1.438240e+002  6.371000e+002
      vertex  3.844283e+001 -1.484750e+002  6.371000e+002
      vertex -3.844283e+001 -1.484750e+002  6.371000e+002
    endloop
  endfacet
  facet normal  0.000000e+000  0.000000e+000 -9.999999e-001
    outer loop
      vertex -3.844283e+001 -1.484750e+002  6.371000e+002
      vertex  3.844283e+001 -1.484750e+002  6.371000e+002
      vertex  2.322463e+001 -1.516024e+002  6.371000e+002
    endloop
  endfacet
  facet normal  0.000000e+000  0.000000e+000 -1.000000e+000
    outer loop
      vertex -3.844283e+001 -1.484750e+002  6.371000e+002
      vertex  2.322463e+001 -1.516024e+002  6.371000e+002
      vertex -2.322463e+001 -1.516024e+002  6.371000e+002
    endloop
  endfacet
  facet normal  0.000000e+000  0.000000e+000 -1.000000e+000
    outer loop
      vertex -2.322463e+001 -1.516024e+002  6.371000e+002
      vertex  2.322463e+001 -1.516024e+002  6.371000e+002
      vertex  7.768114e+000 -1.531741e+002  6.371000e+002
    endloop
  endfacet
  facet normal  0.000000e+000  0.000000e+000 -1.000000e+000
    outer loop
      vertex -2.322463e+001 -1.516024e+002  6.371000e+002
      vertex  7.768114e+000 -1.531741e+002  6.371000e+002
      vertex -7.768114e+000 -1.531741e+002  6.371000e+002
    endloop
  endfacet
  facet normal  1.011685e-001 -9.948693e-001  0.000000e+000
    outer loop
      vertex -7.768114e+000  1.531741e+002  5.977740e+002
      vertex -2.322463e+001  1.516024e+002  6.371000e+002
      vertex -2.322463e+001  1.516024e+002  5.977740e+002
    endloop
  endfacet
  facet normal  2.012980e-001 -9.795300e-001  0.000000e+000
    outer loop
      vertex -2.322463e+001  1.516024e+002  5.977740e+002
      vertex -2.322463e+001  1.516024e+002  6.371000e+002
      vertex -3.844283e+001  1.484750e+002  6.371000e+002
    endloop
  endfacet
  facet normal  2.012980e-001 -9.795300e-001  0.000000e+000
    outer loop
      vertex -2.322463e+001  1.516024e+002  5.977740e+002
      vertex -3.844283e+001  1.484750e+002  6.371000e+002
      vertex -3.844283e+001  1.484750e+002  5.977740e+002
    endloop
  endfacet
  facet normal  2.993629e-001 -9.541394e-001  0.000000e+000
    outer loop
      vertex -3.844283e+001  1.484750e+002  5.977740e+002
      vertex -3.844283e+001  1.484750e+002  6.371000e+002
      vertex -5.326656e+001  1.438240e+002  6.371000e+002
    endloop
  endfacet
  facet normal  2.993629e-001 -9.541394e-001  0.000000e+000
    outer loop
      vertex -3.844283e+001  1.484750e+002  5.977740e+002
      vertex -5.326656e+001  1.438240e+002  6.371000e+002
      vertex -5.326656e+001  1.438240e+002  5.977740e+002
    endloop
  endfacet
  facet normal  3.943566e-001 -9.189575e-001  0.000000e+000
    outer loop
      vertex -5.326656e+001  1.438240e+002  5.977740e+002
      vertex -5.326656e+001  1.438240e+002  6.371000e+002
      vertex -6.754369e+001  1.376972e+002  6.371000e+002
    endloop
  endfacet
  facet normal  3.943566e-001 -9.189575e-001  0.000000e+000
    outer loop
      vertex -5.326656e+001  1.438240e+002  5.977740e+002
      vertex -6.754369e+001  1.376972e+002  6.371000e+002
      vertex -6.754369e+001  1.376972e+002  5.977740e+002
    endloop
  endfacet
  facet normal  4.853015e-001 -8.743470e-001  0.000000e+000
    outer loop
      vertex -6.754369e+001  1.376972e+002  5.977740e+002
      vertex -6.754369e+001  1.376972e+002  6.371000e+002
      vertex -8.112774e+001  1.301574e+002  6.371000e+002
    endloop
  endfacet
  facet normal  4.853015e-001 -8.743470e-001  0.000000e+000
    outer loop
      vertex -6.754369e+001  1.376972e+002  5.977740e+002
      vertex -8.112774e+001  1.301574e+002  6.371000e+002
      vertex -8.112774e+001  1.301574e+002  5.977740e+002
    endloop
  endfacet
  facet normal  5.712686e-001 -8.207632e-001  0.000000e+000
    outer loop
      vertex -8.112774e+001  1.301574e+002  5.977740e+002
      vertex -8.112774e+001  1.301574e+002  6.371000e+002
      vertex -9.387930e+001  1.212821e+002  6.371000e+002
    endloop
  endfacet
  facet normal  5.712686e-001 -8.207632e-001  0.000000e+000
    outer loop
      vertex -8.112774e+001  1.301574e+002  5.977740e+002
      vertex -9.387930e+001  1.212821e+002  6.371000e+002
      vertex -9.387930e+001  1.212821e+002  5.977740e+002
    endloop
  endfacet
  facet normal  6.513723e-001 -7.587583e-001  0.000000e+000
    outer loop
      vertex -9.387930e+001  1.212821e+002  5.977740e+002
      vertex -9.387930e+001  1.212821e+002  6.371000e+002
      vertex -1.056675e+002  1.111622e+002  6.371000e+002
    endloop
  endfacet
  facet normal  6.513723e-001 -7.587583e-001  0.000000e+000
    outer loop
      vertex -9.387930e+001  1.212821e+002  5.977740e+002
      vertex -1.056675e+002  1.111622e+002  6.371000e+002
      vertex -1.056675e+002  1.111622e+002  5.977740e+002
    endloop
  endfacet
  facet normal  7.247930e-001 -6.889668e-001  0.000000e+000
    outer loop
      vertex -1.056675e+002  1.111622e+002  5.977740e+002
      vertex -1.056675e+002  1.111622e+002  6.371000e+002
      vertex -1.163715e+002  9.990165e+001  6.371000e+002
    endloop
  endfacet
  facet normal  7.247930e-001 -6.889668e-001  0.000000e+000
    outer loop
      vertex -1.056675e+002  1.111622e+002  5.977740e+002
      vertex -1.163715e+002  9.990165e+001  6.371000e+002
      vertex -1.163715e+002  9.990165e+001  5.977740e+002
    endloop
  endfacet
  facet normal  7.907758e-001 -6.121059e-001  0.000000e+000
    outer loop
      vertex -1.163715e+002  9.990165e+001  5.977740e+002
      vertex -1.163715e+002  9.990165e+001  6.371000e+002
      vertex -1.258813e+002  8.761597e+001  6.371000e+002
    endloop
  endfacet
  facet normal  7.907758e-001 -6.121059e-001  0.000000e+000
    outer loop
      vertex -1.163715e+002  9.990165e+001  5.977740e+002
      vertex -1.258813e+002  8.761597e+001  6.371000e+002
      vertex -1.258813e+002  8.761597e+001  5.977740e+002
    endloop
  endfacet
  facet normal  8.486444e-001 -5.289639e-001  0.000000e+000
    outer loop
      vertex -1.258813e+002  8.761597e+001  5.977740e+002
      vertex -1.258813e+002  8.761597e+001  6.371000e+002
      vertex -1.340994e+002  7.443124e+001  6.371000e+002
    endloop
  endfacet
  facet normal  8.486444e-001 -5.289639e-001  0.000000e+000
    outer loop
      vertex -1.258813e+002  8.761597e+001  5.977740e+002
      vertex -1.340994e+002  7.443124e+001  6.371000e+002
      vertex -1.340994e+002  7.443124e+001  5.977740e+002
    endloop
  endfacet
  facet normal  8.978043e-001 -4.403947e-001  0.000000e+000
    outer loop
      vertex -1.340994e+002  7.443124e+001  5.977740e+002
      vertex -1.340994e+002  7.443124e+001  6.371000e+002
      vertex -1.409415e+002  6.048275e+001  6.371000e+002
    endloop
  endfacet
  facet normal  8.978043e-001 -4.403947e-001  0.000000e+000
    outer loop
      vertex -1.340994e+002  7.443124e+001  5.977740e+002
      vertex -1.409415e+002  6.048275e+001  6.371000e+002
      vertex -1.409415e+002  6.048275e+001  5.977740e+002
    endloop
  endfacet
  facet normal  9.377522e-001 -3.473051e-001  0.000000e+000
    outer loop
      vertex -1.409415e+002  6.048275e+001  5.977740e+002
      vertex -1.409415e+002  6.048275e+001  6.371000e+002
      vertex -1.463373e+002  4.591362e+001  6.371000e+002
    endloop
  endfacet
  facet normal  9.377522e-001 -3.473051e-001  0.000000e+000
    outer loop
      vertex -1.409415e+002  6.048275e+001  5.977740e+002
      vertex -1.463373e+002  4.591362e+001  6.371000e+002
      vertex -1.463373e+002  4.591362e+001  5.977740e+002
    endloop
  endfacet
  facet normal  9.680771e-001 -2.506526e-001  0.000000e+000
    outer loop
      vertex -1.463373e+002  4.591362e+001  5.977740e+002
      vertex -1.463373e+002  4.591362e+001  6.371000e+002
      vertex -1.502315e+002  3.087336e+001  6.371000e+002
    endloop
  endfacet
  facet normal  9.680771e-001 -2.506526e-001  0.000000e+000
    outer loop
      vertex -1.463373e+002  4.591362e+001  5.977740e+002
      vertex -1.502315e+002  3.087336e+001  6.371000e+002
      vertex -1.502315e+002  3.087336e+001  5.977740e+002
    endloop
  endfacet
  facet normal  9.884683e-001 -1.514277e-001  0.000000e+000
    outer loop
      vertex -1.502315e+002  3.087336e+001  5.977740e+002
      vertex -1.502315e+002  3.087336e+001  6.371000e+002
      vertex -1.525841e+002  1.551629e+001  6.371000e+002
    endloop
  endfacet
  facet normal  9.884683e-001 -1.514277e-001  0.000000e+000
    outer loop
      vertex -1.502315e+002  3.087336e+001  5.977740e+002
      vertex -1.525841e+002  1.551629e+001  6.371000e+002
      vertex -1.525841e+002  1.551629e+001  5.977740e+002
    endloop
  endfacet
  facet normal  9.987165e-001 -5.064909e-002  0.000000e+000
    outer loop
      vertex -1.525841e+002  1.551629e+001  5.977740e+002
      vertex -1.525841e+002  1.551629e+001  6.371000e+002
      vertex -1.533710e+002  1.878253e-014  6.371000e+002
    endloop
  endfacet
  facet normal  9.987165e-001 -5.064909e-002  0.000000e+000
    outer loop
      vertex -1.525841e+002  1.551629e+001  5.977740e+002
      vertex -1.533710e+002  1.878253e-014  6.371000e+002
      vertex -1.533710e+002  1.878253e-014  5.977740e+002
    endloop
  endfacet
  facet normal  1.011685e-001 -9.948693e-001  0.000000e+000
    outer loop
      vertex -2.322463e+001  1.516024e+002  6.371000e+002
      vertex -7.768114e+000  1.531741e+002  5.977740e+002
      vertex -7.768114e+000  1.531741e+002  6.371000e+002
    endloop
  endfacet
  facet normal  0.000000e+000 -1.000000e+000  0.000000e+000
    outer loop
      vertex -7.768114e+000  1.531741e+002  6.371000e+002
      vertex -7.768114e+000  1.531741e+002  5.977740e+002
      vertex  7.768114e+000  1.531741e+002  5.977740e+002
    endloop
  endfacet
  facet normal  0.000000e+000 -1.000000e+000  0.000000e+000
    outer loop
      vertex -7.768114e+000  1.531741e+002  6.371000e+002
      vertex  7.768114e+000  1.531741e+002  5.977740e+002
      vertex  7.768114e+000  1.531741e+002  6.371000e+002
    endloop
  endfacet
  facet normal -1.011685e-001 -9.948693e-001  -0.000000e+000
    outer loop
      vertex  7.768114e+000  1.531741e+002  6.371000e+002
      vertex  7.768114e+000  1.531741e+002  5.977740e+002
      vertex  2.322463e+001  1.516024e+002  5.977740e+002
    endloop
  endfacet
  facet normal -1.011685e-001 -9.948693e-001  0.000000e+000
    outer loop
      vertex  7.768114e+000  1.531741e+002  6.371000e+002
      vertex  2.322463e+001  1.516024e+002  5.977740e+002
      vertex  2.322463e+001  1.516024e+002  6.371000e+002
    endloop
  endfacet
  facet normal -2.012980e-001 -9.795300e-001  -0.000000e+000
    outer loop
      vertex  2.322463e+001  1.516024e+002  6.371000e+002
      vertex  2.322463e+001  1.516024e+002  5.977740e+002
      vertex  3.844283e+001  1.484750e+002  5.977740e+002
    endloop
  endfacet
  facet normal -2.012980e-001 -9.795300e-001  0.000000e+000
    outer loop
      vertex  2.322463e+001  1.516024e+002  6.371000e+002
      vertex  3.844283e+001  1.484750e+002  5.977740e+002
      vertex  3.844283e+001  1.484750e+002  6.371000e+002
    endloop
  endfacet
  facet normal -2.993629e-001 -9.541394e-001  -0.000000e+000
    outer loop
      vertex  3.844283e+001  1.484750e+002  6.371000e+002
      vertex  3.844283e+001  1.484750e+002  5.977740e+002
      vertex  5.326656e+001  1.438240e+002  5.977740e+002
    endloop
  endfacet
  facet normal -2.993629e-001 -9.541394e-001  0.000000e+000
    outer loop
      vertex  3.844283e+001  1.484750e+002  6.371000e+002
      vertex  5.326656e+001  1.438240e+002  5.977740e+002
      vertex  5.326656e+001  1.438240e+002  6.371000e+002
    endloop
  endfacet
  facet normal -3.943566e-001 -9.189575e-001  -0.000000e+000
    outer loop
      vertex  5.326656e+001  1.438240e+002  6.371000e+002
      vertex  5.326656e+001  1.438240e+002  5.977740e+002
      vertex  6.754369e+001  1.376972e+002  5.977740e+002
    endloop
  endfacet
  facet normal -3.943566e-001 -9.189575e-001  0.000000e+000
    outer loop
      vertex  5.326656e+001  1.438240e+002  6.371000e+002
      vertex  6.754369e+001  1.376972e+002  5.977740e+002
      vertex  6.754369e+001  1.376972e+002  6.371000e+002
    endloop
  endfacet
  facet normal -4.853015e-001 -8.743470e-001  -0.000000e+000
    outer loop
      vertex  6.754369e+001  1.376972e+002  6.371000e+002
      vertex  6.754369e+001  1.376972e+002  5.977740e+002
      vertex  8.112774e+001  1.301574e+002  5.977740e+002
    endloop
  endfacet
  facet normal -4.853015e-001 -8.743470e-001  0.000000e+000
    outer loop
      vertex  6.754369e+001  1.376972e+002  6.371000e+002
      vertex  8.112774e+001  1.301574e+002  5.977740e+002
      vertex  8.112774e+001  1.301574e+002  6.371000e+002
    endloop
  endfacet
  facet normal -5.712686e-001 -8.207632e-001  -0.000000e+000
    outer loop
      vertex  8.112774e+001  1.301574e+002  6.371000e+002
      vertex  8.112774e+001  1.301574e+002  5.977740e+002
      vertex  9.387930e+001  1.212821e+002  5.977740e+002
    endloop
  endfacet
  facet normal -5.712686e-001 -8.207632e-001  0.000000e+000
    outer loop
      vertex  8.112774e+001  1.301574e+002  6.371000e+002
      vertex  9.387930e+001  1.212821e+002  5.977740e+002
      vertex  9.387930e+001  1.212821e+002  6.371000e+002
    endloop
  endfacet
  facet normal -6.513723e-001 -7.587583e-001  -0.000000e+000
    outer loop
      vertex  9.387930e+001  1.212821e+002  6.371000e+002
      vertex  9.387930e+001  1.212821e+002  5.977740e+002
      vertex  1.056675e+002  1.111622e+002  5.977740e+002
    endloop
  endfacet
  facet normal -6.513723e-001 -7.587583e-001  0.000000e+000
    outer loop
      vertex  9.387930e+001  1.212821e+002  6.371000e+002
      vertex  1.056675e+002  1.111622e+002  5.977740e+002
      vertex  1.056675e+002  1.111622e+002  6.371000e+002
    endloop
  endfacet
  facet normal -7.247930e-001 -6.889668e-001  -0.000000e+000
    outer loop
      vertex  1.056675e+002  1.111622e+002  6.371000e+002
      vertex  1.056675e+002  1.111622e+002  5.977740e+002
      vertex  1.163715e+002  9.990165e+001  5.977740e+002
    endloop
  endfacet
  facet normal -7.247930e-001 -6.889668e-001  0.000000e+000
    outer loop
      vertex  1.056675e+002  1.111622e+002  6.371000e+002
      vertex  1.163715e+002  9.990165e+001  5.977740e+002
      vertex  1.163715e+002  9.990165e+001  6.371000e+002
    endloop
  endfacet
  facet normal -7.907758e-001 -6.121059e-001  -0.000000e+000
    outer loop
      vertex  1.163715e+002  9.990165e+001  6.371000e+002
      vertex  1.163715e+002  9.990165e+001  5.977740e+002
      vertex  1.258813e+002  8.761597e+001  5.977740e+002
    endloop
  endfacet
  facet normal -7.907758e-001 -6.121059e-001  0.000000e+000
    outer loop
      vertex  1.163715e+002  9.990165e+001  6.371000e+002
      vertex  1.258813e+002  8.761597e+001  5.977740e+002
      vertex  1.258813e+002  8.761597e+001  6.371000e+002
    endloop
  endfacet
  facet normal -8.486444e-001 -5.289639e-001  -0.000000e+000
    outer loop
      vertex  1.258813e+002  8.761597e+001  6.371000e+002
      vertex  1.258813e+002  8.761597e+001  5.977740e+002
      vertex  1.340994e+002  7.443124e+001  5.977740e+002
    endloop
  endfacet
  facet normal -8.486444e-001 -5.289639e-001  0.000000e+000
    outer loop
      vertex  1.258813e+002  8.761597e+001  6.371000e+002
      vertex  1.340994e+002  7.443124e+001  5.977740e+002
      vertex  1.340994e+002  7.443124e+001  6.371000e+002
    endloop
  endfacet
  facet normal -8.978043e-001 -4.403947e-001  -0.000000e+000
    outer loop
      vertex  1.340994e+002  7.443124e+001  6.371000e+002
      vertex  1.340994e+002  7.443124e+001  5.977740e+002
      vertex  1.409415e+002  6.048275e+001  5.977740e+002
    endloop
  endfacet
  facet normal -8.978043e-001 -4.403947e-001  0.000000e+000
    outer loop
      vertex  1.340994e+002  7.443124e+001  6.371000e+002
      vertex  1.409415e+002  6.048275e+001  5.977740e+002
      vertex  1.409415e+002  6.048275e+001  6.371000e+002
    endloop
  endfacet
  facet normal -9.377522e-001 -3.473051e-001  -0.000000e+000
    outer loop
      vertex  1.409415e+002  6.048275e+001  6.371000e+002
      vertex  1.409415e+002  6.048275e+001  5.977740e+002
      vertex  1.463373e+002  4.591362e+001  5.977740e+002
    endloop
  endfacet
  facet normal -9.377522e-001 -3.473051e-001  0.000000e+000
    outer loop
      vertex  1.409415e+002  6.048275e+001  6.371000e+002
      vertex  1.463373e+002  4.591362e+001  5.977740e+002
      vertex  1.463373e+002  4.591362e+001  6.371000e+002
    endloop
  endfacet
  facet normal -9.680771e-001 -2.506526e-001  -0.000000e+000
    outer loop
      vertex  1.463373e+002  4.591362e+001  6.371000e+002
      vertex  1.463373e+002  4.591362e+001  5.977740e+002
      vertex  1.502315e+002  3.087336e+001  5.977740e+002
    endloop
  endfacet
  facet normal -9.680771e-001 -2.506526e-001  0.000000e+000
    outer loop
      vertex  1.463373e+002  4.591362e+001  6.371000e+002
      vertex  1.502315e+002  3.087336e+001  5.977740e+002
      vertex  1.502315e+002  3.087336e+001  6.371000e+002
    endloop
  endfacet
  facet normal -9.884683e-001 -1.514277e-001  -0.000000e+000
    outer loop
      vertex  1.502315e+002  3.087336e+001  6.371000e+002
      vertex  1.502315e+002  3.087336e+001  5.977740e+002
      vertex  1.525841e+002  1.551629e+001  5.977740e+002
    endloop
  endfacet
  facet normal -9.884683e-001 -1.514277e-001  0.000000e+000
    outer loop
      vertex  1.502315e+002  3.087336e+001  6.371000e+002
      vertex  1.525841e+002  1.551629e+001  5.977740e+002
      vertex  1.525841e+002  1.551629e+001  6.371000e+002
    endloop
  endfacet
  facet normal -9.987165e-001 -5.064909e-002  -0.000000e+000
    outer loop
      vertex  1.525841e+002  1.551629e+001  6.371000e+002
      vertex  1.525841e+002  1.551629e+001  5.977740e+002
      vertex  1.533710e+002 -3.756506e-014  5.977740e+002
    endloop
  endfacet
  facet normal -9.987165e-001 -5.064909e-002  0.000000e+000
    outer loop
      vertex  1.525841e+002  1.551629e+001  6.371000e+002
      vertex  1.533710e+002 -3.756506e-014  5.977740e+002
      vertex  1.533710e+002 -3.756506e-014  6.371000e+002
    endloop
  endfacet
  facet normal -1.011685e-001  9.948693e-001  0.000000e+000
    outer loop
      vertex  7.768114e+000 -1.531741e+002  5.977740e+002
      vertex  2.322463e+001 -1.516024e+002  6.371000e+002
      vertex  2.322463e+001 -1.516024e+002  5.977740e+002
    endloop
  endfacet
  facet normal -2.012980e-001  9.795300e-001  0.000000e+000
    outer loop
      vertex  2.322463e+001 -1.516024e+002  5.977740e+002
      vertex  2.322463e+001 -1.516024e+002  6.371000e+002
      vertex  3.844283e+001 -1.484750e+002  6.371000e+002
    endloop
  endfacet
  facet normal -2.012980e-001  9.795300e-001  0.000000e+000
    outer loop
      vertex  2.322463e+001 -1.516024e+002  5.977740e+002
      vertex  3.844283e+001 -1.484750e+002  6.371000e+002
      vertex  3.844283e+001 -1.484750e+002  5.977740e+002
    endloop
  endfacet
  facet normal -2.993629e-001  9.541394e-001  0.000000e+000
    outer loop
      vertex  3.844283e+001 -1.484750e+002  5.977740e+002
      vertex  3.844283e+001 -1.484750e+002  6.371000e+002
      vertex  5.326656e+001 -1.438240e+002  6.371000e+002
    endloop
  endfacet
  facet normal -2.993629e-001  9.541394e-001  0.000000e+000
    outer loop
      vertex  3.844283e+001 -1.484750e+002  5.977740e+002
      vertex  5.326656e+001 -1.438240e+002  6.371000e+002
      vertex  5.326656e+001 -1.438240e+002  5.977740e+002
    endloop
  endfacet
  facet normal -3.943566e-001  9.189575e-001  0.000000e+000
    outer loop
      vertex  5.326656e+001 -1.438240e+002  5.977740e+002
      vertex  5.326656e+001 -1.438240e+002  6.371000e+002
      vertex  6.754369e+001 -1.376972e+002  6.371000e+002
    endloop
  endfacet
  facet normal -3.943566e-001  9.189575e-001  0.000000e+000
    outer loop
      vertex  5.326656e+001 -1.438240e+002  5.977740e+002
      vertex  6.754369e+001 -1.376972e+002  6.371000e+002
      vertex  6.754369e+001 -1.376972e+002  5.977740e+002
    endloop
  endfacet
  facet normal -4.853015e-001  8.743470e-001  0.000000e+000
    outer loop
      vertex  6.754369e+001 -1.376972e+002  5.977740e+002
      vertex  6.754369e+001 -1.376972e+002  6.371000e+002
      vertex  8.112774e+001 -1.301574e+002  6.371000e+002
    endloop
  endfacet
  facet normal -4.853015e-001  8.743470e-001  0.000000e+000
    outer loop
      vertex  6.754369e+001 -1.376972e+002  5.977740e+002
      vertex  8.112774e+001 -1.301574e+002  6.371000e+002
      vertex  8.112774e+001 -1.301574e+002  5.977740e+002
    endloop
  endfacet
  facet normal -5.712686e-001  8.207632e-001  0.000000e+000
    outer loop
      vertex  8.112774e+001 -1.301574e+002  5.977740e+002
      vertex  8.112774e+001 -1.301574e+002  6.371000e+002
      vertex  9.387930e+001 -1.212821e+002  6.371000e+002
    endloop
  endfacet
  facet normal -5.712686e-001  8.207632e-001  0.000000e+000
    outer loop
      vertex  8.112774e+001 -1.301574e+002  5.977740e+002
      vertex  9.387930e+001 -1.212821e+002  6.371000e+002
      vertex  9.387930e+001 -1.212821e+002  5.977740e+002
    endloop
  endfacet
  facet normal -6.513723e-001  7.587583e-001  0.000000e+000
    outer loop
      vertex  9.387930e+001 -1.212821e+002  5.977740e+002
      vertex  9.387930e+001 -1.212821e+002  6.371000e+002
      vertex  1.056675e+002 -1.111622e+002  6.371000e+002
    endloop
  endfacet
  facet normal -6.513723e-001  7.587583e-001  0.000000e+000
    outer loop
      vertex  9.387930e+001 -1.212821e+002  5.977740e+002
      vertex  1.056675e+002 -1.111622e+002  6.371000e+002
      vertex  1.056675e+002 -1.111622e+002  5.977740e+002
    endloop
  endfacet
  facet normal -7.247930e-001  6.889668e-001  0.000000e+000
    outer loop
      vertex  1.056675e+002 -1.111622e+002  5.977740e+002
      vertex  1.056675e+002 -1.111622e+002  6.371000e+002
      vertex  1.163715e+002 -9.990165e+001  6.371000e+002
    endloop
  endfacet
  facet normal -7.247930e-001  6.889668e-001  0.000000e+000
    outer loop
      vertex  1.056675e+002 -1.111622e+002  5.977740e+002
      vertex  1.163715e+002 -9.990165e+001  6.371000e+002
      vertex  1.163715e+002 -9.990165e+001  5.977740e+002
    endloop
  endfacet
  facet normal -7.907758e-001  6.121059e-001  0.000000e+000
    outer loop
      vertex  1.163715e+002 -9.990165e+001  5.977740e+002
      vertex  1.163715e+002 -9.990165e+001  6.371000e+002
      vertex  1.258813e+002 -8.761597e+001  6.371000e+002
    endloop
  endfacet
  facet normal -7.907758e-001  6.121059e-001  0.000000e+000
    outer loop
      vertex  1.163715e+002 -9.990165e+001  5.977740e+002
      vertex  1.258813e+002 -8.761597e+001  6.371000e+002
      vertex  1.258813e+002 -8.761597e+001  5.977740e+002
    endloop
  endfacet
  facet normal -8.486444e-001  5.289639e-001  0.000000e+000
    outer loop
      vertex  1.258813e+002 -8.761597e+001  5.977740e+002
      vertex  1.258813e+002 -8.761597e+001  6.371000e+002
      vertex  1.340994e+002 -7.443124e+001  6.371000e+002
    endloop
  endfacet
  facet normal -8.486444e-001  5.289639e-001  0.000000e+000
    outer loop
      vertex  1.258813e+002 -8.761597e+001  5.977740e+002
      vertex  1.340994e+002 -7.443124e+001  6.371000e+002
      vertex  1.340994e+002 -7.443124e+001  5.977740e+002
    endloop
  endfacet
  facet normal -8.978043e-001  4.403947e-001  0.000000e+000
    outer loop
      vertex  1.340994e+002 -7.443124e+001  5.977740e+002
      vertex  1.340994e+002 -7.443124e+001  6.371000e+002
      vertex  1.409415e+002 -6.048275e+001  6.371000e+002
    endloop
  endfacet
  facet normal -8.978043e-001  4.403947e-001  0.000000e+000
    outer loop
      vertex  1.340994e+002 -7.443124e+001  5.977740e+002
      vertex  1.409415e+002 -6.048275e+001  6.371000e+002
      vertex  1.409415e+002 -6.048275e+001  5.977740e+002
    endloop
  endfacet
  facet normal -9.377522e-001  3.473051e-001  0.000000e+000
    outer loop
      vertex  1.409415e+002 -6.048275e+001  5.977740e+002
      vertex  1.409415e+002 -6.048275e+001  6.371000e+002
      vertex  1.463373e+002 -4.591362e+001  6.371000e+002
    endloop
  endfacet
  facet normal -9.377522e-001  3.473051e-001  0.000000e+000
    outer loop
      vertex  1.409415e+002 -6.048275e+001  5.977740e+002
      vertex  1.463373e+002 -4.591362e+001  6.371000e+002
      vertex  1.463373e+002 -4.591362e+001  5.977740e+002
    endloop
  endfacet
  facet normal -9.680771e-001  2.506526e-001  0.000000e+000
    outer loop
      vertex  1.463373e+002 -4.591362e+001  5.977740e+002
      vertex  1.463373e+002 -4.591362e+001  6.371000e+002
      vertex  1.502315e+002 -3.087336e+001  6.371000e+002
    endloop
  endfacet
  facet normal -9.680771e-001  2.506526e-001  0.000000e+000
    outer loop
      vertex  1.463373e+002 -4.591362e+001  5.977740e+002
      vertex  1.502315e+002 -3.087336e+001  6.371000e+002
      vertex  1.502315e+002 -3.087336e+001  5.977740e+002
    endloop
  endfacet
  facet normal -9.884683e-001  1.514277e-001  0.000000e+000
    outer loop
      vertex  1.502315e+002 -3.087336e+001  5.977740e+002
      vertex  1.502315e+002 -3.087336e+001  6.371000e+002
      vertex  1.525841e+002 -1.551629e+001  6.371000e+002
    endloop
  endfacet
  facet normal -9.884683e-001  1.514277e-001  0.000000e+000
    outer loop
      vertex  1.502315e+002 -3.087336e+001  5.977740e+002
      vertex  1.525841e+002 -1.551629e+001  6.371000e+002
      vertex  1.525841e+002 -1.551629e+001  5.977740e+002
    endloop
  endfacet
  facet normal -9.987165e-001  5.064909e-002  0.000000e+000
    outer loop
      vertex  1.525841e+002 -1.551629e+001  5.977740e+002
      vertex  1.525841e+002 -1.551629e+001  6.371000e+002
      vertex  1.533710e+002 -3.756506e-014  6.371000e+002
    endloop
  endfacet
  facet normal -9.987165e-001  5.064909e-002  0.000000e+000
    outer loop
      vertex  1.525841e+002 -1.551629e+001  5.977740e+002
      vertex  1.533710e+002 -3.756506e-014  6.371000e+002
      vertex  1.533710e+002 -3.756506e-014  5.977740e+002
    endloop
  endfacet
  facet normal -1.011685e-001  9.948693e-001  0.000000e+000
    outer loop
      vertex  2.322463e+001 -1.516024e+002  6.371000e+002
      vertex  7.768114e+000 -1.531741e+002  5.977740e+002
      vertex  7.768114e+000 -1.531741e+002  6.371000e+002
    endloop
  endfacet
  facet normal  0.000000e+000  1.000000e+000  0.000000e+000
    outer loop
      vertex  7.768114e+000 -1.531741e+002  6.371000e+002
      vertex  7.768114e+000 -1.531741e+002  5.977740e+002
      vertex -7.768114e+000 -1.531741e+002  5.977740e+002
    endloop
  endfacet
  facet normal  0.000000e+000  1.000000e+000  0.000000e+000
    outer loop
      vertex  7.768114e+000 -1.531741e+002  6.371000e+002
      vertex -7.768114e+000 -1.531741e+002  5.977740e+002
      vertex -7.768114e+000 -1.531741e+002  6.371000e+002
    endloop
  endfacet
  facet normal  1.011685e-001  9.948693e-001  0.000000e+000
    outer loop
      vertex -7.768114e+000 -1.531741e+002  6.371000e+002
      vertex -7.768114e+000 -1.531741e+002  5.977740e+002
      vertex -2.322463e+001 -1.516024e+002  5.977740e+002
    endloop
  endfacet
  facet normal  1.011685e-001  9.948693e-001  -0.000000e+000
    outer loop
      vertex -7.768114e+000 -1.531741e+002  6.371000e+002
      vertex -2.322463e+001 -1.516024e+002  5.977740e+002
      vertex -2.322463e+001 -1.516024e+002  6.371000e+002
    endloop
  endfacet
  facet normal  2.012980e-001  9.795300e-001  0.000000e+000
    outer loop
      vertex -2.322463e+001 -1.516024e+002  6.371000e+002
      vertex -2.322463e+001 -1.516024e+002  5.977740e+002
      vertex -3.844283e+001 -1.484750e+002  5.977740e+002
    endloop
  endfacet
  facet normal  2.012980e-001  9.795300e-001  -0.000000e+000
    outer loop
      vertex -2.322463e+001 -1.516024e+002  6.371000e+002
      vertex -3.844283e+001 -1.484750e+002  5.977740e+002
      vertex -3.844283e+001 -1.484750e+002  6.371000e+002
    endloop
  endfacet
  facet normal  2.993629e-001  9.541394e-001  0.000000e+000
    outer loop
      vertex -3.844283e+001 -1.484750e+002  6.371000e+002
      vertex -3.844283e+001 -1.484750e+002  5.977740e+002
      vertex -5.326656e+001 -1.438240e+002  5.977740e+002
    endloop
  endfacet
  facet normal  2.993629e-001  9.541394e-001  -0.000000e+000
    outer loop
      vertex -3.844283e+001 -1.484750e+002  6.371000e+002
      vertex -5.326656e+001 -1.438240e+002  5.977740e+002
      vertex -5.326656e+001 -1.438240e+002  6.371000e+002
    endloop
  endfacet
  facet normal  3.943566e-001  9.189575e-001  0.000000e+000
    outer loop
      vertex -5.326656e+001 -1.438240e+002  6.371000e+002
      vertex -5.326656e+001 -1.438240e+002  5.977740e+002
      vertex -6.754369e+001 -1.376972e+002  5.977740e+002
    endloop
  endfacet
  facet normal  3.943566e-001  9.189575e-001  -0.000000e+000
    outer loop
      vertex -5.326656e+001 -1.438240e+002  6.371000e+002
      vertex -6.754369e+001 -1.376972e+002  5.977740e+002
      vertex -6.754369e+001 -1.376972e+002  6.371000e+002
    endloop
  endfacet
  facet normal  4.853015e-001  8.743470e-001  0.000000e+000
    outer loop
      vertex -6.754369e+001 -1.376972e+002  6.371000e+002
      vertex -6.754369e+001 -1.376972e+002  5.977740e+002
      vertex -8.112774e+001 -1.301574e+002  5.977740e+002
    endloop
  endfacet
  facet normal  4.853015e-001  8.743470e-001  -0.000000e+000
    outer loop
      vertex -6.754369e+001 -1.376972e+002  6.371000e+002
      vertex -8.112774e+001 -1.301574e+002  5.977740e+002
      vertex -8.112774e+001 -1.301574e+002  6.371000e+002
    endloop
  endfacet
  facet normal  5.712686e-001  8.207632e-001  0.000000e+000
    outer loop
      vertex -8.112774e+001 -1.301574e+002  6.371000e+002
      vertex -8.112774e+001 -1.301574e+002  5.977740e+002
      vertex -9.387930e+001 -1.212821e+002  5.977740e+002
    endloop
  endfacet
  facet normal  5.712686e-001  8.207632e-001  -0.000000e+000
    outer loop
      vertex -8.112774e+001 -1.301574e+002  6.371000e+002
      vertex -9.387930e+001 -1.212821e+002  5.977740e+002
      vertex -9.387930e+001 -1.212821e+002  6.371000e+002
    endloop
  endfacet
  facet normal  6.513723e-001  7.587583e-001  0.000000e+000
    outer loop
      vertex -9.387930e+001 -1.212821e+002  6.371000e+002
      vertex -9.387930e+001 -1.212821e+002  5.977740e+002
      vertex -1.056675e+002 -1.111622e+002  5.977740e+002
    endloop
  endfacet
  facet normal  6.513723e-001  7.587583e-001  -0.000000e+000
    outer loop
      vertex -9.387930e+001 -1.212821e+002  6.371000e+002
      vertex -1.056675e+002 -1.111622e+002  5.977740e+002
      vertex -1.056675e+002 -1.111622e+002  6.371000e+002
    endloop
  endfacet
  facet normal  7.247930e-001  6.889668e-001  0.000000e+000
    outer loop
      vertex -1.056675e+002 -1.111622e+002  6.371000e+002
      vertex -1.056675e+002 -1.111622e+002  5.977740e+002
      vertex -1.163715e+002 -9.990165e+001  5.977740e+002
    endloop
  endfacet
  facet normal  7.247930e-001  6.889668e-001  -0.000000e+000
    outer loop
      vertex -1.056675e+002 -1.111622e+002  6.371000e+002
      vertex -1.163715e+002 -9.990165e+001  5.977740e+002
      vertex -1.163715e+002 -9.990165e+001  6.371000e+002
    endloop
  endfacet
  facet normal  7.907758e-001  6.121059e-001  0.000000e+000
    outer loop
      vertex -1.163715e+002 -9.990165e+001  6.371000e+002
      vertex -1.163715e+002 -9.990165e+001  5.977740e+002
      vertex -1.258813e+002 -8.761597e+001  5.977740e+002
    endloop
  endfacet
  facet normal  7.907758e-001  6.121059e-001  -0.000000e+000
    outer loop
      vertex -1.163715e+002 -9.990165e+001  6.371000e+002
      vertex -1.258813e+002 -8.761597e+001  5.977740e+002
      vertex -1.258813e+002 -8.761597e+001  6.371000e+002
    endloop
  endfacet
  facet normal  8.486444e-001  5.289639e-001  0.000000e+000
    outer loop
      vertex -1.258813e+002 -8.761597e+001  6.371000e+002
      vertex -1.258813e+002 -8.761597e+001  5.977740e+002
      vertex -1.340994e+002 -7.443124e+001  5.977740e+002
    endloop
  endfacet
  facet normal  8.486444e-001  5.289639e-001  -0.000000e+000
    outer loop
      vertex -1.258813e+002 -8.761597e+001  6.371000e+002
      vertex -1.340994e+002 -7.443124e+001  5.977740e+002
      vertex -1.340994e+002 -7.443124e+001  6.371000e+002
    endloop
  endfacet
  facet normal  8.978043e-001  4.403947e-001  0.000000e+000
    outer loop
      vertex -1.340994e+002 -7.443124e+001  6.371000e+002
      vertex -1.340994e+002 -7.443124e+001  5.977740e+002
      vertex -1.409415e+002 -6.048275e+001  5.977740e+002
    endloop
  endfacet
  facet normal  8.978043e-001  4.403947e-001  -0.000000e+000
    outer loop
      vertex -1.340994e+002 -7.443124e+001  6.371000e+002
      vertex -1.409415e+002 -6.048275e+001  5.977740e+002
      vertex -1.409415e+002 -6.048275e+001  6.371000e+002
    endloop
  endfacet
  facet normal  9.377522e-001  3.473051e-001  0.000000e+000
    outer loop
      vertex -1.409415e+002 -6.048275e+001  6.371000e+002
      vertex -1.409415e+002 -6.048275e+001  5.977740e+002
      vertex -1.463373e+002 -4.591362e+001  5.977740e+002
    endloop
  endfacet
  facet normal  9.377522e-001  3.473051e-001  -0.000000e+000
    outer loop
      vertex -1.409415e+002 -6.048275e+001  6.371000e+002
      vertex -1.463373e+002 -4.591362e+001  5.977740e+002
      vertex -1.463373e+002 -4.591362e+001  6.371000e+002
    endloop
  endfacet
  facet normal  9.680771e-001  2.506526e-001  0.000000e+000
    outer loop
      vertex -1.463373e+002 -4.591362e+001  6.371000e+002
      vertex -1.463373e+002 -4.591362e+001  5.977740e+002
      vertex -1.502315e+002 -3.087336e+001  5.977740e+002
    endloop
  endfacet
  facet normal  9.680771e-001  2.506526e-001  -0.000000e+000
    outer loop
      vertex -1.463373e+002 -4.591362e+001  6.371000e+002
      vertex -1.502315e+002 -3.087336e+001  5.977740e+002
      vertex -1.502315e+002 -3.087336e+001  6.371000e+002
    endloop
  endfacet
  facet normal  9.884683e-001  1.514277e-001  0.000000e+000
    outer loop
      vertex -1.502315e+002 -3.087336e+001  6.371000e+002
      vertex -1.502315e+002 -3.087336e+001  5.977740e+002
      vertex -1.525841e+002 -1.551629e+001  5.977740e+002
    endloop
  endfacet
  facet normal  9.884683e-001  1.514277e-001  -0.000000e+000
    outer loop
      vertex -1.502315e+002 -3.087336e+001  6.371000e+002
      vertex -1.525841e+002 -1.551629e+001  5.977740e+002
      vertex -1.525841e+002 -1.551629e+001  6.371000e+002
    endloop
  endfacet
  facet normal  9.987165e-001  5.064909e-002  0.000000e+000
    outer loop
      vertex -1.525841e+002 -1.551629e+001  6.371000e+002
      vertex -1.525841e+002 -1.551629e+001  5.977740e+002
      vertex -1.533710e+002  1.878253e-014  5.977740e+002
    endloop
  endfacet
  facet normal  9.987165e-001  5.064909e-002  -0.000000e+000
    outer loop
      vertex -1.525841e+002 -1.551629e+001  6.371000e+002
      vertex -1.533710e+002  1.878253e-014  5.977740e+002
      vertex -1.533710e+002  1.878253e-014  6.371000e+002
    endloop
  endfacet
endsolid CATIA STL
